G75*
%MOIN*%
%OFA0B0*%
%FSLAX24Y24*%
%IPPOS*%
%LPD*%
%AMOC8*
5,1,8,0,0,1.08239X$1,22.5*
%
%ADD10C,0.0000*%
%ADD11C,0.0060*%
%ADD12C,0.0160*%
%ADD13C,0.0300*%
%ADD14C,0.0050*%
%ADD15C,0.0100*%
%ADD16C,0.0125*%
D10*
X001180Y002680D02*
X001180Y025452D01*
X002519Y025483D02*
X002521Y025533D01*
X002527Y025583D01*
X002537Y025632D01*
X002551Y025680D01*
X002568Y025727D01*
X002589Y025772D01*
X002614Y025816D01*
X002642Y025857D01*
X002674Y025896D01*
X002708Y025933D01*
X002745Y025967D01*
X002785Y025997D01*
X002827Y026024D01*
X002871Y026048D01*
X002917Y026069D01*
X002964Y026085D01*
X003012Y026098D01*
X003062Y026107D01*
X003111Y026112D01*
X003162Y026113D01*
X003212Y026110D01*
X003261Y026103D01*
X003310Y026092D01*
X003358Y026077D01*
X003404Y026059D01*
X003449Y026037D01*
X003492Y026011D01*
X003533Y025982D01*
X003572Y025950D01*
X003608Y025915D01*
X003640Y025877D01*
X003670Y025837D01*
X003697Y025794D01*
X003720Y025750D01*
X003739Y025704D01*
X003755Y025656D01*
X003767Y025607D01*
X003775Y025558D01*
X003779Y025508D01*
X003779Y025458D01*
X003775Y025408D01*
X003767Y025359D01*
X003755Y025310D01*
X003739Y025262D01*
X003720Y025216D01*
X003697Y025172D01*
X003670Y025129D01*
X003640Y025089D01*
X003608Y025051D01*
X003572Y025016D01*
X003533Y024984D01*
X003492Y024955D01*
X003449Y024929D01*
X003404Y024907D01*
X003358Y024889D01*
X003310Y024874D01*
X003261Y024863D01*
X003212Y024856D01*
X003162Y024853D01*
X003111Y024854D01*
X003062Y024859D01*
X003012Y024868D01*
X002964Y024881D01*
X002917Y024897D01*
X002871Y024918D01*
X002827Y024942D01*
X002785Y024969D01*
X002745Y024999D01*
X002708Y025033D01*
X002674Y025070D01*
X002642Y025109D01*
X002614Y025150D01*
X002589Y025194D01*
X002568Y025239D01*
X002551Y025286D01*
X002537Y025334D01*
X002527Y025383D01*
X002521Y025433D01*
X002519Y025483D01*
X001180Y025452D02*
X001182Y025539D01*
X001188Y025626D01*
X001197Y025713D01*
X001210Y025799D01*
X001227Y025885D01*
X001248Y025970D01*
X001273Y026053D01*
X001301Y026136D01*
X001332Y026217D01*
X001367Y026297D01*
X001406Y026375D01*
X001448Y026452D01*
X001493Y026527D01*
X001542Y026599D01*
X001593Y026670D01*
X001648Y026738D01*
X001705Y026803D01*
X001766Y026866D01*
X001829Y026927D01*
X001894Y026984D01*
X001962Y027039D01*
X002033Y027090D01*
X002105Y027139D01*
X002180Y027184D01*
X002257Y027226D01*
X002335Y027265D01*
X002415Y027300D01*
X002496Y027331D01*
X002579Y027359D01*
X002662Y027384D01*
X002747Y027405D01*
X002833Y027422D01*
X002919Y027435D01*
X003006Y027444D01*
X003093Y027450D01*
X003180Y027452D01*
X032645Y027452D01*
X032046Y025483D02*
X032048Y025533D01*
X032054Y025583D01*
X032064Y025632D01*
X032078Y025680D01*
X032095Y025727D01*
X032116Y025772D01*
X032141Y025816D01*
X032169Y025857D01*
X032201Y025896D01*
X032235Y025933D01*
X032272Y025967D01*
X032312Y025997D01*
X032354Y026024D01*
X032398Y026048D01*
X032444Y026069D01*
X032491Y026085D01*
X032539Y026098D01*
X032589Y026107D01*
X032638Y026112D01*
X032689Y026113D01*
X032739Y026110D01*
X032788Y026103D01*
X032837Y026092D01*
X032885Y026077D01*
X032931Y026059D01*
X032976Y026037D01*
X033019Y026011D01*
X033060Y025982D01*
X033099Y025950D01*
X033135Y025915D01*
X033167Y025877D01*
X033197Y025837D01*
X033224Y025794D01*
X033247Y025750D01*
X033266Y025704D01*
X033282Y025656D01*
X033294Y025607D01*
X033302Y025558D01*
X033306Y025508D01*
X033306Y025458D01*
X033302Y025408D01*
X033294Y025359D01*
X033282Y025310D01*
X033266Y025262D01*
X033247Y025216D01*
X033224Y025172D01*
X033197Y025129D01*
X033167Y025089D01*
X033135Y025051D01*
X033099Y025016D01*
X033060Y024984D01*
X033019Y024955D01*
X032976Y024929D01*
X032931Y024907D01*
X032885Y024889D01*
X032837Y024874D01*
X032788Y024863D01*
X032739Y024856D01*
X032689Y024853D01*
X032638Y024854D01*
X032589Y024859D01*
X032539Y024868D01*
X032491Y024881D01*
X032444Y024897D01*
X032398Y024918D01*
X032354Y024942D01*
X032312Y024969D01*
X032272Y024999D01*
X032235Y025033D01*
X032201Y025070D01*
X032169Y025109D01*
X032141Y025150D01*
X032116Y025194D01*
X032095Y025239D01*
X032078Y025286D01*
X032064Y025334D01*
X032054Y025383D01*
X032048Y025433D01*
X032046Y025483D01*
X032645Y027452D02*
X032732Y027450D01*
X032819Y027444D01*
X032906Y027435D01*
X032992Y027422D01*
X033078Y027405D01*
X033163Y027384D01*
X033246Y027359D01*
X033329Y027331D01*
X033410Y027300D01*
X033490Y027265D01*
X033568Y027226D01*
X033645Y027184D01*
X033720Y027139D01*
X033792Y027090D01*
X033863Y027039D01*
X033931Y026984D01*
X033996Y026927D01*
X034059Y026866D01*
X034120Y026803D01*
X034177Y026738D01*
X034232Y026670D01*
X034283Y026599D01*
X034332Y026527D01*
X034377Y026452D01*
X034419Y026375D01*
X034458Y026297D01*
X034493Y026217D01*
X034524Y026136D01*
X034552Y026053D01*
X034577Y025970D01*
X034598Y025885D01*
X034615Y025799D01*
X034628Y025713D01*
X034637Y025626D01*
X034643Y025539D01*
X034645Y025452D01*
X034645Y002680D01*
X032046Y002649D02*
X032048Y002699D01*
X032054Y002749D01*
X032064Y002798D01*
X032078Y002846D01*
X032095Y002893D01*
X032116Y002938D01*
X032141Y002982D01*
X032169Y003023D01*
X032201Y003062D01*
X032235Y003099D01*
X032272Y003133D01*
X032312Y003163D01*
X032354Y003190D01*
X032398Y003214D01*
X032444Y003235D01*
X032491Y003251D01*
X032539Y003264D01*
X032589Y003273D01*
X032638Y003278D01*
X032689Y003279D01*
X032739Y003276D01*
X032788Y003269D01*
X032837Y003258D01*
X032885Y003243D01*
X032931Y003225D01*
X032976Y003203D01*
X033019Y003177D01*
X033060Y003148D01*
X033099Y003116D01*
X033135Y003081D01*
X033167Y003043D01*
X033197Y003003D01*
X033224Y002960D01*
X033247Y002916D01*
X033266Y002870D01*
X033282Y002822D01*
X033294Y002773D01*
X033302Y002724D01*
X033306Y002674D01*
X033306Y002624D01*
X033302Y002574D01*
X033294Y002525D01*
X033282Y002476D01*
X033266Y002428D01*
X033247Y002382D01*
X033224Y002338D01*
X033197Y002295D01*
X033167Y002255D01*
X033135Y002217D01*
X033099Y002182D01*
X033060Y002150D01*
X033019Y002121D01*
X032976Y002095D01*
X032931Y002073D01*
X032885Y002055D01*
X032837Y002040D01*
X032788Y002029D01*
X032739Y002022D01*
X032689Y002019D01*
X032638Y002020D01*
X032589Y002025D01*
X032539Y002034D01*
X032491Y002047D01*
X032444Y002063D01*
X032398Y002084D01*
X032354Y002108D01*
X032312Y002135D01*
X032272Y002165D01*
X032235Y002199D01*
X032201Y002236D01*
X032169Y002275D01*
X032141Y002316D01*
X032116Y002360D01*
X032095Y002405D01*
X032078Y002452D01*
X032064Y002500D01*
X032054Y002549D01*
X032048Y002599D01*
X032046Y002649D01*
X032645Y000680D02*
X032732Y000682D01*
X032819Y000688D01*
X032906Y000697D01*
X032992Y000710D01*
X033078Y000727D01*
X033163Y000748D01*
X033246Y000773D01*
X033329Y000801D01*
X033410Y000832D01*
X033490Y000867D01*
X033568Y000906D01*
X033645Y000948D01*
X033720Y000993D01*
X033792Y001042D01*
X033863Y001093D01*
X033931Y001148D01*
X033996Y001205D01*
X034059Y001266D01*
X034120Y001329D01*
X034177Y001394D01*
X034232Y001462D01*
X034283Y001533D01*
X034332Y001605D01*
X034377Y001680D01*
X034419Y001757D01*
X034458Y001835D01*
X034493Y001915D01*
X034524Y001996D01*
X034552Y002079D01*
X034577Y002162D01*
X034598Y002247D01*
X034615Y002333D01*
X034628Y002419D01*
X034637Y002506D01*
X034643Y002593D01*
X034645Y002680D01*
X032645Y000680D02*
X003180Y000680D01*
X002519Y002649D02*
X002521Y002699D01*
X002527Y002749D01*
X002537Y002798D01*
X002551Y002846D01*
X002568Y002893D01*
X002589Y002938D01*
X002614Y002982D01*
X002642Y003023D01*
X002674Y003062D01*
X002708Y003099D01*
X002745Y003133D01*
X002785Y003163D01*
X002827Y003190D01*
X002871Y003214D01*
X002917Y003235D01*
X002964Y003251D01*
X003012Y003264D01*
X003062Y003273D01*
X003111Y003278D01*
X003162Y003279D01*
X003212Y003276D01*
X003261Y003269D01*
X003310Y003258D01*
X003358Y003243D01*
X003404Y003225D01*
X003449Y003203D01*
X003492Y003177D01*
X003533Y003148D01*
X003572Y003116D01*
X003608Y003081D01*
X003640Y003043D01*
X003670Y003003D01*
X003697Y002960D01*
X003720Y002916D01*
X003739Y002870D01*
X003755Y002822D01*
X003767Y002773D01*
X003775Y002724D01*
X003779Y002674D01*
X003779Y002624D01*
X003775Y002574D01*
X003767Y002525D01*
X003755Y002476D01*
X003739Y002428D01*
X003720Y002382D01*
X003697Y002338D01*
X003670Y002295D01*
X003640Y002255D01*
X003608Y002217D01*
X003572Y002182D01*
X003533Y002150D01*
X003492Y002121D01*
X003449Y002095D01*
X003404Y002073D01*
X003358Y002055D01*
X003310Y002040D01*
X003261Y002029D01*
X003212Y002022D01*
X003162Y002019D01*
X003111Y002020D01*
X003062Y002025D01*
X003012Y002034D01*
X002964Y002047D01*
X002917Y002063D01*
X002871Y002084D01*
X002827Y002108D01*
X002785Y002135D01*
X002745Y002165D01*
X002708Y002199D01*
X002674Y002236D01*
X002642Y002275D01*
X002614Y002316D01*
X002589Y002360D01*
X002568Y002405D01*
X002551Y002452D01*
X002537Y002500D01*
X002527Y002549D01*
X002521Y002599D01*
X002519Y002649D01*
X001180Y002680D02*
X001182Y002593D01*
X001188Y002506D01*
X001197Y002419D01*
X001210Y002333D01*
X001227Y002247D01*
X001248Y002162D01*
X001273Y002079D01*
X001301Y001996D01*
X001332Y001915D01*
X001367Y001835D01*
X001406Y001757D01*
X001448Y001680D01*
X001493Y001605D01*
X001542Y001533D01*
X001593Y001462D01*
X001648Y001394D01*
X001705Y001329D01*
X001766Y001266D01*
X001829Y001205D01*
X001894Y001148D01*
X001962Y001093D01*
X002033Y001042D01*
X002105Y000993D01*
X002180Y000948D01*
X002257Y000906D01*
X002335Y000867D01*
X002415Y000832D01*
X002496Y000801D01*
X002579Y000773D01*
X002662Y000748D01*
X002747Y000727D01*
X002833Y000710D01*
X002919Y000697D01*
X003006Y000688D01*
X003093Y000682D01*
X003180Y000680D01*
X027400Y002380D02*
X027402Y002436D01*
X027408Y002491D01*
X027418Y002546D01*
X027432Y002600D01*
X027449Y002653D01*
X027470Y002704D01*
X027495Y002754D01*
X027524Y002802D01*
X027556Y002847D01*
X027591Y002891D01*
X027628Y002932D01*
X027669Y002969D01*
X027713Y003004D01*
X027758Y003036D01*
X027806Y003065D01*
X027856Y003090D01*
X027907Y003111D01*
X027960Y003128D01*
X028014Y003142D01*
X028069Y003152D01*
X028124Y003158D01*
X028180Y003160D01*
X028236Y003158D01*
X028291Y003152D01*
X028346Y003142D01*
X028400Y003128D01*
X028453Y003111D01*
X028504Y003090D01*
X028554Y003065D01*
X028602Y003036D01*
X028647Y003004D01*
X028691Y002969D01*
X028732Y002932D01*
X028769Y002891D01*
X028804Y002847D01*
X028836Y002802D01*
X028865Y002754D01*
X028890Y002704D01*
X028911Y002653D01*
X028928Y002600D01*
X028942Y002546D01*
X028952Y002491D01*
X028958Y002436D01*
X028960Y002380D01*
X028958Y002324D01*
X028952Y002269D01*
X028942Y002214D01*
X028928Y002160D01*
X028911Y002107D01*
X028890Y002056D01*
X028865Y002006D01*
X028836Y001958D01*
X028804Y001913D01*
X028769Y001869D01*
X028732Y001828D01*
X028691Y001791D01*
X028647Y001756D01*
X028602Y001724D01*
X028554Y001695D01*
X028504Y001670D01*
X028453Y001649D01*
X028400Y001632D01*
X028346Y001618D01*
X028291Y001608D01*
X028236Y001602D01*
X028180Y001600D01*
X028124Y001602D01*
X028069Y001608D01*
X028014Y001618D01*
X027960Y001632D01*
X027907Y001649D01*
X027856Y001670D01*
X027806Y001695D01*
X027758Y001724D01*
X027713Y001756D01*
X027669Y001791D01*
X027628Y001828D01*
X027591Y001869D01*
X027556Y001913D01*
X027524Y001958D01*
X027495Y002006D01*
X027470Y002056D01*
X027449Y002107D01*
X027432Y002160D01*
X027418Y002214D01*
X027408Y002269D01*
X027402Y002324D01*
X027400Y002380D01*
D11*
X024150Y019348D02*
X024150Y019775D01*
X023509Y019775D01*
X023509Y019348D01*
X023830Y019561D02*
X023830Y019775D01*
X023830Y019992D02*
X023830Y020206D01*
X023830Y019992D02*
X024043Y019992D01*
X024150Y020099D01*
X024150Y020313D01*
X024043Y020419D01*
X023616Y020419D01*
X023509Y020313D01*
X023509Y020099D01*
X023616Y019992D01*
X023723Y020637D02*
X023509Y020850D01*
X023723Y021064D01*
X024150Y021064D01*
X023830Y021064D02*
X023830Y020637D01*
X023723Y020637D02*
X024150Y020637D01*
X024150Y021495D02*
X023509Y021495D01*
X023509Y021708D02*
X023509Y021281D01*
X024150Y021926D02*
X024150Y022353D01*
X023509Y022353D01*
X023616Y022571D02*
X023509Y022677D01*
X023509Y022891D01*
X023616Y022998D01*
X024043Y022998D01*
X024150Y022891D01*
X024150Y022677D01*
X024043Y022571D01*
X023616Y022571D01*
X023509Y023215D02*
X023936Y023215D01*
X024150Y023429D01*
X023936Y023642D01*
X023509Y023642D01*
X022650Y023645D02*
X022650Y024072D01*
X022009Y024072D01*
X022009Y023645D01*
X022009Y023427D02*
X022009Y023107D01*
X022116Y023000D01*
X022330Y023000D01*
X022436Y023107D01*
X022436Y023427D01*
X022436Y023214D02*
X022650Y023000D01*
X022650Y023427D02*
X022009Y023427D01*
X022330Y023858D02*
X022330Y024072D01*
X022330Y024289D02*
X022330Y024503D01*
X022330Y024289D02*
X022543Y024289D01*
X022650Y024396D01*
X022650Y024610D01*
X022543Y024716D01*
X022116Y024716D01*
X022009Y024610D01*
X022009Y024396D01*
X022116Y024289D01*
X022009Y024934D02*
X022650Y024934D01*
X022009Y025361D01*
X022650Y025361D01*
X022650Y025578D02*
X022223Y025578D01*
X022009Y025792D01*
X022223Y026005D01*
X022650Y026005D01*
X022543Y026223D02*
X022116Y026223D01*
X022009Y026330D01*
X022009Y026650D01*
X022650Y026650D01*
X022650Y026330D01*
X022543Y026223D01*
X022330Y026005D02*
X022330Y025578D01*
X023509Y025469D02*
X023509Y025255D01*
X023616Y025149D01*
X023830Y025149D02*
X023830Y025362D01*
X023830Y025149D02*
X024043Y025149D01*
X024150Y025255D01*
X024150Y025469D01*
X024043Y025576D01*
X023616Y025576D01*
X023509Y025469D01*
X023509Y025792D02*
X023509Y026005D01*
X023509Y025899D02*
X024150Y025899D01*
X024150Y026005D02*
X024150Y025792D01*
X024150Y026223D02*
X023509Y026223D01*
X023830Y026223D02*
X023830Y026650D01*
X024150Y026650D02*
X023509Y026650D01*
X023509Y024931D02*
X024150Y024931D01*
X023830Y024931D02*
X023830Y024504D01*
X024150Y024504D02*
X023509Y024504D01*
D12*
X024430Y024430D02*
X027180Y027180D01*
X025930Y027180D02*
X024430Y025680D01*
X024430Y026930D02*
X024680Y027180D01*
X022180Y027180D02*
X016930Y021930D01*
X016930Y020680D02*
X021680Y025430D01*
X021680Y024180D02*
X016930Y019430D01*
X017930Y019180D02*
X021680Y022930D01*
X021680Y021680D02*
X019180Y019180D01*
X020430Y019180D02*
X021430Y020180D01*
X022180Y019680D02*
X021680Y019180D01*
X022430Y018680D02*
X023180Y019430D01*
X024430Y020680D02*
X030930Y027180D01*
X032180Y027180D02*
X022430Y017430D01*
X022430Y016180D02*
X033430Y027180D01*
X034430Y026930D02*
X022430Y014930D01*
X023680Y014930D02*
X034430Y025680D01*
X034430Y024430D02*
X024930Y014930D01*
X026180Y014930D02*
X034430Y023180D01*
X034430Y021930D02*
X027430Y014930D01*
X028680Y014930D02*
X034430Y020680D01*
X034430Y019430D02*
X029930Y014930D01*
X031180Y014930D02*
X034430Y018180D01*
X034430Y016930D02*
X032430Y014930D01*
X033680Y014930D02*
X034430Y015680D01*
X024430Y021930D02*
X029680Y027180D01*
X028430Y027180D02*
X024430Y023180D01*
X020930Y027180D02*
X016930Y023180D01*
X016930Y024430D02*
X019680Y027180D01*
X018430Y027180D02*
X016930Y025680D01*
X016930Y026930D02*
X017180Y027180D01*
D13*
X016680Y027180D02*
X016680Y018930D01*
X022180Y018930D01*
X022180Y014680D01*
X034430Y014680D01*
D14*
X030511Y007847D02*
X030511Y007755D01*
X030511Y007572D02*
X030511Y007205D01*
X030603Y007205D02*
X030419Y007205D01*
X030234Y007297D02*
X030142Y007205D01*
X029867Y007205D01*
X029682Y007297D02*
X029682Y007480D01*
X029590Y007572D01*
X029407Y007572D01*
X029315Y007480D01*
X029315Y007388D01*
X029682Y007388D01*
X029682Y007297D02*
X029590Y007205D01*
X029407Y007205D01*
X029129Y007205D02*
X029129Y007572D01*
X028854Y007572D01*
X028762Y007480D01*
X028762Y007205D01*
X028577Y007205D02*
X028302Y007205D01*
X028210Y007297D01*
X028302Y007388D01*
X028485Y007388D01*
X028577Y007480D01*
X028485Y007572D01*
X028210Y007572D01*
X028024Y007480D02*
X027933Y007572D01*
X027749Y007572D01*
X027657Y007480D01*
X027657Y007388D01*
X028024Y007388D01*
X028024Y007297D02*
X028024Y007480D01*
X028024Y007297D02*
X027933Y007205D01*
X027749Y007205D01*
X027565Y006755D02*
X027932Y006205D01*
X027380Y006297D02*
X027288Y006205D01*
X027013Y006205D01*
X027013Y006113D02*
X027013Y006572D01*
X027288Y006572D01*
X027380Y006480D01*
X027380Y006297D01*
X027196Y006022D02*
X027105Y006022D01*
X027013Y006113D01*
X026827Y006205D02*
X026644Y006205D01*
X026736Y006205D02*
X026736Y006572D01*
X026827Y006572D01*
X026736Y006755D02*
X026736Y006847D01*
X026459Y006572D02*
X026276Y006572D01*
X026367Y006664D02*
X026367Y006297D01*
X026276Y006205D01*
X026091Y006205D02*
X026091Y006755D01*
X025999Y006572D02*
X025815Y006572D01*
X025724Y006480D01*
X025724Y006205D01*
X025538Y006297D02*
X025446Y006205D01*
X025171Y006205D01*
X025171Y006572D01*
X024986Y006572D02*
X024710Y006572D01*
X024619Y006480D01*
X024619Y006297D01*
X024710Y006205D01*
X024986Y006205D01*
X024986Y006755D01*
X024433Y006297D02*
X024342Y006297D01*
X024342Y006205D01*
X024433Y006205D01*
X024433Y006297D01*
X024157Y006297D02*
X024065Y006205D01*
X023790Y006205D01*
X023605Y006297D02*
X023513Y006205D01*
X023329Y006205D01*
X023238Y006297D01*
X023238Y006480D01*
X023329Y006572D01*
X023513Y006572D01*
X023605Y006480D01*
X023605Y006297D01*
X023790Y006572D02*
X024065Y006572D01*
X024157Y006480D01*
X024157Y006297D01*
X024618Y005755D02*
X024618Y005205D01*
X024709Y005205D02*
X024526Y005205D01*
X024341Y005205D02*
X024249Y005205D01*
X024249Y005297D01*
X024341Y005297D01*
X024341Y005205D01*
X024065Y005297D02*
X023973Y005205D01*
X023698Y005205D01*
X023512Y005297D02*
X023512Y005480D01*
X023421Y005572D01*
X023237Y005572D01*
X023145Y005480D01*
X023145Y005297D01*
X023237Y005205D01*
X023421Y005205D01*
X023512Y005297D01*
X023698Y005572D02*
X023973Y005572D01*
X024065Y005480D01*
X024065Y005297D01*
X024618Y005755D02*
X024709Y005755D01*
X024986Y005755D02*
X024986Y005847D01*
X024986Y005572D02*
X024986Y005205D01*
X025078Y005205D02*
X024894Y005205D01*
X025263Y005205D02*
X025263Y005480D01*
X025355Y005572D01*
X025539Y005572D01*
X025539Y005388D02*
X025263Y005388D01*
X025263Y005205D02*
X025539Y005205D01*
X025630Y005297D01*
X025539Y005388D01*
X025816Y005480D02*
X025816Y005205D01*
X025999Y005205D02*
X025999Y005480D01*
X025908Y005572D01*
X025816Y005480D01*
X025999Y005480D02*
X026091Y005572D01*
X026183Y005572D01*
X026183Y005205D01*
X026368Y005205D02*
X026643Y005205D01*
X026735Y005297D01*
X026735Y005480D01*
X026643Y005572D01*
X026368Y005572D01*
X026368Y005113D01*
X026460Y005022D01*
X026552Y005022D01*
X026921Y005297D02*
X027012Y005205D01*
X027196Y005205D01*
X027288Y005297D01*
X027288Y005664D01*
X027196Y005755D01*
X027012Y005755D01*
X026921Y005664D01*
X026921Y005480D01*
X027012Y005388D01*
X027012Y005572D01*
X027196Y005572D01*
X027196Y005388D01*
X027012Y005388D01*
X027473Y005205D02*
X027473Y005572D01*
X027473Y005205D02*
X027748Y005205D01*
X027840Y005297D01*
X027840Y005572D01*
X028025Y005572D02*
X028301Y005388D01*
X028025Y005205D01*
X028301Y005205D02*
X028301Y005755D01*
X028486Y005480D02*
X028486Y005205D01*
X028761Y005205D01*
X028853Y005297D01*
X028761Y005388D01*
X028486Y005388D01*
X028486Y005480D02*
X028578Y005572D01*
X028761Y005572D01*
X029038Y005480D02*
X029221Y005480D01*
X029130Y005664D02*
X029038Y005755D01*
X029130Y005664D02*
X029130Y005205D01*
X029407Y005205D02*
X029407Y005572D01*
X029774Y005572D02*
X029774Y005297D01*
X029682Y005205D01*
X029407Y005205D01*
X029959Y005205D02*
X030234Y005388D01*
X029959Y005572D01*
X030234Y005755D02*
X030234Y005205D01*
X030420Y005205D02*
X030695Y005205D01*
X030787Y005297D01*
X030695Y005388D01*
X030420Y005388D01*
X030420Y005480D02*
X030420Y005205D01*
X030420Y005480D02*
X030511Y005572D01*
X030695Y005572D01*
X030972Y005480D02*
X031155Y005480D01*
X031063Y005664D02*
X030972Y005755D01*
X031063Y005664D02*
X031063Y005205D01*
X031155Y006205D02*
X031155Y006755D01*
X031063Y006572D02*
X030880Y006572D01*
X030788Y006480D01*
X030788Y006205D01*
X030511Y006297D02*
X030419Y006205D01*
X030511Y006297D02*
X030511Y006664D01*
X030603Y006572D02*
X030419Y006572D01*
X030234Y006572D02*
X030051Y006572D01*
X030142Y006664D02*
X030142Y006297D01*
X030051Y006205D01*
X029866Y006205D02*
X029591Y006205D01*
X029499Y006297D01*
X029499Y006480D01*
X029591Y006572D01*
X029866Y006572D01*
X029866Y006022D01*
X029313Y006205D02*
X029038Y006205D01*
X028946Y006297D01*
X029038Y006388D01*
X029222Y006388D01*
X029313Y006480D01*
X029222Y006572D01*
X028946Y006572D01*
X028761Y006572D02*
X028761Y006480D01*
X028669Y006480D01*
X028669Y006572D01*
X028761Y006572D01*
X028761Y006297D02*
X028669Y006297D01*
X028669Y006205D01*
X028761Y006205D01*
X028761Y006297D01*
X028485Y006205D02*
X028118Y006755D01*
X026919Y007297D02*
X026919Y007664D01*
X026828Y007755D01*
X026644Y007755D01*
X026552Y007664D01*
X026367Y007664D02*
X026367Y007297D01*
X026275Y007205D01*
X026092Y007205D01*
X026000Y007297D01*
X025814Y007480D02*
X025447Y007480D01*
X025262Y007480D02*
X024987Y007480D01*
X024895Y007388D01*
X024895Y007297D01*
X024987Y007205D01*
X025262Y007205D01*
X025262Y007755D01*
X024987Y007755D01*
X024895Y007664D01*
X024895Y007572D01*
X024987Y007480D01*
X024709Y007664D02*
X024526Y007480D01*
X024526Y007205D01*
X024526Y007480D02*
X024343Y007664D01*
X024343Y007755D01*
X024157Y007480D02*
X023790Y007480D01*
X023605Y007572D02*
X023513Y007480D01*
X023329Y007480D01*
X023238Y007388D01*
X023238Y007297D01*
X023329Y007205D01*
X023513Y007205D01*
X023605Y007297D01*
X023605Y007572D02*
X023605Y007664D01*
X023513Y007755D01*
X023329Y007755D01*
X023238Y007664D01*
X023052Y007572D02*
X022869Y007755D01*
X022685Y007572D01*
X022685Y007205D01*
X022685Y007480D02*
X023052Y007480D01*
X023052Y007572D02*
X023052Y007205D01*
X023052Y006572D02*
X022960Y006572D01*
X022869Y006480D01*
X022777Y006572D01*
X022685Y006480D01*
X022685Y006205D01*
X022869Y006205D02*
X022869Y006480D01*
X023052Y006572D02*
X023052Y006205D01*
X022500Y006205D02*
X022133Y006755D01*
X021855Y006664D02*
X021764Y006755D01*
X021855Y006664D02*
X021855Y006205D01*
X021947Y006480D02*
X021764Y006480D01*
X021579Y006297D02*
X021487Y006388D01*
X021212Y006388D01*
X021212Y006480D02*
X021212Y006205D01*
X021487Y006205D01*
X021579Y006297D01*
X021487Y006572D02*
X021304Y006572D01*
X021212Y006480D01*
X021026Y006388D02*
X020751Y006205D01*
X020566Y006297D02*
X020474Y006205D01*
X020199Y006205D01*
X020199Y006572D01*
X020013Y006480D02*
X019830Y006480D01*
X019922Y006664D02*
X019922Y006205D01*
X019645Y006297D02*
X019553Y006388D01*
X019278Y006388D01*
X019278Y006480D02*
X019278Y006205D01*
X019553Y006205D01*
X019645Y006297D01*
X019553Y006572D02*
X019370Y006572D01*
X019278Y006480D01*
X019093Y006388D02*
X018817Y006572D01*
X018632Y006572D02*
X018632Y006297D01*
X018541Y006205D01*
X018265Y006205D01*
X018265Y006572D01*
X018080Y006205D02*
X017713Y006755D01*
X017527Y006755D02*
X017160Y006755D01*
X017344Y006480D02*
X017527Y006480D01*
X017527Y006205D02*
X017527Y006755D01*
X016975Y006480D02*
X016883Y006572D01*
X016700Y006572D01*
X016608Y006480D01*
X016608Y006388D01*
X016975Y006388D01*
X016975Y006297D02*
X016975Y006480D01*
X016975Y006297D02*
X016883Y006205D01*
X016700Y006205D01*
X016422Y006205D02*
X016422Y006572D01*
X016239Y006572D02*
X016422Y006388D01*
X016239Y006572D02*
X016147Y006572D01*
X015962Y006572D02*
X015870Y006572D01*
X015779Y006480D01*
X015687Y006572D01*
X015595Y006480D01*
X015595Y006205D01*
X015779Y006205D02*
X015779Y006480D01*
X015962Y006572D02*
X015962Y006205D01*
X015410Y006297D02*
X015410Y006480D01*
X015318Y006572D01*
X015134Y006572D01*
X015043Y006480D01*
X015043Y006388D01*
X015410Y006388D01*
X015410Y006297D02*
X015318Y006205D01*
X015134Y006205D01*
X014857Y006205D02*
X014857Y006572D01*
X014582Y006572D01*
X014490Y006480D01*
X014490Y006205D01*
X014213Y006297D02*
X014121Y006205D01*
X014213Y006297D02*
X014213Y006664D01*
X014305Y006572D02*
X014121Y006572D01*
X013936Y006480D02*
X013845Y006572D01*
X013661Y006572D01*
X013569Y006480D01*
X013569Y006297D01*
X013661Y006205D01*
X013845Y006205D01*
X013936Y006297D01*
X013936Y006480D01*
X018817Y006205D02*
X019093Y006388D01*
X019093Y006205D02*
X019093Y006755D01*
X019830Y006755D02*
X019922Y006664D01*
X020566Y006572D02*
X020566Y006297D01*
X020751Y006572D02*
X021026Y006388D01*
X021026Y006205D02*
X021026Y006755D01*
X021027Y007205D02*
X021118Y007297D01*
X020751Y007664D01*
X020751Y007297D01*
X020843Y007205D01*
X021027Y007205D01*
X021118Y007297D02*
X021118Y007664D01*
X021027Y007755D01*
X020843Y007755D01*
X020751Y007664D01*
X021303Y007297D02*
X021303Y007205D01*
X021395Y007205D01*
X021395Y007297D01*
X021303Y007297D01*
X021580Y007297D02*
X021672Y007205D01*
X021855Y007205D01*
X021947Y007297D01*
X021764Y007480D02*
X021672Y007480D01*
X021580Y007388D01*
X021580Y007297D01*
X021672Y007480D02*
X021580Y007572D01*
X021580Y007664D01*
X021672Y007755D01*
X021855Y007755D01*
X021947Y007664D01*
X022685Y005572D02*
X022593Y005480D01*
X022593Y005205D01*
X022777Y005205D02*
X022777Y005480D01*
X022685Y005572D01*
X022777Y005480D02*
X022868Y005572D01*
X022960Y005572D01*
X022960Y005205D01*
X024986Y005572D02*
X025078Y005572D01*
X025538Y006297D02*
X025538Y006572D01*
X025999Y006572D02*
X026091Y006480D01*
X026644Y007205D02*
X026552Y007297D01*
X026644Y007205D02*
X026828Y007205D01*
X026919Y007297D01*
X026367Y007664D02*
X026275Y007755D01*
X026092Y007755D01*
X026000Y007664D01*
X024709Y007664D02*
X024709Y007755D01*
X029867Y007572D02*
X030142Y007572D01*
X030234Y007480D01*
X030234Y007297D01*
X030511Y007572D02*
X030603Y007572D01*
X030788Y007205D02*
X031155Y007205D01*
X031155Y007755D01*
X031063Y006572D02*
X031155Y006480D01*
X022430Y020680D02*
X021930Y020555D01*
X021930Y020805D01*
X022430Y020680D01*
X022358Y020662D02*
X021930Y020662D01*
X021930Y020614D02*
X022164Y020614D01*
X022114Y020759D02*
X021930Y020759D01*
X021930Y020711D02*
X022308Y020711D01*
X021970Y020565D02*
X021930Y020565D01*
D15*
X021430Y020680D02*
X022930Y019680D01*
X022930Y021680D01*
X021430Y020680D01*
D16*
X022617Y020680D02*
X022619Y020695D01*
X022624Y020709D01*
X022633Y020722D01*
X022644Y020732D01*
X022658Y020739D01*
X022672Y020743D01*
X022688Y020743D01*
X022702Y020739D01*
X022716Y020732D01*
X022727Y020722D01*
X022736Y020709D01*
X022741Y020695D01*
X022743Y020680D01*
X022741Y020665D01*
X022736Y020651D01*
X022727Y020638D01*
X022716Y020628D01*
X022702Y020621D01*
X022688Y020617D01*
X022672Y020617D01*
X022658Y020621D01*
X022644Y020628D01*
X022633Y020638D01*
X022624Y020651D01*
X022619Y020665D01*
X022617Y020680D01*
M02*
