%
M48
M72
T01C0.0197
T02C0.0236
T03C0.0276
T04C0.0315
T05C0.0320
T06C0.0350
T07C0.0400
T08C0.0531
T09C0.0591
T10C0.1181
T11C0.1260
T12C0.1560
%
T01
X13786Y14708
X14574Y14708
T02
X7430Y11930
X18180Y15430
X18930Y15430
X22430Y12680
X22180Y8930
X22680Y8430
X10930Y21930
T03
X3196Y21180
X5164Y21180
X7180Y17680
X7180Y16680
X15680Y14680
X16680Y14680
X16680Y9680
X15680Y9680
X26930Y13180
X27930Y13180
X30180Y9180
X31180Y9180
T04
X13180Y2180
X14180Y2180
X15180Y2180
X16180Y2180
X17180Y2180
X18180Y2180
X18180Y8180
X17180Y8180
X16180Y8180
X15180Y8180
X14180Y8180
X13180Y8180
T05
X9680Y10680
X10680Y10680
X11680Y10680
X12680Y10680
X13680Y10680
X14680Y10680
X15680Y10680
X16680Y10680
X17680Y10680
X18680Y10680
X19680Y10680
X20680Y10680
X21680Y10680
X22680Y10680
X22680Y13680
X21680Y13680
X20680Y13680
X19680Y13680
X18680Y13680
X17680Y13680
X16680Y13680
X15680Y13680
X14680Y13680
X13680Y13680
X12680Y13680
X11680Y13680
X10680Y13680
X9680Y13680
X8680Y15680
X8680Y17680
X8680Y19680
X12680Y19680
X13680Y20180
X14680Y20180
X15680Y20180
X12680Y17680
X12680Y15680
X32430Y5680
X32430Y6680
X32430Y7680
T06
X27180Y9280
X28180Y9280
X29180Y9280
T07
X2400Y5290
X2400Y7070
X2400Y8790
X2400Y10570
X4960Y10570
X4960Y8790
X4960Y7070
X4960Y5290
X5680Y12680
X5680Y13680
X5680Y14680
X5680Y15680
X5680Y16680
X5680Y17680
X6680Y26180
X7680Y26180
X8680Y26180
X9680Y26180
X10680Y26180
X11680Y26180
X24430Y11930
X25430Y11930
X25430Y10930
X24430Y10930
X24430Y9930
X25430Y9930
T08
X18180Y16680
X21180Y16680
X21180Y24121
X18180Y26089
T09
X26680Y16164
X26680Y18133
X26680Y20062
X26680Y22070
X26680Y24038
X26719Y26007
T10
X29273Y11641
X31595Y11641
X30454Y13491
T11
X3149Y25483
X32676Y2649
X3149Y2649
X32676Y25483
T12
X28180Y2380
M30
