G75*
%MOIN*%
%OFA0B0*%
%FSLAX24Y24*%
%IPPOS*%
%LPD*%
%AMOC8*
5,1,8,0,0,1.08239X$1,22.5*
%
%ADD10C,0.0000*%
%ADD11OC8,0.0669*%
%ADD12C,0.0520*%
%ADD13C,0.0650*%
%ADD14OC8,0.0660*%
%ADD15C,0.0740*%
%ADD16C,0.0397*%
%ADD17R,0.1181X0.3150*%
%ADD18C,0.0512*%
%ADD19C,0.0550*%
%ADD20R,0.3200X0.2400*%
%ADD21R,0.0650X0.0650*%
%ADD22C,0.1890*%
%ADD23C,0.0984*%
%ADD24C,0.1181*%
%ADD25C,0.0600*%
%ADD26OC8,0.0740*%
%ADD27C,0.0160*%
%ADD28C,0.0356*%
%ADD29C,0.0500*%
%ADD30C,0.0300*%
%ADD31C,0.1000*%
D10*
X001180Y002680D02*
X001180Y025452D01*
X002519Y025483D02*
X002521Y025533D01*
X002527Y025583D01*
X002537Y025632D01*
X002551Y025680D01*
X002568Y025727D01*
X002589Y025772D01*
X002614Y025816D01*
X002642Y025857D01*
X002674Y025896D01*
X002708Y025933D01*
X002745Y025967D01*
X002785Y025997D01*
X002827Y026024D01*
X002871Y026048D01*
X002917Y026069D01*
X002964Y026085D01*
X003012Y026098D01*
X003062Y026107D01*
X003111Y026112D01*
X003162Y026113D01*
X003212Y026110D01*
X003261Y026103D01*
X003310Y026092D01*
X003358Y026077D01*
X003404Y026059D01*
X003449Y026037D01*
X003492Y026011D01*
X003533Y025982D01*
X003572Y025950D01*
X003608Y025915D01*
X003640Y025877D01*
X003670Y025837D01*
X003697Y025794D01*
X003720Y025750D01*
X003739Y025704D01*
X003755Y025656D01*
X003767Y025607D01*
X003775Y025558D01*
X003779Y025508D01*
X003779Y025458D01*
X003775Y025408D01*
X003767Y025359D01*
X003755Y025310D01*
X003739Y025262D01*
X003720Y025216D01*
X003697Y025172D01*
X003670Y025129D01*
X003640Y025089D01*
X003608Y025051D01*
X003572Y025016D01*
X003533Y024984D01*
X003492Y024955D01*
X003449Y024929D01*
X003404Y024907D01*
X003358Y024889D01*
X003310Y024874D01*
X003261Y024863D01*
X003212Y024856D01*
X003162Y024853D01*
X003111Y024854D01*
X003062Y024859D01*
X003012Y024868D01*
X002964Y024881D01*
X002917Y024897D01*
X002871Y024918D01*
X002827Y024942D01*
X002785Y024969D01*
X002745Y024999D01*
X002708Y025033D01*
X002674Y025070D01*
X002642Y025109D01*
X002614Y025150D01*
X002589Y025194D01*
X002568Y025239D01*
X002551Y025286D01*
X002537Y025334D01*
X002527Y025383D01*
X002521Y025433D01*
X002519Y025483D01*
X001180Y025452D02*
X001182Y025539D01*
X001188Y025626D01*
X001197Y025713D01*
X001210Y025799D01*
X001227Y025885D01*
X001248Y025970D01*
X001273Y026053D01*
X001301Y026136D01*
X001332Y026217D01*
X001367Y026297D01*
X001406Y026375D01*
X001448Y026452D01*
X001493Y026527D01*
X001542Y026599D01*
X001593Y026670D01*
X001648Y026738D01*
X001705Y026803D01*
X001766Y026866D01*
X001829Y026927D01*
X001894Y026984D01*
X001962Y027039D01*
X002033Y027090D01*
X002105Y027139D01*
X002180Y027184D01*
X002257Y027226D01*
X002335Y027265D01*
X002415Y027300D01*
X002496Y027331D01*
X002579Y027359D01*
X002662Y027384D01*
X002747Y027405D01*
X002833Y027422D01*
X002919Y027435D01*
X003006Y027444D01*
X003093Y027450D01*
X003180Y027452D01*
X032645Y027452D01*
X032046Y025483D02*
X032048Y025533D01*
X032054Y025583D01*
X032064Y025632D01*
X032078Y025680D01*
X032095Y025727D01*
X032116Y025772D01*
X032141Y025816D01*
X032169Y025857D01*
X032201Y025896D01*
X032235Y025933D01*
X032272Y025967D01*
X032312Y025997D01*
X032354Y026024D01*
X032398Y026048D01*
X032444Y026069D01*
X032491Y026085D01*
X032539Y026098D01*
X032589Y026107D01*
X032638Y026112D01*
X032689Y026113D01*
X032739Y026110D01*
X032788Y026103D01*
X032837Y026092D01*
X032885Y026077D01*
X032931Y026059D01*
X032976Y026037D01*
X033019Y026011D01*
X033060Y025982D01*
X033099Y025950D01*
X033135Y025915D01*
X033167Y025877D01*
X033197Y025837D01*
X033224Y025794D01*
X033247Y025750D01*
X033266Y025704D01*
X033282Y025656D01*
X033294Y025607D01*
X033302Y025558D01*
X033306Y025508D01*
X033306Y025458D01*
X033302Y025408D01*
X033294Y025359D01*
X033282Y025310D01*
X033266Y025262D01*
X033247Y025216D01*
X033224Y025172D01*
X033197Y025129D01*
X033167Y025089D01*
X033135Y025051D01*
X033099Y025016D01*
X033060Y024984D01*
X033019Y024955D01*
X032976Y024929D01*
X032931Y024907D01*
X032885Y024889D01*
X032837Y024874D01*
X032788Y024863D01*
X032739Y024856D01*
X032689Y024853D01*
X032638Y024854D01*
X032589Y024859D01*
X032539Y024868D01*
X032491Y024881D01*
X032444Y024897D01*
X032398Y024918D01*
X032354Y024942D01*
X032312Y024969D01*
X032272Y024999D01*
X032235Y025033D01*
X032201Y025070D01*
X032169Y025109D01*
X032141Y025150D01*
X032116Y025194D01*
X032095Y025239D01*
X032078Y025286D01*
X032064Y025334D01*
X032054Y025383D01*
X032048Y025433D01*
X032046Y025483D01*
X032645Y027452D02*
X032732Y027450D01*
X032819Y027444D01*
X032906Y027435D01*
X032992Y027422D01*
X033078Y027405D01*
X033163Y027384D01*
X033246Y027359D01*
X033329Y027331D01*
X033410Y027300D01*
X033490Y027265D01*
X033568Y027226D01*
X033645Y027184D01*
X033720Y027139D01*
X033792Y027090D01*
X033863Y027039D01*
X033931Y026984D01*
X033996Y026927D01*
X034059Y026866D01*
X034120Y026803D01*
X034177Y026738D01*
X034232Y026670D01*
X034283Y026599D01*
X034332Y026527D01*
X034377Y026452D01*
X034419Y026375D01*
X034458Y026297D01*
X034493Y026217D01*
X034524Y026136D01*
X034552Y026053D01*
X034577Y025970D01*
X034598Y025885D01*
X034615Y025799D01*
X034628Y025713D01*
X034637Y025626D01*
X034643Y025539D01*
X034645Y025452D01*
X034645Y002680D01*
X032046Y002649D02*
X032048Y002699D01*
X032054Y002749D01*
X032064Y002798D01*
X032078Y002846D01*
X032095Y002893D01*
X032116Y002938D01*
X032141Y002982D01*
X032169Y003023D01*
X032201Y003062D01*
X032235Y003099D01*
X032272Y003133D01*
X032312Y003163D01*
X032354Y003190D01*
X032398Y003214D01*
X032444Y003235D01*
X032491Y003251D01*
X032539Y003264D01*
X032589Y003273D01*
X032638Y003278D01*
X032689Y003279D01*
X032739Y003276D01*
X032788Y003269D01*
X032837Y003258D01*
X032885Y003243D01*
X032931Y003225D01*
X032976Y003203D01*
X033019Y003177D01*
X033060Y003148D01*
X033099Y003116D01*
X033135Y003081D01*
X033167Y003043D01*
X033197Y003003D01*
X033224Y002960D01*
X033247Y002916D01*
X033266Y002870D01*
X033282Y002822D01*
X033294Y002773D01*
X033302Y002724D01*
X033306Y002674D01*
X033306Y002624D01*
X033302Y002574D01*
X033294Y002525D01*
X033282Y002476D01*
X033266Y002428D01*
X033247Y002382D01*
X033224Y002338D01*
X033197Y002295D01*
X033167Y002255D01*
X033135Y002217D01*
X033099Y002182D01*
X033060Y002150D01*
X033019Y002121D01*
X032976Y002095D01*
X032931Y002073D01*
X032885Y002055D01*
X032837Y002040D01*
X032788Y002029D01*
X032739Y002022D01*
X032689Y002019D01*
X032638Y002020D01*
X032589Y002025D01*
X032539Y002034D01*
X032491Y002047D01*
X032444Y002063D01*
X032398Y002084D01*
X032354Y002108D01*
X032312Y002135D01*
X032272Y002165D01*
X032235Y002199D01*
X032201Y002236D01*
X032169Y002275D01*
X032141Y002316D01*
X032116Y002360D01*
X032095Y002405D01*
X032078Y002452D01*
X032064Y002500D01*
X032054Y002549D01*
X032048Y002599D01*
X032046Y002649D01*
X032645Y000680D02*
X032732Y000682D01*
X032819Y000688D01*
X032906Y000697D01*
X032992Y000710D01*
X033078Y000727D01*
X033163Y000748D01*
X033246Y000773D01*
X033329Y000801D01*
X033410Y000832D01*
X033490Y000867D01*
X033568Y000906D01*
X033645Y000948D01*
X033720Y000993D01*
X033792Y001042D01*
X033863Y001093D01*
X033931Y001148D01*
X033996Y001205D01*
X034059Y001266D01*
X034120Y001329D01*
X034177Y001394D01*
X034232Y001462D01*
X034283Y001533D01*
X034332Y001605D01*
X034377Y001680D01*
X034419Y001757D01*
X034458Y001835D01*
X034493Y001915D01*
X034524Y001996D01*
X034552Y002079D01*
X034577Y002162D01*
X034598Y002247D01*
X034615Y002333D01*
X034628Y002419D01*
X034637Y002506D01*
X034643Y002593D01*
X034645Y002680D01*
X032645Y000680D02*
X003180Y000680D01*
X002519Y002649D02*
X002521Y002699D01*
X002527Y002749D01*
X002537Y002798D01*
X002551Y002846D01*
X002568Y002893D01*
X002589Y002938D01*
X002614Y002982D01*
X002642Y003023D01*
X002674Y003062D01*
X002708Y003099D01*
X002745Y003133D01*
X002785Y003163D01*
X002827Y003190D01*
X002871Y003214D01*
X002917Y003235D01*
X002964Y003251D01*
X003012Y003264D01*
X003062Y003273D01*
X003111Y003278D01*
X003162Y003279D01*
X003212Y003276D01*
X003261Y003269D01*
X003310Y003258D01*
X003358Y003243D01*
X003404Y003225D01*
X003449Y003203D01*
X003492Y003177D01*
X003533Y003148D01*
X003572Y003116D01*
X003608Y003081D01*
X003640Y003043D01*
X003670Y003003D01*
X003697Y002960D01*
X003720Y002916D01*
X003739Y002870D01*
X003755Y002822D01*
X003767Y002773D01*
X003775Y002724D01*
X003779Y002674D01*
X003779Y002624D01*
X003775Y002574D01*
X003767Y002525D01*
X003755Y002476D01*
X003739Y002428D01*
X003720Y002382D01*
X003697Y002338D01*
X003670Y002295D01*
X003640Y002255D01*
X003608Y002217D01*
X003572Y002182D01*
X003533Y002150D01*
X003492Y002121D01*
X003449Y002095D01*
X003404Y002073D01*
X003358Y002055D01*
X003310Y002040D01*
X003261Y002029D01*
X003212Y002022D01*
X003162Y002019D01*
X003111Y002020D01*
X003062Y002025D01*
X003012Y002034D01*
X002964Y002047D01*
X002917Y002063D01*
X002871Y002084D01*
X002827Y002108D01*
X002785Y002135D01*
X002745Y002165D01*
X002708Y002199D01*
X002674Y002236D01*
X002642Y002275D01*
X002614Y002316D01*
X002589Y002360D01*
X002568Y002405D01*
X002551Y002452D01*
X002537Y002500D01*
X002527Y002549D01*
X002521Y002599D01*
X002519Y002649D01*
X001180Y002680D02*
X001182Y002593D01*
X001188Y002506D01*
X001197Y002419D01*
X001210Y002333D01*
X001227Y002247D01*
X001248Y002162D01*
X001273Y002079D01*
X001301Y001996D01*
X001332Y001915D01*
X001367Y001835D01*
X001406Y001757D01*
X001448Y001680D01*
X001493Y001605D01*
X001542Y001533D01*
X001593Y001462D01*
X001648Y001394D01*
X001705Y001329D01*
X001766Y001266D01*
X001829Y001205D01*
X001894Y001148D01*
X001962Y001093D01*
X002033Y001042D01*
X002105Y000993D01*
X002180Y000948D01*
X002257Y000906D01*
X002335Y000867D01*
X002415Y000832D01*
X002496Y000801D01*
X002579Y000773D01*
X002662Y000748D01*
X002747Y000727D01*
X002833Y000710D01*
X002919Y000697D01*
X003006Y000688D01*
X003093Y000682D01*
X003180Y000680D01*
X027400Y002380D02*
X027402Y002436D01*
X027408Y002491D01*
X027418Y002546D01*
X027432Y002600D01*
X027449Y002653D01*
X027470Y002704D01*
X027495Y002754D01*
X027524Y002802D01*
X027556Y002847D01*
X027591Y002891D01*
X027628Y002932D01*
X027669Y002969D01*
X027713Y003004D01*
X027758Y003036D01*
X027806Y003065D01*
X027856Y003090D01*
X027907Y003111D01*
X027960Y003128D01*
X028014Y003142D01*
X028069Y003152D01*
X028124Y003158D01*
X028180Y003160D01*
X028236Y003158D01*
X028291Y003152D01*
X028346Y003142D01*
X028400Y003128D01*
X028453Y003111D01*
X028504Y003090D01*
X028554Y003065D01*
X028602Y003036D01*
X028647Y003004D01*
X028691Y002969D01*
X028732Y002932D01*
X028769Y002891D01*
X028804Y002847D01*
X028836Y002802D01*
X028865Y002754D01*
X028890Y002704D01*
X028911Y002653D01*
X028928Y002600D01*
X028942Y002546D01*
X028952Y002491D01*
X028958Y002436D01*
X028960Y002380D01*
X028958Y002324D01*
X028952Y002269D01*
X028942Y002214D01*
X028928Y002160D01*
X028911Y002107D01*
X028890Y002056D01*
X028865Y002006D01*
X028836Y001958D01*
X028804Y001913D01*
X028769Y001869D01*
X028732Y001828D01*
X028691Y001791D01*
X028647Y001756D01*
X028602Y001724D01*
X028554Y001695D01*
X028504Y001670D01*
X028453Y001649D01*
X028400Y001632D01*
X028346Y001618D01*
X028291Y001608D01*
X028236Y001602D01*
X028180Y001600D01*
X028124Y001602D01*
X028069Y001608D01*
X028014Y001618D01*
X027960Y001632D01*
X027907Y001649D01*
X027856Y001670D01*
X027806Y001695D01*
X027758Y001724D01*
X027713Y001756D01*
X027669Y001791D01*
X027628Y001828D01*
X027591Y001869D01*
X027556Y001913D01*
X027524Y001958D01*
X027495Y002006D01*
X027470Y002056D01*
X027449Y002107D01*
X027432Y002160D01*
X027418Y002214D01*
X027408Y002269D01*
X027402Y002324D01*
X027400Y002380D01*
D11*
X018180Y002180D03*
X017180Y002180D03*
X016180Y002180D03*
X015180Y002180D03*
X014180Y002180D03*
X013180Y002180D03*
X013180Y008180D03*
X014180Y008180D03*
X015180Y008180D03*
X016180Y008180D03*
X017180Y008180D03*
X018180Y008180D03*
D12*
X017680Y010420D02*
X017680Y010940D01*
X016680Y010940D02*
X016680Y010420D01*
X015680Y010420D02*
X015680Y010940D01*
X014680Y010940D02*
X014680Y010420D01*
X013680Y010420D02*
X013680Y010940D01*
X012680Y010940D02*
X012680Y010420D01*
X011680Y010420D02*
X011680Y010940D01*
X010680Y010940D02*
X010680Y010420D01*
X009680Y010420D02*
X009680Y010940D01*
X009680Y013420D02*
X009680Y013940D01*
X010680Y013940D02*
X010680Y013420D01*
X011680Y013420D02*
X011680Y013940D01*
X012680Y013940D02*
X012680Y013420D01*
X013680Y013420D02*
X013680Y013940D01*
X014680Y013940D02*
X014680Y013420D01*
X015680Y013420D02*
X015680Y013940D01*
X016680Y013940D02*
X016680Y013420D01*
X017680Y013420D02*
X017680Y013940D01*
X018680Y013940D02*
X018680Y013420D01*
X019680Y013420D02*
X019680Y013940D01*
X020680Y013940D02*
X020680Y013420D01*
X021680Y013420D02*
X021680Y013940D01*
X022680Y013940D02*
X022680Y013420D01*
X022680Y010940D02*
X022680Y010420D01*
X021680Y010420D02*
X021680Y010940D01*
X020680Y010940D02*
X020680Y010420D01*
X019680Y010420D02*
X019680Y010940D01*
X018680Y010940D02*
X018680Y010420D01*
X015680Y019920D02*
X015680Y020440D01*
X014680Y020440D02*
X014680Y019920D01*
X013680Y019920D02*
X013680Y020440D01*
X032170Y007680D02*
X032690Y007680D01*
X032690Y006680D02*
X032170Y006680D01*
X032170Y005680D02*
X032690Y005680D01*
D13*
X031180Y009180D03*
X030180Y009180D03*
X027930Y013180D03*
X016680Y014680D03*
X015680Y014680D03*
X015680Y009680D03*
X016680Y009680D03*
X007180Y016680D03*
X007180Y017680D03*
D14*
X008680Y017680D03*
X008680Y019680D03*
X012680Y019680D03*
X012680Y017680D03*
X012680Y015680D03*
X008680Y015680D03*
D15*
X004960Y010570D03*
X004960Y008790D03*
X004960Y007070D03*
X004960Y005290D03*
X002400Y005290D03*
X002400Y007070D03*
X002400Y008790D03*
X002400Y010570D03*
D16*
X013786Y014708D03*
X014574Y014708D03*
D17*
X014180Y016755D03*
D18*
X005164Y021180D03*
X003196Y021180D03*
D19*
X027180Y009555D02*
X027180Y009005D01*
X028180Y009005D02*
X028180Y009555D01*
X029180Y009555D02*
X029180Y009005D01*
D20*
X028180Y004505D03*
D21*
X026930Y013180D03*
D22*
X029273Y011641D03*
X031595Y011641D03*
X030454Y013491D03*
D23*
X021180Y016680D03*
X018180Y016680D03*
X021180Y024121D03*
X018180Y026089D03*
D24*
X026719Y026007D03*
X026680Y024038D03*
X026680Y022070D03*
X026680Y020062D03*
X026680Y018133D03*
X026680Y016164D03*
D25*
X011680Y025880D02*
X011680Y026480D01*
X010680Y026480D02*
X010680Y025880D01*
X009680Y025880D02*
X009680Y026480D01*
X008680Y026480D02*
X008680Y025880D01*
X007680Y025880D02*
X007680Y026480D01*
X006680Y026480D02*
X006680Y025880D01*
X005980Y017680D02*
X005380Y017680D01*
X005380Y016680D02*
X005980Y016680D01*
X005980Y015680D02*
X005380Y015680D01*
X005380Y014680D02*
X005980Y014680D01*
X005980Y013680D02*
X005380Y013680D01*
X005380Y012680D02*
X005980Y012680D01*
D26*
X024430Y011930D03*
X025430Y011930D03*
X025430Y010930D03*
X024430Y010930D03*
X024430Y009930D03*
X025430Y009930D03*
D27*
X001959Y001473D02*
X001830Y001473D01*
X001917Y001506D02*
X001917Y001506D01*
X001917Y001506D01*
X001635Y001920D01*
X001635Y001920D01*
X001487Y002398D01*
X001487Y002899D01*
X001635Y003377D01*
X001635Y003377D01*
X001917Y003791D01*
X001917Y003791D01*
X002309Y004103D01*
X002309Y004103D01*
X002775Y004286D01*
X002775Y004286D01*
X003274Y004324D01*
X003274Y004324D01*
X003762Y004212D01*
X003762Y004212D01*
X004196Y003962D01*
X004196Y003962D01*
X004537Y003595D01*
X004537Y003595D01*
X004754Y003144D01*
X004754Y003144D01*
X004829Y002649D01*
X004829Y002649D01*
X004754Y002153D01*
X004537Y001702D01*
X004196Y001335D01*
X004196Y001335D01*
X004196Y001335D01*
X003762Y001085D01*
X003762Y001085D01*
X003274Y000973D01*
X003274Y000973D01*
X002775Y001011D01*
X002775Y001011D01*
X002309Y001194D01*
X002309Y001194D01*
X001917Y001506D01*
X001893Y001393D02*
X001639Y001712D01*
X001462Y002079D01*
X001371Y002476D01*
X001360Y002680D01*
X001360Y025452D01*
X001371Y025655D01*
X001462Y026053D01*
X001639Y026420D01*
X001893Y026739D01*
X002212Y026993D01*
X002579Y027170D01*
X002976Y027260D01*
X003180Y027272D01*
X016680Y027272D01*
X016680Y019340D01*
X016080Y019940D01*
X016080Y020520D01*
X016019Y020667D01*
X015907Y020779D01*
X015760Y020840D01*
X015600Y020840D01*
X015453Y020779D01*
X015341Y020667D01*
X015280Y020520D01*
X015280Y019840D01*
X015341Y019693D01*
X015384Y019650D01*
X015021Y019650D01*
X014998Y019673D01*
X015019Y019693D01*
X015080Y019840D01*
X015080Y020520D01*
X015019Y020667D01*
X014907Y020779D01*
X014900Y020782D01*
X014900Y021021D01*
X014771Y021150D01*
X014271Y021650D01*
X013089Y021650D01*
X012960Y021521D01*
X012460Y021021D01*
X012460Y020125D01*
X012210Y019875D01*
X012210Y019485D01*
X012485Y019210D01*
X012875Y019210D01*
X013150Y019485D01*
X013150Y019875D01*
X012900Y020125D01*
X012900Y020839D01*
X013271Y021210D01*
X014089Y021210D01*
X014460Y020839D01*
X014460Y020782D01*
X014453Y020779D01*
X014341Y020667D01*
X014280Y020520D01*
X014280Y019840D01*
X014341Y019693D01*
X014453Y019581D01*
X014478Y019571D01*
X014589Y019460D01*
X014729Y019320D01*
X014592Y019320D01*
X014077Y019834D01*
X014080Y019840D01*
X014080Y020520D01*
X014019Y020667D01*
X013907Y020779D01*
X013760Y020840D01*
X013600Y020840D01*
X013453Y020779D01*
X013341Y020667D01*
X013280Y020520D01*
X013280Y019840D01*
X013290Y019816D01*
X013290Y019602D01*
X013349Y019459D01*
X013459Y019349D01*
X014128Y018680D01*
X013180Y018680D01*
X013180Y014491D01*
X012900Y014771D01*
X012900Y015235D01*
X013150Y015485D01*
X013150Y015875D01*
X012875Y016150D01*
X012485Y016150D01*
X012210Y015875D01*
X012210Y015485D01*
X012460Y015235D01*
X012460Y014589D01*
X012709Y014340D01*
X012600Y014340D01*
X012453Y014279D01*
X012341Y014167D01*
X012280Y014020D01*
X012280Y013340D01*
X012341Y013193D01*
X012453Y013081D01*
X012460Y013078D01*
X012460Y012771D01*
X012089Y012400D01*
X010211Y012400D01*
X010271Y012460D01*
X011271Y012460D01*
X011771Y012960D01*
X011882Y013071D01*
X011907Y013081D01*
X012019Y013193D01*
X012080Y013340D01*
X012080Y014020D01*
X012019Y014167D01*
X011907Y014279D01*
X011760Y014340D01*
X011600Y014340D01*
X011453Y014279D01*
X011341Y014167D01*
X011280Y014020D01*
X011280Y013340D01*
X011341Y013193D01*
X011362Y013173D01*
X011089Y012900D01*
X010211Y012900D01*
X010423Y013112D01*
X010453Y013081D01*
X010600Y013020D01*
X010760Y013020D01*
X010907Y013081D01*
X011019Y013193D01*
X011080Y013340D01*
X011080Y014020D01*
X011019Y014167D01*
X010907Y014279D01*
X010760Y014340D01*
X010600Y014340D01*
X010453Y014279D01*
X010341Y014167D01*
X010280Y014020D01*
X010280Y013591D01*
X010080Y013391D01*
X010080Y014020D01*
X010019Y014167D01*
X009907Y014279D01*
X009760Y014340D01*
X009600Y014340D01*
X009453Y014279D01*
X009341Y014167D01*
X009280Y014020D01*
X009280Y013591D01*
X009089Y013400D01*
X008960Y013271D01*
X008960Y012771D01*
X007589Y011400D01*
X007460Y011271D01*
X007460Y004589D01*
X009460Y002589D01*
X009589Y002460D01*
X012589Y002460D01*
X012705Y002344D01*
X012705Y001983D01*
X012983Y001705D01*
X013377Y001705D01*
X013655Y001983D01*
X013655Y002377D01*
X013377Y002655D01*
X013016Y002655D01*
X012771Y002900D01*
X009771Y002900D01*
X009711Y002960D01*
X013089Y002960D01*
X013705Y002344D01*
X013705Y001983D01*
X013983Y001705D01*
X014377Y001705D01*
X014655Y001983D01*
X014655Y002377D01*
X014377Y002655D01*
X014016Y002655D01*
X013271Y003400D01*
X009771Y003400D01*
X009711Y003460D01*
X014589Y003460D01*
X014960Y003089D01*
X014960Y002631D01*
X014705Y002377D01*
X014705Y001983D01*
X014983Y001705D01*
X015377Y001705D01*
X015655Y001983D01*
X015655Y002377D01*
X015400Y002631D01*
X015400Y003271D01*
X015271Y003400D01*
X014771Y003900D01*
X009771Y003900D01*
X009711Y003960D01*
X015589Y003960D01*
X015960Y003589D01*
X015960Y002631D01*
X015705Y002377D01*
X015705Y001983D01*
X015983Y001705D01*
X016377Y001705D01*
X016655Y001983D01*
X016655Y002377D01*
X016400Y002631D01*
X016400Y003771D01*
X016271Y003900D01*
X015771Y004400D01*
X009771Y004400D01*
X009400Y004771D01*
X009400Y010134D01*
X009453Y010081D01*
X009600Y010020D01*
X009760Y010020D01*
X009907Y010081D01*
X010019Y010193D01*
X010080Y010340D01*
X010080Y011020D01*
X010019Y011167D01*
X009998Y011187D01*
X010271Y011460D01*
X012771Y011460D01*
X012900Y011589D01*
X013400Y012089D01*
X013400Y012930D01*
X015180Y012930D01*
X015180Y014609D01*
X015187Y014562D01*
X015212Y014486D01*
X015248Y014415D01*
X015295Y014351D01*
X015351Y014295D01*
X015387Y014269D01*
X015344Y014227D01*
X015304Y014171D01*
X015272Y014109D01*
X015251Y014043D01*
X015240Y013975D01*
X015240Y013680D01*
X015680Y013680D01*
X016120Y013680D01*
X016120Y013975D01*
X016109Y014043D01*
X016088Y014109D01*
X016056Y014171D01*
X016016Y014227D01*
X015973Y014269D01*
X016009Y014295D01*
X016065Y014351D01*
X016112Y014415D01*
X016148Y014486D01*
X016173Y014562D01*
X016185Y014640D01*
X016185Y014680D01*
X016185Y014720D01*
X016173Y014798D01*
X016148Y014874D01*
X016112Y014945D01*
X016065Y015009D01*
X016009Y015065D01*
X015945Y015112D01*
X015874Y015148D01*
X015798Y015173D01*
X015720Y015185D01*
X015680Y015185D01*
X015680Y014680D01*
X015680Y014680D01*
X016185Y014680D01*
X015680Y014680D01*
X015680Y014680D01*
X015680Y015185D01*
X015640Y015185D01*
X015562Y015173D01*
X015486Y015148D01*
X015415Y015112D01*
X015351Y015065D01*
X015295Y015009D01*
X015248Y014945D01*
X015212Y014874D01*
X015187Y014798D01*
X015180Y014751D01*
X015180Y018430D01*
X015378Y018430D01*
X016290Y017518D01*
X016290Y014948D01*
X016286Y014943D01*
X016215Y014772D01*
X016215Y014588D01*
X016286Y014417D01*
X016290Y014412D01*
X016290Y014044D01*
X016280Y014020D01*
X016280Y013340D01*
X016283Y013334D01*
X014459Y011511D01*
X014349Y011401D01*
X014290Y011258D01*
X014290Y011044D01*
X014280Y011020D01*
X014280Y010340D01*
X014341Y010193D01*
X014453Y010081D01*
X014600Y010020D01*
X014760Y010020D01*
X014907Y010081D01*
X015019Y010193D01*
X015080Y010340D01*
X015080Y011020D01*
X015077Y011026D01*
X016901Y012849D01*
X017011Y012959D01*
X017070Y013102D01*
X017070Y013316D01*
X017080Y013340D01*
X017080Y014020D01*
X017070Y014044D01*
X017070Y014412D01*
X017074Y014417D01*
X017145Y014588D01*
X017145Y014772D01*
X017074Y014943D01*
X017070Y014948D01*
X017070Y015479D01*
X017089Y015460D01*
X017960Y014589D01*
X017960Y014226D01*
X017907Y014279D01*
X017760Y014340D01*
X017600Y014340D01*
X017453Y014279D01*
X017341Y014167D01*
X017280Y014020D01*
X017280Y013340D01*
X017341Y013193D01*
X017453Y013081D01*
X017460Y013078D01*
X017460Y012089D01*
X017589Y011960D01*
X018089Y011460D01*
X019960Y011460D01*
X019960Y011226D01*
X019907Y011279D01*
X019760Y011340D01*
X019600Y011340D01*
X019453Y011279D01*
X019341Y011167D01*
X019280Y011020D01*
X019280Y010340D01*
X019341Y010193D01*
X019453Y010081D01*
X019460Y010078D01*
X019460Y009771D01*
X018344Y008655D01*
X017983Y008655D01*
X017705Y008377D01*
X017705Y007983D01*
X017983Y007705D01*
X018377Y007705D01*
X018655Y007983D01*
X018655Y008344D01*
X019900Y009589D01*
X019900Y010078D01*
X019907Y010081D01*
X019960Y010134D01*
X019960Y003771D01*
X019589Y003400D01*
X017589Y003400D01*
X017460Y003271D01*
X017089Y002900D01*
X017089Y002900D01*
X016960Y002771D01*
X016960Y002631D01*
X016705Y002377D01*
X016705Y001983D01*
X016983Y001705D01*
X017377Y001705D01*
X017655Y001983D01*
X017655Y002377D01*
X017421Y002610D01*
X017771Y002960D01*
X019771Y002960D01*
X019900Y003089D01*
X020400Y003589D01*
X020400Y010134D01*
X020453Y010081D01*
X020600Y010020D01*
X020760Y010020D01*
X020907Y010081D01*
X020960Y010134D01*
X020960Y003271D01*
X020089Y002400D01*
X018631Y002400D01*
X018377Y002655D01*
X017983Y002655D01*
X017705Y002377D01*
X017705Y001983D01*
X017983Y001705D01*
X018377Y001705D01*
X018631Y001960D01*
X020271Y001960D01*
X020400Y002089D01*
X021400Y003089D01*
X021400Y010134D01*
X021453Y010081D01*
X021460Y010078D01*
X021460Y008589D01*
X022460Y007589D01*
X022589Y007460D01*
X023271Y007460D01*
X023521Y007710D01*
X023650Y007839D01*
X023650Y014021D01*
X022991Y014680D01*
X034465Y014680D01*
X034465Y002680D01*
X034453Y002476D01*
X034362Y002079D01*
X034186Y001712D01*
X033932Y001393D01*
X033613Y001139D01*
X033246Y000962D01*
X032848Y000871D01*
X032645Y000860D01*
X003180Y000860D01*
X002976Y000871D01*
X002579Y000962D01*
X002212Y001139D01*
X001893Y001393D01*
X001992Y001314D02*
X002158Y001314D01*
X002191Y001156D02*
X002406Y001156D01*
X002506Y000997D02*
X002956Y000997D01*
X003378Y000997D02*
X032484Y000997D01*
X032302Y001011D02*
X032802Y000973D01*
X033290Y001085D01*
X033724Y001335D01*
X034064Y001702D01*
X034281Y002153D01*
X034281Y002153D01*
X034356Y002649D01*
X034281Y003144D01*
X034064Y003595D01*
X033724Y003962D01*
X033724Y003962D01*
X033290Y004212D01*
X032802Y004324D01*
X032302Y004286D01*
X031836Y004103D01*
X031445Y003791D01*
X031162Y003377D01*
X031015Y002899D01*
X029004Y002899D01*
X028994Y002924D02*
X028793Y003125D01*
X029804Y003125D01*
X029849Y003137D01*
X029891Y003161D01*
X029924Y003194D01*
X029948Y003236D01*
X029960Y003281D01*
X029960Y004425D01*
X028260Y004425D01*
X028260Y004585D01*
X029960Y004585D01*
X029960Y005729D01*
X029948Y005774D01*
X029924Y005816D01*
X029891Y005849D01*
X029849Y005873D01*
X029804Y005885D01*
X028260Y005885D01*
X028260Y004585D01*
X028100Y004585D01*
X028100Y005885D01*
X026556Y005885D01*
X026511Y005873D01*
X026469Y005849D01*
X026436Y005816D01*
X026412Y005774D01*
X026400Y005729D01*
X026400Y004585D01*
X028100Y004585D01*
X028100Y004425D01*
X026400Y004425D01*
X026400Y003281D01*
X026412Y003236D01*
X026436Y003194D01*
X026469Y003161D01*
X026511Y003137D01*
X026556Y003125D01*
X027567Y003125D01*
X027366Y002924D01*
X027220Y002571D01*
X027220Y002189D01*
X027366Y001836D01*
X027636Y001566D01*
X027989Y001420D01*
X028371Y001420D01*
X028724Y001566D01*
X028994Y001836D01*
X029140Y002189D01*
X029140Y002571D01*
X028994Y002924D01*
X028860Y003058D02*
X031064Y003058D01*
X031113Y003216D02*
X029936Y003216D01*
X029960Y003375D02*
X031162Y003375D01*
X031162Y003377D02*
X031162Y003377D01*
X031269Y003533D02*
X029960Y003533D01*
X029960Y003692D02*
X031377Y003692D01*
X031445Y003791D02*
X031445Y003791D01*
X031445Y003791D01*
X031518Y003850D02*
X029960Y003850D01*
X029960Y004009D02*
X031717Y004009D01*
X031836Y004103D02*
X031836Y004103D01*
X031998Y004167D02*
X029960Y004167D01*
X029960Y004326D02*
X034465Y004326D01*
X034465Y004484D02*
X028260Y004484D01*
X028260Y004643D02*
X028100Y004643D01*
X028100Y004801D02*
X028260Y004801D01*
X028260Y004960D02*
X028100Y004960D01*
X028100Y005118D02*
X028260Y005118D01*
X028260Y005277D02*
X028100Y005277D01*
X028100Y005435D02*
X028260Y005435D01*
X028260Y005594D02*
X028100Y005594D01*
X028100Y005752D02*
X028260Y005752D01*
X028100Y004484D02*
X021400Y004484D01*
X021400Y004326D02*
X026400Y004326D01*
X026400Y004167D02*
X021400Y004167D01*
X021400Y004009D02*
X026400Y004009D01*
X026400Y003850D02*
X021400Y003850D01*
X021400Y003692D02*
X026400Y003692D01*
X026400Y003533D02*
X021400Y003533D01*
X021400Y003375D02*
X026400Y003375D01*
X026424Y003216D02*
X021400Y003216D01*
X021369Y003058D02*
X027500Y003058D01*
X027356Y002899D02*
X021210Y002899D01*
X021052Y002741D02*
X027290Y002741D01*
X027225Y002582D02*
X020893Y002582D01*
X020735Y002424D02*
X027220Y002424D01*
X027220Y002265D02*
X020576Y002265D01*
X020418Y002107D02*
X027254Y002107D01*
X027320Y001948D02*
X018619Y001948D01*
X018461Y001790D02*
X027413Y001790D01*
X027571Y001631D02*
X004471Y001631D01*
X004579Y001790D02*
X012899Y001790D01*
X012741Y001948D02*
X004655Y001948D01*
X004731Y002107D02*
X012705Y002107D01*
X012705Y002265D02*
X004771Y002265D01*
X004795Y002424D02*
X012625Y002424D01*
X012680Y002680D02*
X013180Y002180D01*
X013655Y002107D02*
X013705Y002107D01*
X013705Y002265D02*
X013655Y002265D01*
X013625Y002424D02*
X013608Y002424D01*
X013467Y002582D02*
X013449Y002582D01*
X013308Y002741D02*
X012931Y002741D01*
X012772Y002899D02*
X013150Y002899D01*
X013180Y003180D02*
X014180Y002180D01*
X014449Y002582D02*
X014911Y002582D01*
X014960Y002741D02*
X013931Y002741D01*
X013772Y002899D02*
X014960Y002899D01*
X014960Y003058D02*
X013614Y003058D01*
X013455Y003216D02*
X014833Y003216D01*
X014674Y003375D02*
X013297Y003375D01*
X013180Y003180D02*
X009680Y003180D01*
X008180Y004680D01*
X008180Y011180D01*
X010680Y013680D01*
X011080Y013677D02*
X011280Y013677D01*
X011280Y013519D02*
X011080Y013519D01*
X011080Y013360D02*
X011280Y013360D01*
X011338Y013202D02*
X011022Y013202D01*
X010815Y013043D02*
X011232Y013043D01*
X011180Y012680D02*
X011680Y013180D01*
X011680Y013680D01*
X012080Y013677D02*
X012280Y013677D01*
X012280Y013519D02*
X012080Y013519D01*
X012080Y013360D02*
X012280Y013360D01*
X012338Y013202D02*
X012022Y013202D01*
X011854Y013043D02*
X012460Y013043D01*
X012460Y012885D02*
X011696Y012885D01*
X011537Y012726D02*
X012415Y012726D01*
X012256Y012568D02*
X011379Y012568D01*
X011180Y012680D02*
X010180Y012680D01*
X008680Y011180D01*
X008680Y004680D01*
X009680Y003680D01*
X014680Y003680D01*
X015180Y003180D01*
X015180Y002180D01*
X014705Y002107D02*
X014655Y002107D01*
X014655Y002265D02*
X014705Y002265D01*
X014752Y002424D02*
X014608Y002424D01*
X014619Y001948D02*
X014741Y001948D01*
X014899Y001790D02*
X014461Y001790D01*
X013899Y001790D02*
X013461Y001790D01*
X013619Y001948D02*
X013741Y001948D01*
X012680Y002680D02*
X009680Y002680D01*
X007680Y004680D01*
X007680Y011180D01*
X009180Y012680D01*
X009180Y013180D01*
X009680Y013680D01*
X010080Y013677D02*
X010280Y013677D01*
X010280Y013836D02*
X010080Y013836D01*
X010080Y013994D02*
X010280Y013994D01*
X010335Y014153D02*
X010025Y014153D01*
X009830Y014311D02*
X010530Y014311D01*
X010830Y014311D02*
X011530Y014311D01*
X011335Y014153D02*
X011025Y014153D01*
X011080Y013994D02*
X011280Y013994D01*
X011280Y013836D02*
X011080Y013836D01*
X011830Y014311D02*
X012530Y014311D01*
X012579Y014470D02*
X006771Y014470D01*
X006636Y014334D02*
X009011Y016709D01*
X009070Y016852D01*
X009070Y017405D01*
X009150Y017485D01*
X009150Y017875D01*
X009070Y017955D01*
X009070Y018258D01*
X009011Y018401D01*
X008411Y019001D01*
X008620Y019210D01*
X008875Y019210D01*
X009150Y019485D01*
X009150Y019875D01*
X008875Y020150D01*
X008485Y020150D01*
X008210Y019875D01*
X008210Y019620D01*
X008001Y019411D01*
X007070Y020342D01*
X007070Y025672D01*
X007120Y025792D01*
X007120Y026568D01*
X007053Y026729D01*
X006929Y026853D01*
X006768Y026920D01*
X006592Y026920D01*
X006431Y026853D01*
X006307Y026729D01*
X006240Y026568D01*
X006240Y025792D01*
X006290Y025672D01*
X006290Y020102D01*
X006349Y019959D01*
X006459Y019849D01*
X007584Y018724D01*
X008290Y018018D01*
X008290Y017955D01*
X008210Y017875D01*
X008210Y017485D01*
X008290Y017405D01*
X008290Y017092D01*
X006240Y015042D01*
X006229Y015053D01*
X006068Y015120D01*
X005292Y015120D01*
X005131Y015053D01*
X005007Y014929D01*
X004940Y014768D01*
X004940Y014592D01*
X005007Y014431D01*
X005131Y014307D01*
X005292Y014240D01*
X005568Y014240D01*
X005584Y014224D01*
X005727Y014165D01*
X006383Y014165D01*
X006526Y014224D01*
X006636Y014334D01*
X006613Y014311D02*
X009530Y014311D01*
X009335Y014153D02*
X001360Y014153D01*
X001360Y014311D02*
X005127Y014311D01*
X004991Y014470D02*
X001360Y014470D01*
X001360Y014628D02*
X004940Y014628D01*
X004948Y014787D02*
X001360Y014787D01*
X001360Y014945D02*
X005023Y014945D01*
X005253Y015104D02*
X001360Y015104D01*
X001360Y015262D02*
X005239Y015262D01*
X005292Y015240D02*
X005131Y015307D01*
X005007Y015431D01*
X004940Y015592D01*
X004940Y015768D01*
X005007Y015929D01*
X005131Y016053D01*
X005292Y016120D01*
X006068Y016120D01*
X006229Y016053D01*
X006353Y015929D01*
X006420Y015768D01*
X006420Y015592D01*
X006353Y015431D01*
X006229Y015307D01*
X006068Y015240D01*
X005292Y015240D01*
X005017Y015421D02*
X001360Y015421D01*
X001360Y015579D02*
X004946Y015579D01*
X004940Y015738D02*
X001360Y015738D01*
X001360Y015896D02*
X004993Y015896D01*
X005134Y016055D02*
X001360Y016055D01*
X001360Y016213D02*
X007411Y016213D01*
X007443Y016286D02*
X007574Y016417D01*
X007645Y016588D01*
X007645Y016772D01*
X007574Y016943D01*
X007443Y017074D01*
X007272Y017145D01*
X007088Y017145D01*
X006917Y017074D01*
X006786Y016943D01*
X006715Y016772D01*
X006715Y016588D01*
X006786Y016417D01*
X006917Y016286D01*
X007088Y016215D01*
X007272Y016215D01*
X007443Y016286D01*
X007529Y016372D02*
X007570Y016372D01*
X007621Y016530D02*
X007728Y016530D01*
X007645Y016689D02*
X007887Y016689D01*
X008045Y016847D02*
X007614Y016847D01*
X007512Y017006D02*
X008204Y017006D01*
X008290Y017164D02*
X001360Y017164D01*
X001360Y017006D02*
X005083Y017006D01*
X005131Y017053D02*
X005007Y016929D01*
X004940Y016768D01*
X004940Y016592D01*
X005007Y016431D01*
X005131Y016307D01*
X005292Y016240D01*
X006068Y016240D01*
X006229Y016307D01*
X006353Y016431D01*
X006420Y016592D01*
X006420Y016768D01*
X006353Y016929D01*
X006229Y017053D01*
X006068Y017120D01*
X005292Y017120D01*
X005131Y017053D01*
X005292Y017240D02*
X006068Y017240D01*
X006229Y017307D01*
X006353Y017431D01*
X006365Y017460D01*
X006768Y017460D01*
X006786Y017417D01*
X006917Y017286D01*
X007088Y017215D01*
X007272Y017215D01*
X007443Y017286D01*
X007574Y017417D01*
X007645Y017588D01*
X007645Y017772D01*
X007574Y017943D01*
X007443Y018074D01*
X007272Y018145D01*
X007088Y018145D01*
X006917Y018074D01*
X006786Y017943D01*
X006768Y017900D01*
X006365Y017900D01*
X006353Y017929D01*
X006229Y018053D01*
X006068Y018120D01*
X005292Y018120D01*
X005131Y018053D01*
X005007Y017929D01*
X004940Y017768D01*
X004940Y017592D01*
X005007Y017431D01*
X005131Y017307D01*
X005292Y017240D01*
X005115Y017323D02*
X001360Y017323D01*
X001360Y017481D02*
X004986Y017481D01*
X004940Y017640D02*
X001360Y017640D01*
X001360Y017798D02*
X004953Y017798D01*
X005034Y017957D02*
X001360Y017957D01*
X001360Y018115D02*
X005280Y018115D01*
X005680Y017680D02*
X007180Y017680D01*
X007015Y018115D02*
X006080Y018115D01*
X006326Y017957D02*
X006799Y017957D01*
X007345Y018115D02*
X008193Y018115D01*
X008290Y017957D02*
X007561Y017957D01*
X007634Y017798D02*
X008210Y017798D01*
X008210Y017640D02*
X007645Y017640D01*
X007601Y017481D02*
X008214Y017481D01*
X008290Y017323D02*
X007480Y017323D01*
X006880Y017323D02*
X006245Y017323D01*
X006277Y017006D02*
X006848Y017006D01*
X006746Y016847D02*
X006387Y016847D01*
X006420Y016689D02*
X006715Y016689D01*
X006739Y016530D02*
X006394Y016530D01*
X006294Y016372D02*
X006831Y016372D01*
X007253Y016055D02*
X006226Y016055D01*
X006367Y015896D02*
X007094Y015896D01*
X006936Y015738D02*
X006420Y015738D01*
X006414Y015579D02*
X006777Y015579D01*
X006619Y015421D02*
X006343Y015421D01*
X006460Y015262D02*
X006121Y015262D01*
X006107Y015104D02*
X006302Y015104D01*
X006930Y014628D02*
X012460Y014628D01*
X012460Y014787D02*
X007088Y014787D01*
X007247Y014945D02*
X012460Y014945D01*
X012460Y015104D02*
X007405Y015104D01*
X007564Y015262D02*
X008433Y015262D01*
X008485Y015210D02*
X008875Y015210D01*
X009150Y015485D01*
X009150Y015875D01*
X008875Y016150D01*
X008485Y016150D01*
X008210Y015875D01*
X008210Y015485D01*
X008485Y015210D01*
X008275Y015421D02*
X007722Y015421D01*
X007881Y015579D02*
X008210Y015579D01*
X008210Y015738D02*
X008039Y015738D01*
X008198Y015896D02*
X008231Y015896D01*
X008356Y016055D02*
X008390Y016055D01*
X008515Y016213D02*
X013180Y016213D01*
X013180Y016055D02*
X012970Y016055D01*
X013129Y015896D02*
X013180Y015896D01*
X013180Y015738D02*
X013150Y015738D01*
X013150Y015579D02*
X013180Y015579D01*
X013180Y015421D02*
X013085Y015421D01*
X013180Y015262D02*
X012927Y015262D01*
X012900Y015104D02*
X013180Y015104D01*
X013180Y014945D02*
X012900Y014945D01*
X012900Y014787D02*
X013180Y014787D01*
X013180Y014628D02*
X013043Y014628D01*
X012680Y014680D02*
X013180Y014180D01*
X013180Y012180D01*
X012680Y011680D01*
X010180Y011680D01*
X009680Y011180D01*
X009680Y010680D01*
X010080Y010666D02*
X010280Y010666D01*
X010280Y010824D02*
X010080Y010824D01*
X010080Y010983D02*
X010280Y010983D01*
X010280Y011020D02*
X010280Y010340D01*
X010341Y010193D01*
X010453Y010081D01*
X010460Y010078D01*
X010460Y009589D01*
X011960Y008089D01*
X012089Y007960D01*
X012729Y007960D01*
X012983Y007705D01*
X013377Y007705D01*
X013655Y007983D01*
X013655Y008377D01*
X013377Y008655D01*
X012983Y008655D01*
X012729Y008400D01*
X012271Y008400D01*
X010900Y009771D01*
X010900Y010078D01*
X010907Y010081D01*
X011019Y010193D01*
X011080Y010340D01*
X011080Y011020D01*
X011019Y011167D01*
X010907Y011279D01*
X010760Y011340D01*
X010600Y011340D01*
X010453Y011279D01*
X010341Y011167D01*
X010280Y011020D01*
X010330Y011141D02*
X010030Y011141D01*
X010111Y011300D02*
X010503Y011300D01*
X010269Y011458D02*
X014406Y011458D01*
X014459Y011511D02*
X014459Y011511D01*
X014565Y011617D02*
X012928Y011617D01*
X013086Y011775D02*
X014723Y011775D01*
X014882Y011934D02*
X013245Y011934D01*
X013400Y012092D02*
X015040Y012092D01*
X015199Y012251D02*
X013400Y012251D01*
X013400Y012409D02*
X015357Y012409D01*
X015516Y012568D02*
X013400Y012568D01*
X013400Y012726D02*
X015674Y012726D01*
X015833Y012885D02*
X013400Y012885D01*
X012680Y012680D02*
X012680Y013680D01*
X012280Y013836D02*
X012080Y013836D01*
X012080Y013994D02*
X012280Y013994D01*
X012335Y014153D02*
X012025Y014153D01*
X012680Y014680D02*
X012680Y015680D01*
X012210Y015738D02*
X009150Y015738D01*
X009150Y015579D02*
X012210Y015579D01*
X012275Y015421D02*
X009085Y015421D01*
X008927Y015262D02*
X012433Y015262D01*
X012231Y015896D02*
X009129Y015896D01*
X008970Y016055D02*
X012390Y016055D01*
X013180Y016372D02*
X008673Y016372D01*
X008832Y016530D02*
X013180Y016530D01*
X013180Y016689D02*
X008990Y016689D01*
X009068Y016847D02*
X013180Y016847D01*
X013180Y017006D02*
X009070Y017006D01*
X009070Y017164D02*
X013180Y017164D01*
X013180Y017323D02*
X012987Y017323D01*
X012875Y017210D02*
X012485Y017210D01*
X012210Y017485D01*
X012210Y017839D01*
X011710Y018339D01*
X011710Y025394D01*
X011695Y025440D01*
X011592Y025440D01*
X011431Y025507D01*
X011307Y025631D01*
X011240Y025792D01*
X011240Y026568D01*
X011307Y026729D01*
X011431Y026853D01*
X011592Y026920D01*
X011768Y026920D01*
X011929Y026853D01*
X012053Y026729D01*
X012120Y026568D01*
X012120Y025792D01*
X012076Y025687D01*
X012122Y025549D01*
X012150Y025521D01*
X012150Y025466D01*
X012168Y025413D01*
X012150Y025378D01*
X012150Y018521D01*
X012521Y018150D01*
X012875Y018150D01*
X013150Y017875D01*
X013150Y017485D01*
X012875Y017210D01*
X013146Y017481D02*
X013180Y017481D01*
X013180Y017640D02*
X013150Y017640D01*
X013150Y017798D02*
X013180Y017798D01*
X013180Y017957D02*
X013068Y017957D01*
X013180Y018115D02*
X012910Y018115D01*
X013180Y018274D02*
X012398Y018274D01*
X012239Y018432D02*
X013180Y018432D01*
X013180Y018591D02*
X012150Y018591D01*
X012150Y018749D02*
X014059Y018749D01*
X013901Y018908D02*
X012150Y018908D01*
X012150Y019066D02*
X013742Y019066D01*
X013584Y019225D02*
X012889Y019225D01*
X013048Y019383D02*
X013425Y019383D01*
X013315Y019542D02*
X013150Y019542D01*
X013150Y019700D02*
X013290Y019700D01*
X013280Y019859D02*
X013150Y019859D01*
X013280Y020017D02*
X013008Y020017D01*
X012900Y020176D02*
X013280Y020176D01*
X013280Y020334D02*
X012900Y020334D01*
X012900Y020493D02*
X013280Y020493D01*
X013334Y020651D02*
X012900Y020651D01*
X012900Y020810D02*
X013527Y020810D01*
X013833Y020810D02*
X014460Y020810D01*
X014334Y020651D02*
X014026Y020651D01*
X014080Y020493D02*
X014280Y020493D01*
X014280Y020334D02*
X014080Y020334D01*
X014080Y020176D02*
X014280Y020176D01*
X014280Y020017D02*
X014080Y020017D01*
X014080Y019859D02*
X014280Y019859D01*
X014338Y019700D02*
X014212Y019700D01*
X014370Y019542D02*
X014507Y019542D01*
X014529Y019383D02*
X014666Y019383D01*
X014930Y019430D02*
X014680Y019680D01*
X014680Y020180D01*
X014680Y020930D01*
X014180Y021430D01*
X013180Y021430D01*
X012680Y020930D01*
X012680Y019680D01*
X012210Y019700D02*
X012150Y019700D01*
X012150Y019542D02*
X012210Y019542D01*
X012150Y019383D02*
X012312Y019383D01*
X012471Y019225D02*
X012150Y019225D01*
X011710Y019225D02*
X008889Y019225D01*
X009048Y019383D02*
X011710Y019383D01*
X011710Y019542D02*
X009150Y019542D01*
X009150Y019700D02*
X011710Y019700D01*
X011710Y019859D02*
X009150Y019859D01*
X009008Y020017D02*
X011710Y020017D01*
X011710Y020176D02*
X007236Y020176D01*
X007078Y020334D02*
X011710Y020334D01*
X011710Y020493D02*
X007070Y020493D01*
X007070Y020651D02*
X011710Y020651D01*
X011710Y020810D02*
X007070Y020810D01*
X007070Y020968D02*
X011710Y020968D01*
X011710Y021127D02*
X007070Y021127D01*
X007070Y021285D02*
X011710Y021285D01*
X011710Y021444D02*
X007070Y021444D01*
X007070Y021602D02*
X011710Y021602D01*
X011710Y021761D02*
X011204Y021761D01*
X011200Y021750D02*
X011248Y021867D01*
X011248Y021993D01*
X011200Y022110D01*
X011110Y022200D01*
X010993Y022248D01*
X010867Y022248D01*
X010750Y022200D01*
X010700Y022150D01*
X009521Y022150D01*
X008900Y022771D01*
X008900Y025495D01*
X008929Y025507D01*
X009053Y025631D01*
X009120Y025792D01*
X009120Y026568D01*
X009053Y026729D01*
X008929Y026853D01*
X008768Y026920D01*
X008592Y026920D01*
X008431Y026853D01*
X008307Y026729D01*
X008240Y026568D01*
X008240Y025792D01*
X008307Y025631D01*
X008431Y025507D01*
X008460Y025495D01*
X008460Y022589D01*
X009210Y021839D01*
X009339Y021710D01*
X010700Y021710D01*
X010750Y021660D01*
X010867Y021612D01*
X010993Y021612D01*
X011110Y021660D01*
X011200Y021750D01*
X011248Y021919D02*
X011710Y021919D01*
X011710Y022078D02*
X011213Y022078D01*
X011022Y022236D02*
X011710Y022236D01*
X011710Y022395D02*
X009277Y022395D01*
X009118Y022553D02*
X011710Y022553D01*
X011710Y022712D02*
X008960Y022712D01*
X008900Y022870D02*
X011710Y022870D01*
X011710Y023029D02*
X008900Y023029D01*
X008900Y023187D02*
X011710Y023187D01*
X011710Y023346D02*
X008900Y023346D01*
X008900Y023504D02*
X011710Y023504D01*
X011710Y023663D02*
X008900Y023663D01*
X008900Y023821D02*
X011710Y023821D01*
X011710Y023980D02*
X008900Y023980D01*
X008900Y024138D02*
X011710Y024138D01*
X011710Y024297D02*
X008900Y024297D01*
X008900Y024455D02*
X011710Y024455D01*
X011710Y024614D02*
X008900Y024614D01*
X008900Y024772D02*
X011710Y024772D01*
X011710Y024931D02*
X008900Y024931D01*
X008900Y025089D02*
X011710Y025089D01*
X011710Y025248D02*
X008900Y025248D01*
X008900Y025406D02*
X011706Y025406D01*
X011930Y025430D02*
X011930Y018430D01*
X012680Y017680D01*
X012373Y017323D02*
X009070Y017323D01*
X009146Y017481D02*
X012214Y017481D01*
X012210Y017640D02*
X009150Y017640D01*
X009150Y017798D02*
X012210Y017798D01*
X012092Y017957D02*
X009070Y017957D01*
X009070Y018115D02*
X011934Y018115D01*
X011775Y018274D02*
X009063Y018274D01*
X008980Y018432D02*
X011710Y018432D01*
X011710Y018591D02*
X008821Y018591D01*
X008663Y018749D02*
X011710Y018749D01*
X011710Y018908D02*
X008504Y018908D01*
X008476Y019066D02*
X011710Y019066D01*
X012150Y019859D02*
X012210Y019859D01*
X012150Y020017D02*
X012352Y020017D01*
X012460Y020176D02*
X012150Y020176D01*
X012150Y020334D02*
X012460Y020334D01*
X012460Y020493D02*
X012150Y020493D01*
X012150Y020651D02*
X012460Y020651D01*
X012460Y020810D02*
X012150Y020810D01*
X012150Y020968D02*
X012460Y020968D01*
X012565Y021127D02*
X012150Y021127D01*
X012150Y021285D02*
X012724Y021285D01*
X012882Y021444D02*
X012150Y021444D01*
X012150Y021602D02*
X013041Y021602D01*
X013188Y021127D02*
X014172Y021127D01*
X014331Y020968D02*
X013029Y020968D01*
X012150Y021761D02*
X016680Y021761D01*
X016680Y021919D02*
X012150Y021919D01*
X012150Y022078D02*
X016680Y022078D01*
X016680Y022236D02*
X012150Y022236D01*
X012150Y022395D02*
X016680Y022395D01*
X016680Y022553D02*
X012150Y022553D01*
X012150Y022712D02*
X016680Y022712D01*
X016680Y022870D02*
X012150Y022870D01*
X012150Y023029D02*
X016680Y023029D01*
X016680Y023187D02*
X012150Y023187D01*
X012150Y023346D02*
X016680Y023346D01*
X016680Y023504D02*
X012150Y023504D01*
X012150Y023663D02*
X016680Y023663D01*
X016680Y023821D02*
X012150Y023821D01*
X012150Y023980D02*
X016680Y023980D01*
X016680Y024138D02*
X012150Y024138D01*
X012150Y024297D02*
X016680Y024297D01*
X016680Y024455D02*
X012150Y024455D01*
X012150Y024614D02*
X016680Y024614D01*
X016680Y024772D02*
X012150Y024772D01*
X012150Y024931D02*
X016680Y024931D01*
X016680Y025089D02*
X012150Y025089D01*
X012150Y025248D02*
X016680Y025248D01*
X016680Y025406D02*
X012164Y025406D01*
X012117Y025565D02*
X016680Y025565D01*
X016680Y025723D02*
X012091Y025723D01*
X012120Y025882D02*
X016680Y025882D01*
X016680Y026040D02*
X012120Y026040D01*
X012120Y026199D02*
X016680Y026199D01*
X016680Y026357D02*
X012120Y026357D01*
X012120Y026516D02*
X016680Y026516D01*
X016680Y026674D02*
X012076Y026674D01*
X011950Y026833D02*
X016680Y026833D01*
X016680Y026991D02*
X003859Y026991D01*
X003762Y027047D02*
X003762Y027047D01*
X003274Y027158D01*
X002775Y027121D01*
X002775Y027121D01*
X002309Y026938D01*
X002309Y026938D01*
X001917Y026626D01*
X001917Y026626D01*
X001917Y026626D01*
X001635Y026212D01*
X001487Y025734D01*
X001487Y025233D01*
X001635Y024754D01*
X001917Y024340D01*
X002309Y024028D01*
X002775Y023845D01*
X003274Y023808D01*
X003762Y023919D01*
X003762Y023919D01*
X004196Y024170D01*
X004537Y024537D01*
X004754Y024988D01*
X004829Y025483D01*
X004754Y025978D01*
X004754Y025978D01*
X004537Y026430D01*
X004196Y026797D01*
X003762Y027047D01*
X004134Y026833D02*
X006410Y026833D01*
X006284Y026674D02*
X004310Y026674D01*
X004196Y026797D02*
X004196Y026797D01*
X004457Y026516D02*
X006240Y026516D01*
X006240Y026357D02*
X004571Y026357D01*
X004537Y026430D02*
X004537Y026430D01*
X004648Y026199D02*
X006240Y026199D01*
X006240Y026040D02*
X004724Y026040D01*
X004768Y025882D02*
X006240Y025882D01*
X006269Y025723D02*
X004792Y025723D01*
X004816Y025565D02*
X006290Y025565D01*
X006290Y025406D02*
X004817Y025406D01*
X004793Y025248D02*
X006290Y025248D01*
X006290Y025089D02*
X004769Y025089D01*
X004754Y024988D02*
X004754Y024988D01*
X004726Y024931D02*
X006290Y024931D01*
X006290Y024772D02*
X004650Y024772D01*
X004574Y024614D02*
X006290Y024614D01*
X006290Y024455D02*
X004461Y024455D01*
X004537Y024537D02*
X004537Y024537D01*
X004314Y024297D02*
X006290Y024297D01*
X006290Y024138D02*
X004141Y024138D01*
X004196Y024170D02*
X004196Y024170D01*
X004196Y024170D01*
X003867Y023980D02*
X006290Y023980D01*
X006290Y023821D02*
X003332Y023821D01*
X003274Y023808D02*
X003274Y023808D01*
X003098Y023821D02*
X001360Y023821D01*
X001360Y023663D02*
X006290Y023663D01*
X006290Y023504D02*
X001360Y023504D01*
X001360Y023346D02*
X006290Y023346D01*
X006290Y023187D02*
X001360Y023187D01*
X001360Y023029D02*
X006290Y023029D01*
X006290Y022870D02*
X001360Y022870D01*
X001360Y022712D02*
X006290Y022712D01*
X006290Y022553D02*
X001360Y022553D01*
X001360Y022395D02*
X006290Y022395D01*
X006290Y022236D02*
X001360Y022236D01*
X001360Y022078D02*
X006290Y022078D01*
X006290Y021919D02*
X001360Y021919D01*
X001360Y021761D02*
X006290Y021761D01*
X006290Y021602D02*
X003307Y021602D01*
X003298Y021605D02*
X003230Y021616D01*
X003196Y021616D01*
X003196Y021180D01*
X003632Y021180D01*
X003632Y021214D01*
X003621Y021282D01*
X003600Y021347D01*
X003569Y021408D01*
X003528Y021464D01*
X003480Y021512D01*
X003424Y021553D01*
X003363Y021584D01*
X003298Y021605D01*
X003196Y021602D02*
X003196Y021602D01*
X003196Y021616D02*
X003161Y021616D01*
X003094Y021605D01*
X003028Y021584D01*
X002967Y021553D01*
X002912Y021512D01*
X002863Y021464D01*
X002823Y021408D01*
X002792Y021347D01*
X002771Y021282D01*
X002760Y021214D01*
X002760Y021180D01*
X002760Y021146D01*
X002771Y021078D01*
X002792Y021013D01*
X002823Y020952D01*
X002863Y020896D01*
X002912Y020848D01*
X002967Y020807D01*
X003028Y020776D01*
X003094Y020755D01*
X003161Y020744D01*
X003196Y020744D01*
X003230Y020744D01*
X003298Y020755D01*
X003363Y020776D01*
X003424Y020807D01*
X003480Y020848D01*
X003528Y020896D01*
X003569Y020952D01*
X003600Y021013D01*
X003621Y021078D01*
X003632Y021146D01*
X003632Y021180D01*
X003196Y021180D01*
X003196Y021180D01*
X003196Y020744D01*
X003196Y021180D01*
X003196Y021180D01*
X003196Y021180D01*
X003196Y021616D01*
X003084Y021602D02*
X001360Y021602D01*
X001360Y021444D02*
X002848Y021444D01*
X002772Y021285D02*
X001360Y021285D01*
X001360Y021127D02*
X002763Y021127D01*
X002760Y021180D02*
X003196Y021180D01*
X003196Y021180D01*
X002760Y021180D01*
X002815Y020968D02*
X001360Y020968D01*
X001360Y020810D02*
X002964Y020810D01*
X003196Y020810D02*
X003196Y020810D01*
X003196Y020968D02*
X003196Y020968D01*
X003196Y021127D02*
X003196Y021127D01*
X003196Y021285D02*
X003196Y021285D01*
X003196Y021444D02*
X003196Y021444D01*
X003543Y021444D02*
X004868Y021444D01*
X004829Y021404D02*
X004768Y021259D01*
X004768Y021101D01*
X004829Y020956D01*
X004940Y020844D01*
X005086Y020784D01*
X005243Y020784D01*
X005389Y020844D01*
X005500Y020956D01*
X005560Y021101D01*
X005560Y021259D01*
X005500Y021404D01*
X005389Y021516D01*
X005243Y021576D01*
X005086Y021576D01*
X004940Y021516D01*
X004829Y021404D01*
X004779Y021285D02*
X003620Y021285D01*
X003629Y021127D02*
X004768Y021127D01*
X004824Y020968D02*
X003577Y020968D01*
X003427Y020810D02*
X005024Y020810D01*
X005304Y020810D02*
X006290Y020810D01*
X006290Y020968D02*
X005505Y020968D01*
X005560Y021127D02*
X006290Y021127D01*
X006290Y021285D02*
X005549Y021285D01*
X005461Y021444D02*
X006290Y021444D01*
X006290Y020651D02*
X001360Y020651D01*
X001360Y020493D02*
X006290Y020493D01*
X006290Y020334D02*
X001360Y020334D01*
X001360Y020176D02*
X006290Y020176D01*
X006325Y020017D02*
X001360Y020017D01*
X001360Y019859D02*
X006450Y019859D01*
X006608Y019700D02*
X001360Y019700D01*
X001360Y019542D02*
X006767Y019542D01*
X006925Y019383D02*
X001360Y019383D01*
X001360Y019225D02*
X007084Y019225D01*
X007242Y019066D02*
X001360Y019066D01*
X001360Y018908D02*
X007401Y018908D01*
X007559Y018749D02*
X001360Y018749D01*
X001360Y018591D02*
X007718Y018591D01*
X007876Y018432D02*
X001360Y018432D01*
X001360Y018274D02*
X008035Y018274D01*
X008131Y019542D02*
X007870Y019542D01*
X007712Y019700D02*
X008210Y019700D01*
X008210Y019859D02*
X007553Y019859D01*
X007395Y020017D02*
X008352Y020017D01*
X009288Y021761D02*
X007070Y021761D01*
X007070Y021919D02*
X009130Y021919D01*
X008971Y022078D02*
X007070Y022078D01*
X007070Y022236D02*
X008813Y022236D01*
X008654Y022395D02*
X007070Y022395D01*
X007070Y022553D02*
X008496Y022553D01*
X008460Y022712D02*
X007070Y022712D01*
X007070Y022870D02*
X008460Y022870D01*
X008460Y023029D02*
X007070Y023029D01*
X007070Y023187D02*
X008460Y023187D01*
X008460Y023346D02*
X007070Y023346D01*
X007070Y023504D02*
X008460Y023504D01*
X008460Y023663D02*
X007070Y023663D01*
X007070Y023821D02*
X008460Y023821D01*
X008460Y023980D02*
X007070Y023980D01*
X007070Y024138D02*
X008460Y024138D01*
X008460Y024297D02*
X007070Y024297D01*
X007070Y024455D02*
X008460Y024455D01*
X008460Y024614D02*
X007070Y024614D01*
X007070Y024772D02*
X008460Y024772D01*
X008460Y024931D02*
X007070Y024931D01*
X007070Y025089D02*
X008460Y025089D01*
X008460Y025248D02*
X007070Y025248D01*
X007070Y025406D02*
X007604Y025406D01*
X007568Y025412D02*
X007642Y025400D01*
X007660Y025400D01*
X007660Y026160D01*
X007700Y026160D01*
X007700Y026200D01*
X008160Y026200D01*
X008160Y026518D01*
X008148Y026592D01*
X008125Y026664D01*
X008091Y026732D01*
X008046Y026793D01*
X007993Y026846D01*
X007932Y026891D01*
X007864Y026925D01*
X007792Y026948D01*
X007718Y026960D01*
X007700Y026960D01*
X007700Y026200D01*
X007660Y026200D01*
X007660Y026960D01*
X007642Y026960D01*
X007568Y026948D01*
X007496Y026925D01*
X007428Y026891D01*
X007367Y026846D01*
X007314Y026793D01*
X007269Y026732D01*
X007235Y026664D01*
X007212Y026592D01*
X007200Y026518D01*
X007200Y026200D01*
X007660Y026200D01*
X007660Y026160D01*
X007200Y026160D01*
X007200Y025842D01*
X007212Y025768D01*
X007235Y025696D01*
X007269Y025628D01*
X007314Y025567D01*
X007367Y025514D01*
X007428Y025469D01*
X007496Y025435D01*
X007568Y025412D01*
X007660Y025406D02*
X007700Y025406D01*
X007700Y025400D02*
X007718Y025400D01*
X007792Y025412D01*
X007864Y025435D01*
X007932Y025469D01*
X007993Y025514D01*
X008046Y025567D01*
X008091Y025628D01*
X008125Y025696D01*
X008148Y025768D01*
X008160Y025842D01*
X008160Y026160D01*
X007700Y026160D01*
X007700Y025400D01*
X007756Y025406D02*
X008460Y025406D01*
X008373Y025565D02*
X008043Y025565D01*
X008134Y025723D02*
X008269Y025723D01*
X008240Y025882D02*
X008160Y025882D01*
X008160Y026040D02*
X008240Y026040D01*
X008240Y026199D02*
X007700Y026199D01*
X007660Y026199D02*
X007120Y026199D01*
X007120Y026357D02*
X007200Y026357D01*
X007200Y026516D02*
X007120Y026516D01*
X007076Y026674D02*
X007240Y026674D01*
X007354Y026833D02*
X006950Y026833D01*
X007660Y026833D02*
X007700Y026833D01*
X007700Y026674D02*
X007660Y026674D01*
X007660Y026516D02*
X007700Y026516D01*
X007700Y026357D02*
X007660Y026357D01*
X007660Y026040D02*
X007700Y026040D01*
X007700Y025882D02*
X007660Y025882D01*
X007660Y025723D02*
X007700Y025723D01*
X007700Y025565D02*
X007660Y025565D01*
X007317Y025565D02*
X007070Y025565D01*
X007091Y025723D02*
X007226Y025723D01*
X007200Y025882D02*
X007120Y025882D01*
X007120Y026040D02*
X007200Y026040D01*
X008160Y026357D02*
X008240Y026357D01*
X008240Y026516D02*
X008160Y026516D01*
X008120Y026674D02*
X008284Y026674D01*
X008410Y026833D02*
X008006Y026833D01*
X008680Y026180D02*
X008680Y022680D01*
X009430Y021930D01*
X010930Y021930D01*
X010838Y022236D02*
X009435Y022236D01*
X009592Y025440D02*
X009431Y025507D01*
X009307Y025631D01*
X009240Y025792D01*
X009240Y026568D01*
X009307Y026729D01*
X009431Y026853D01*
X009592Y026920D01*
X009768Y026920D01*
X009929Y026853D01*
X010053Y026729D01*
X010120Y026568D01*
X010120Y025792D01*
X010053Y025631D01*
X009929Y025507D01*
X009768Y025440D01*
X009592Y025440D01*
X009373Y025565D02*
X008987Y025565D01*
X009091Y025723D02*
X009269Y025723D01*
X009240Y025882D02*
X009120Y025882D01*
X009120Y026040D02*
X009240Y026040D01*
X009240Y026199D02*
X009120Y026199D01*
X009120Y026357D02*
X009240Y026357D01*
X009240Y026516D02*
X009120Y026516D01*
X009076Y026674D02*
X009284Y026674D01*
X009410Y026833D02*
X008950Y026833D01*
X009950Y026833D02*
X010410Y026833D01*
X010431Y026853D02*
X010307Y026729D01*
X010240Y026568D01*
X010240Y025792D01*
X010307Y025631D01*
X010431Y025507D01*
X010592Y025440D01*
X010768Y025440D01*
X010929Y025507D01*
X011053Y025631D01*
X011120Y025792D01*
X011120Y026568D01*
X011053Y026729D01*
X010929Y026853D01*
X010768Y026920D01*
X010592Y026920D01*
X010431Y026853D01*
X010284Y026674D02*
X010076Y026674D01*
X010120Y026516D02*
X010240Y026516D01*
X010240Y026357D02*
X010120Y026357D01*
X010120Y026199D02*
X010240Y026199D01*
X010240Y026040D02*
X010120Y026040D01*
X010120Y025882D02*
X010240Y025882D01*
X010269Y025723D02*
X010091Y025723D01*
X009987Y025565D02*
X010373Y025565D01*
X010987Y025565D02*
X011373Y025565D01*
X011269Y025723D02*
X011091Y025723D01*
X011120Y025882D02*
X011240Y025882D01*
X011240Y026040D02*
X011120Y026040D01*
X011120Y026199D02*
X011240Y026199D01*
X011240Y026357D02*
X011120Y026357D01*
X011120Y026516D02*
X011240Y026516D01*
X011284Y026674D02*
X011076Y026674D01*
X010950Y026833D02*
X011410Y026833D01*
X011680Y026180D02*
X011930Y025430D01*
X014319Y021602D02*
X016680Y021602D01*
X016680Y021444D02*
X014478Y021444D01*
X014636Y021285D02*
X016680Y021285D01*
X016680Y021127D02*
X014795Y021127D01*
X014900Y020968D02*
X016680Y020968D01*
X016680Y020810D02*
X015833Y020810D01*
X016026Y020651D02*
X016680Y020651D01*
X016680Y020493D02*
X016080Y020493D01*
X016080Y020334D02*
X016680Y020334D01*
X016680Y020176D02*
X016080Y020176D01*
X016080Y020017D02*
X016680Y020017D01*
X016680Y019859D02*
X016162Y019859D01*
X016320Y019700D02*
X016680Y019700D01*
X016680Y019542D02*
X016479Y019542D01*
X016637Y019383D02*
X016680Y019383D01*
X017340Y018680D02*
X022180Y018680D01*
X022180Y015400D01*
X019271Y015400D01*
X019248Y015423D01*
X019248Y015493D01*
X019200Y015610D01*
X019110Y015700D01*
X018993Y015748D01*
X018867Y015748D01*
X018750Y015700D01*
X018660Y015610D01*
X018612Y015493D01*
X018612Y015367D01*
X018653Y015269D01*
X018498Y015423D01*
X018498Y015493D01*
X018450Y015610D01*
X018360Y015700D01*
X018243Y015748D01*
X018117Y015748D01*
X018000Y015700D01*
X017910Y015610D01*
X017862Y015493D01*
X017862Y015367D01*
X017903Y015269D01*
X017400Y015771D01*
X017400Y017890D01*
X020560Y017890D01*
X020890Y017560D01*
X020890Y017244D01*
X020822Y017216D01*
X020644Y017038D01*
X020548Y016806D01*
X020548Y016554D01*
X020644Y016322D01*
X020822Y016144D01*
X021054Y016048D01*
X021306Y016048D01*
X021538Y016144D01*
X021716Y016322D01*
X021812Y016554D01*
X021812Y016806D01*
X021716Y017038D01*
X021538Y017216D01*
X021470Y017244D01*
X021470Y017738D01*
X021426Y017844D01*
X021344Y017926D01*
X020844Y018426D01*
X020738Y018470D01*
X017550Y018470D01*
X017340Y018680D01*
X017430Y018591D02*
X022180Y018591D01*
X022180Y018432D02*
X020829Y018432D01*
X020997Y018274D02*
X022180Y018274D01*
X022180Y018115D02*
X021155Y018115D01*
X021314Y017957D02*
X022180Y017957D01*
X022180Y017798D02*
X021445Y017798D01*
X021470Y017640D02*
X022180Y017640D01*
X022180Y017481D02*
X021470Y017481D01*
X021470Y017323D02*
X022180Y017323D01*
X022180Y017164D02*
X021590Y017164D01*
X021729Y017006D02*
X022180Y017006D01*
X022180Y016847D02*
X021795Y016847D01*
X021812Y016689D02*
X022180Y016689D01*
X022180Y016530D02*
X021802Y016530D01*
X021736Y016372D02*
X022180Y016372D01*
X022180Y016213D02*
X021607Y016213D01*
X021322Y016055D02*
X022180Y016055D01*
X022180Y015896D02*
X017400Y015896D01*
X017400Y016055D02*
X017934Y016055D01*
X017963Y016042D02*
X018049Y016019D01*
X018127Y016009D01*
X018127Y016627D01*
X017509Y016627D01*
X017519Y016549D01*
X017542Y016463D01*
X017576Y016382D01*
X017620Y016306D01*
X017674Y016236D01*
X017736Y016174D01*
X017806Y016120D01*
X017882Y016076D01*
X017963Y016042D01*
X018127Y016055D02*
X018233Y016055D01*
X018233Y016009D02*
X018311Y016019D01*
X018397Y016042D01*
X018478Y016076D01*
X018554Y016120D01*
X018624Y016174D01*
X018686Y016236D01*
X018740Y016306D01*
X018784Y016382D01*
X018818Y016463D01*
X018841Y016549D01*
X018851Y016627D01*
X018233Y016627D01*
X018233Y016733D01*
X018127Y016733D01*
X018127Y017351D01*
X018049Y017341D01*
X017963Y017318D01*
X017882Y017284D01*
X017806Y017240D01*
X017736Y017186D01*
X017674Y017124D01*
X017620Y017054D01*
X017576Y016978D01*
X017542Y016897D01*
X017519Y016811D01*
X017509Y016733D01*
X018127Y016733D01*
X018127Y016627D01*
X018233Y016627D01*
X018233Y016009D01*
X018426Y016055D02*
X021038Y016055D01*
X020753Y016213D02*
X018664Y016213D01*
X018778Y016372D02*
X020624Y016372D01*
X020558Y016530D02*
X018836Y016530D01*
X018851Y016733D02*
X018233Y016733D01*
X018233Y017351D01*
X018311Y017341D01*
X018397Y017318D01*
X018478Y017284D01*
X018554Y017240D01*
X018624Y017186D01*
X018686Y017124D01*
X018740Y017054D01*
X018784Y016978D01*
X018818Y016897D01*
X018841Y016811D01*
X018851Y016733D01*
X018831Y016847D02*
X020565Y016847D01*
X020548Y016689D02*
X018233Y016689D01*
X018127Y016689D02*
X017400Y016689D01*
X017400Y016847D02*
X017529Y016847D01*
X017592Y017006D02*
X017400Y017006D01*
X017400Y017164D02*
X017713Y017164D01*
X017981Y017323D02*
X017400Y017323D01*
X017400Y017481D02*
X020890Y017481D01*
X020890Y017323D02*
X018379Y017323D01*
X018233Y017323D02*
X018127Y017323D01*
X018127Y017164D02*
X018233Y017164D01*
X018233Y017006D02*
X018127Y017006D01*
X018127Y016847D02*
X018233Y016847D01*
X018233Y016530D02*
X018127Y016530D01*
X018127Y016372D02*
X018233Y016372D01*
X018233Y016213D02*
X018127Y016213D01*
X017696Y016213D02*
X017400Y016213D01*
X017400Y016372D02*
X017582Y016372D01*
X017524Y016530D02*
X017400Y016530D01*
X017434Y015738D02*
X018091Y015738D01*
X018269Y015738D02*
X018841Y015738D01*
X019019Y015738D02*
X022180Y015738D01*
X022180Y015579D02*
X019213Y015579D01*
X019251Y015421D02*
X022180Y015421D01*
X022180Y015180D02*
X019180Y015180D01*
X018930Y015430D01*
X018612Y015421D02*
X018501Y015421D01*
X018463Y015579D02*
X018647Y015579D01*
X018180Y015430D02*
X018930Y014680D01*
X022180Y014680D01*
X022680Y014180D01*
X022680Y013680D01*
X023080Y013677D02*
X023210Y013677D01*
X023210Y013519D02*
X023080Y013519D01*
X023080Y013360D02*
X023210Y013360D01*
X023080Y013340D02*
X023080Y013969D01*
X023210Y013839D01*
X023210Y008021D01*
X023089Y007900D01*
X022771Y007900D01*
X022519Y008153D01*
X022617Y008112D01*
X022743Y008112D01*
X022860Y008160D01*
X022950Y008250D01*
X022998Y008367D01*
X022998Y008493D01*
X022950Y008610D01*
X022900Y008660D01*
X022900Y010078D01*
X022907Y010081D01*
X023019Y010193D01*
X023080Y010340D01*
X023080Y011020D01*
X023019Y011167D01*
X022907Y011279D01*
X022760Y011340D01*
X022600Y011340D01*
X022453Y011279D01*
X022400Y011226D01*
X022400Y011771D01*
X022271Y011900D01*
X021900Y012271D01*
X021771Y012400D01*
X021271Y012400D01*
X020651Y013020D01*
X020760Y013020D01*
X020907Y013081D01*
X021019Y013193D01*
X021080Y013340D01*
X021080Y014020D01*
X021019Y014167D01*
X020907Y014279D01*
X020760Y014340D01*
X020600Y014340D01*
X020453Y014279D01*
X020341Y014167D01*
X020280Y014020D01*
X020280Y013391D01*
X020080Y013591D01*
X020080Y014020D01*
X020019Y014167D01*
X019907Y014279D01*
X019760Y014340D01*
X019600Y014340D01*
X019453Y014279D01*
X019341Y014167D01*
X019280Y014020D01*
X019280Y013340D01*
X019341Y013193D01*
X019453Y013081D01*
X019600Y013020D01*
X019760Y013020D01*
X019907Y013081D01*
X019937Y013112D01*
X020149Y012900D01*
X019271Y012900D01*
X018998Y013173D01*
X019019Y013193D01*
X019080Y013340D01*
X019080Y014020D01*
X019019Y014167D01*
X018907Y014279D01*
X018760Y014340D01*
X018600Y014340D01*
X018453Y014279D01*
X018400Y014226D01*
X018400Y014771D01*
X018019Y015153D01*
X018117Y015112D01*
X018187Y015112D01*
X018839Y014460D01*
X022089Y014460D01*
X022362Y014187D01*
X022341Y014167D01*
X022280Y014020D01*
X022280Y013340D01*
X022341Y013193D01*
X022453Y013081D01*
X022600Y013020D01*
X022760Y013020D01*
X022907Y013081D01*
X023019Y013193D01*
X023080Y013340D01*
X023022Y013202D02*
X023210Y013202D01*
X023210Y013043D02*
X022815Y013043D01*
X022545Y013043D02*
X021815Y013043D01*
X021760Y013020D02*
X021907Y013081D01*
X022019Y013193D01*
X022080Y013340D01*
X022080Y014020D01*
X022019Y014167D01*
X021907Y014279D01*
X021760Y014340D01*
X021600Y014340D01*
X021453Y014279D01*
X021341Y014167D01*
X021280Y014020D01*
X021280Y013340D01*
X021341Y013193D01*
X021453Y013081D01*
X021600Y013020D01*
X021760Y013020D01*
X021545Y013043D02*
X020815Y013043D01*
X020787Y012885D02*
X023210Y012885D01*
X023210Y012726D02*
X020945Y012726D01*
X021104Y012568D02*
X023210Y012568D01*
X023210Y012409D02*
X021262Y012409D01*
X021180Y012180D02*
X019680Y013680D01*
X020080Y013677D02*
X020280Y013677D01*
X020280Y013519D02*
X020153Y013519D01*
X020080Y013836D02*
X020280Y013836D01*
X020280Y013994D02*
X020080Y013994D01*
X020025Y014153D02*
X020335Y014153D01*
X020530Y014311D02*
X019830Y014311D01*
X019530Y014311D02*
X018830Y014311D01*
X018829Y014470D02*
X018400Y014470D01*
X018400Y014628D02*
X018671Y014628D01*
X018512Y014787D02*
X018385Y014787D01*
X018354Y014945D02*
X018226Y014945D01*
X018195Y015104D02*
X018068Y015104D01*
X017862Y015421D02*
X017751Y015421D01*
X017897Y015579D02*
X017592Y015579D01*
X017180Y015680D02*
X017180Y017930D01*
X015680Y019430D01*
X014930Y019430D01*
X015022Y019700D02*
X015338Y019700D01*
X015280Y019859D02*
X015080Y019859D01*
X015080Y020017D02*
X015280Y020017D01*
X015280Y020176D02*
X015080Y020176D01*
X015080Y020334D02*
X015280Y020334D01*
X015280Y020493D02*
X015080Y020493D01*
X015026Y020651D02*
X015334Y020651D01*
X015527Y020810D02*
X014900Y020810D01*
X015180Y018274D02*
X015535Y018274D01*
X015693Y018115D02*
X015180Y018115D01*
X015180Y017957D02*
X015852Y017957D01*
X016010Y017798D02*
X015180Y017798D01*
X015180Y017640D02*
X016169Y017640D01*
X016290Y017481D02*
X015180Y017481D01*
X015180Y017323D02*
X016290Y017323D01*
X016290Y017164D02*
X015180Y017164D01*
X015180Y017006D02*
X016290Y017006D01*
X016290Y016847D02*
X015180Y016847D01*
X015180Y016689D02*
X016290Y016689D01*
X016290Y016530D02*
X015180Y016530D01*
X015180Y016372D02*
X016290Y016372D01*
X016290Y016213D02*
X015180Y016213D01*
X015180Y016055D02*
X016290Y016055D01*
X016290Y015896D02*
X015180Y015896D01*
X015180Y015738D02*
X016290Y015738D01*
X016290Y015579D02*
X015180Y015579D01*
X015180Y015421D02*
X016290Y015421D01*
X016290Y015262D02*
X015180Y015262D01*
X015180Y015104D02*
X015404Y015104D01*
X015248Y014945D02*
X015180Y014945D01*
X015180Y014787D02*
X015186Y014787D01*
X015180Y014470D02*
X015220Y014470D01*
X015180Y014311D02*
X015335Y014311D01*
X015294Y014153D02*
X015180Y014153D01*
X015180Y013994D02*
X015243Y013994D01*
X015240Y013836D02*
X015180Y013836D01*
X015180Y013677D02*
X015240Y013677D01*
X015240Y013680D02*
X015240Y013385D01*
X015251Y013317D01*
X015272Y013251D01*
X015304Y013189D01*
X015344Y013133D01*
X015393Y013084D01*
X015449Y013044D01*
X015511Y013012D01*
X015577Y012991D01*
X015645Y012980D01*
X015680Y012980D01*
X015715Y012980D01*
X015783Y012991D01*
X015849Y013012D01*
X015911Y013044D01*
X015967Y013084D01*
X016016Y013133D01*
X016056Y013189D01*
X016088Y013251D01*
X016109Y013317D01*
X016120Y013385D01*
X016120Y013680D01*
X015680Y013680D01*
X015680Y013680D01*
X015680Y013680D01*
X015680Y014175D01*
X015680Y014680D01*
X015680Y014680D01*
X015680Y013680D01*
X015680Y012980D01*
X015680Y013680D01*
X015680Y013680D01*
X015680Y013680D01*
X015240Y013680D01*
X015240Y013519D02*
X015180Y013519D01*
X015180Y013360D02*
X015244Y013360D01*
X015297Y013202D02*
X015180Y013202D01*
X015180Y013043D02*
X015451Y013043D01*
X015680Y013043D02*
X015680Y013043D01*
X015680Y013202D02*
X015680Y013202D01*
X015680Y013360D02*
X015680Y013360D01*
X015680Y013519D02*
X015680Y013519D01*
X015680Y013677D02*
X015680Y013677D01*
X015680Y013836D02*
X015680Y013836D01*
X015680Y013994D02*
X015680Y013994D01*
X015680Y014153D02*
X015680Y014153D01*
X015680Y014311D02*
X015680Y014311D01*
X015680Y014470D02*
X015680Y014470D01*
X015680Y014628D02*
X015680Y014628D01*
X015680Y014787D02*
X015680Y014787D01*
X015680Y014945D02*
X015680Y014945D01*
X015680Y015104D02*
X015680Y015104D01*
X015956Y015104D02*
X016290Y015104D01*
X016287Y014945D02*
X016112Y014945D01*
X016174Y014787D02*
X016221Y014787D01*
X016215Y014628D02*
X016183Y014628D01*
X016140Y014470D02*
X016264Y014470D01*
X016290Y014311D02*
X016025Y014311D01*
X016066Y014153D02*
X016290Y014153D01*
X016280Y013994D02*
X016117Y013994D01*
X016120Y013836D02*
X016280Y013836D01*
X016280Y013677D02*
X016120Y013677D01*
X016120Y013519D02*
X016280Y013519D01*
X016280Y013360D02*
X016116Y013360D01*
X016150Y013202D02*
X016063Y013202D01*
X015991Y013043D02*
X015909Y013043D01*
X016461Y012409D02*
X017460Y012409D01*
X017460Y012251D02*
X016302Y012251D01*
X016144Y012092D02*
X017460Y012092D01*
X017615Y011934D02*
X015985Y011934D01*
X015827Y011775D02*
X017774Y011775D01*
X017932Y011617D02*
X015668Y011617D01*
X015510Y011458D02*
X019960Y011458D01*
X019960Y011300D02*
X019857Y011300D01*
X019503Y011300D02*
X018857Y011300D01*
X018907Y011279D02*
X018760Y011340D01*
X018600Y011340D01*
X018453Y011279D01*
X018341Y011167D01*
X018280Y011020D01*
X018280Y010340D01*
X018341Y010193D01*
X018362Y010173D01*
X017589Y009400D01*
X017460Y009271D01*
X017460Y008771D01*
X017344Y008655D01*
X016983Y008655D01*
X016705Y008377D01*
X016705Y007983D01*
X016983Y007705D01*
X017377Y007705D01*
X017655Y007983D01*
X017655Y008344D01*
X017900Y008589D01*
X017900Y009089D01*
X018882Y010071D01*
X018907Y010081D01*
X019019Y010193D01*
X019080Y010340D01*
X019080Y011020D01*
X019019Y011167D01*
X018907Y011279D01*
X019030Y011141D02*
X019330Y011141D01*
X019280Y010983D02*
X019080Y010983D01*
X019080Y010824D02*
X019280Y010824D01*
X019280Y010666D02*
X019080Y010666D01*
X019080Y010507D02*
X019280Y010507D01*
X019280Y010349D02*
X019080Y010349D01*
X019016Y010190D02*
X019344Y010190D01*
X019460Y010032D02*
X018843Y010032D01*
X018680Y010180D02*
X017680Y009180D01*
X017680Y008680D01*
X017180Y008180D01*
X017484Y007813D02*
X017876Y007813D01*
X017718Y007971D02*
X017642Y007971D01*
X017655Y008130D02*
X017705Y008130D01*
X017705Y008288D02*
X017655Y008288D01*
X017758Y008447D02*
X017775Y008447D01*
X017900Y008605D02*
X017934Y008605D01*
X017900Y008764D02*
X018452Y008764D01*
X018611Y008922D02*
X017900Y008922D01*
X017900Y009081D02*
X018769Y009081D01*
X018928Y009239D02*
X018050Y009239D01*
X018209Y009398D02*
X019086Y009398D01*
X019245Y009556D02*
X018367Y009556D01*
X018526Y009715D02*
X019403Y009715D01*
X019460Y009873D02*
X018684Y009873D01*
X018680Y010180D02*
X018680Y010680D01*
X018280Y010666D02*
X018080Y010666D01*
X018080Y010824D02*
X018280Y010824D01*
X018280Y010983D02*
X018080Y010983D01*
X018080Y011020D02*
X018019Y011167D01*
X017907Y011279D01*
X017760Y011340D01*
X017600Y011340D01*
X017453Y011279D01*
X017341Y011167D01*
X017280Y011020D01*
X017280Y010340D01*
X017341Y010193D01*
X017453Y010081D01*
X017600Y010020D01*
X017760Y010020D01*
X017907Y010081D01*
X018019Y010193D01*
X018080Y010340D01*
X018080Y011020D01*
X018030Y011141D02*
X018330Y011141D01*
X018503Y011300D02*
X017857Y011300D01*
X017503Y011300D02*
X016934Y011300D01*
X016911Y011316D02*
X016849Y011348D01*
X016783Y011369D01*
X016715Y011380D01*
X016680Y011380D01*
X016680Y010680D01*
X016680Y010680D01*
X017120Y010680D01*
X017120Y010975D01*
X017109Y011043D01*
X017088Y011109D01*
X017056Y011171D01*
X017016Y011227D01*
X016967Y011276D01*
X016911Y011316D01*
X016680Y011300D02*
X016680Y011300D01*
X016680Y011380D02*
X016645Y011380D01*
X016577Y011369D01*
X016511Y011348D01*
X016449Y011316D01*
X016393Y011276D01*
X016344Y011227D01*
X016304Y011171D01*
X016272Y011109D01*
X016251Y011043D01*
X016240Y010975D01*
X016240Y010680D01*
X016680Y010680D01*
X016680Y010680D01*
X016680Y010680D01*
X016680Y011380D01*
X016680Y011141D02*
X016680Y011141D01*
X016680Y010983D02*
X016680Y010983D01*
X016680Y010824D02*
X016680Y010824D01*
X016680Y010680D02*
X016240Y010680D01*
X016240Y010385D01*
X016251Y010317D01*
X016272Y010251D01*
X016304Y010189D01*
X016344Y010133D01*
X016387Y010091D01*
X016351Y010065D01*
X016295Y010009D01*
X016248Y009945D01*
X016212Y009874D01*
X016187Y009798D01*
X016175Y009720D01*
X016175Y009680D01*
X016680Y009680D01*
X017185Y009680D01*
X017185Y009720D01*
X017173Y009798D01*
X017148Y009874D01*
X017112Y009945D01*
X017065Y010009D01*
X017009Y010065D01*
X016973Y010091D01*
X017016Y010133D01*
X017056Y010189D01*
X017088Y010251D01*
X017109Y010317D01*
X017120Y010385D01*
X017120Y010680D01*
X016680Y010680D01*
X016680Y009680D01*
X016680Y009680D01*
X016680Y009680D01*
X016680Y009680D01*
X017185Y009680D01*
X017185Y009640D01*
X017173Y009562D01*
X017148Y009486D01*
X017112Y009415D01*
X017065Y009351D01*
X017009Y009295D01*
X016945Y009248D01*
X016874Y009212D01*
X016798Y009187D01*
X016720Y009175D01*
X016680Y009175D01*
X016680Y009680D01*
X016680Y009680D01*
X016680Y010185D01*
X016680Y010680D01*
X016680Y010680D01*
X016680Y010666D02*
X016680Y010666D01*
X016680Y010507D02*
X016680Y010507D01*
X016680Y010349D02*
X016680Y010349D01*
X016680Y010190D02*
X016680Y010190D01*
X016680Y010032D02*
X016680Y010032D01*
X016680Y009873D02*
X016680Y009873D01*
X016680Y009715D02*
X016680Y009715D01*
X016680Y009680D02*
X016175Y009680D01*
X016175Y009640D01*
X016187Y009562D01*
X016212Y009486D01*
X016248Y009415D01*
X016295Y009351D01*
X016351Y009295D01*
X016415Y009248D01*
X016486Y009212D01*
X016562Y009187D01*
X016640Y009175D01*
X016680Y009175D01*
X016680Y009680D01*
X016680Y009556D02*
X016680Y009556D01*
X016680Y009398D02*
X016680Y009398D01*
X016680Y009239D02*
X016680Y009239D01*
X016927Y009239D02*
X017460Y009239D01*
X017460Y009081D02*
X015591Y009081D01*
X015588Y009215D02*
X015772Y009215D01*
X015943Y009286D01*
X016074Y009417D01*
X016145Y009588D01*
X016145Y009772D01*
X016074Y009943D01*
X015970Y010048D01*
X015970Y010144D01*
X016019Y010193D01*
X016080Y010340D01*
X016080Y011020D01*
X016019Y011167D01*
X015907Y011279D01*
X015760Y011340D01*
X015600Y011340D01*
X015453Y011279D01*
X015341Y011167D01*
X015280Y011020D01*
X015280Y010340D01*
X015341Y010193D01*
X015390Y010144D01*
X015390Y010048D01*
X015286Y009943D01*
X015215Y009772D01*
X015215Y009588D01*
X015286Y009417D01*
X015417Y009286D01*
X015588Y009215D01*
X015530Y009239D02*
X015432Y009239D01*
X015305Y009398D02*
X015274Y009398D01*
X015271Y009400D02*
X014771Y009400D01*
X013998Y010173D01*
X014019Y010193D01*
X014080Y010340D01*
X014080Y011020D01*
X014019Y011167D01*
X013907Y011279D01*
X013760Y011340D01*
X013600Y011340D01*
X013453Y011279D01*
X013341Y011167D01*
X013280Y011020D01*
X013280Y010340D01*
X013341Y010193D01*
X013453Y010081D01*
X013478Y010071D01*
X013649Y009900D01*
X012900Y009900D01*
X012900Y010078D01*
X012907Y010081D01*
X013019Y010193D01*
X013080Y010340D01*
X013080Y011020D01*
X013019Y011167D01*
X012907Y011279D01*
X012760Y011340D01*
X012600Y011340D01*
X012453Y011279D01*
X012341Y011167D01*
X012280Y011020D01*
X012280Y010340D01*
X012341Y010193D01*
X012453Y010081D01*
X012460Y010078D01*
X012460Y009589D01*
X012589Y009460D01*
X013589Y009460D01*
X014705Y008344D01*
X014705Y007983D01*
X014983Y007705D01*
X015377Y007705D01*
X015655Y007983D01*
X015655Y008377D01*
X015377Y008655D01*
X015016Y008655D01*
X014711Y008960D01*
X015089Y008960D01*
X015705Y008344D01*
X015705Y007983D01*
X015983Y007705D01*
X016377Y007705D01*
X016655Y007983D01*
X016655Y008377D01*
X016377Y008655D01*
X016016Y008655D01*
X015271Y009400D01*
X015228Y009556D02*
X014615Y009556D01*
X014457Y009715D02*
X015215Y009715D01*
X015257Y009873D02*
X014298Y009873D01*
X014140Y010032D02*
X014573Y010032D01*
X014787Y010032D02*
X015374Y010032D01*
X015344Y010190D02*
X015016Y010190D01*
X015080Y010349D02*
X015280Y010349D01*
X015280Y010507D02*
X015080Y010507D01*
X015080Y010666D02*
X015280Y010666D01*
X015280Y010824D02*
X015080Y010824D01*
X015080Y010983D02*
X015280Y010983D01*
X015330Y011141D02*
X015193Y011141D01*
X015351Y011300D02*
X015503Y011300D01*
X015857Y011300D02*
X016426Y011300D01*
X016289Y011141D02*
X016030Y011141D01*
X016080Y010983D02*
X016241Y010983D01*
X016240Y010824D02*
X016080Y010824D01*
X016080Y010666D02*
X016240Y010666D01*
X016240Y010507D02*
X016080Y010507D01*
X016080Y010349D02*
X016246Y010349D01*
X016303Y010190D02*
X016016Y010190D01*
X015986Y010032D02*
X016317Y010032D01*
X016212Y009873D02*
X016103Y009873D01*
X016145Y009715D02*
X016175Y009715D01*
X016189Y009556D02*
X016132Y009556D01*
X016055Y009398D02*
X016261Y009398D01*
X016433Y009239D02*
X015830Y009239D01*
X015749Y008922D02*
X017460Y008922D01*
X017452Y008764D02*
X015908Y008764D01*
X015602Y008447D02*
X015585Y008447D01*
X015655Y008288D02*
X015705Y008288D01*
X015705Y008130D02*
X015655Y008130D01*
X015642Y007971D02*
X015718Y007971D01*
X015876Y007813D02*
X015484Y007813D01*
X015180Y008180D02*
X013680Y009680D01*
X012680Y009680D01*
X012680Y010680D01*
X013080Y010666D02*
X013280Y010666D01*
X013280Y010824D02*
X013080Y010824D01*
X013080Y010983D02*
X013280Y010983D01*
X013330Y011141D02*
X013030Y011141D01*
X012857Y011300D02*
X013503Y011300D01*
X013857Y011300D02*
X014307Y011300D01*
X014290Y011141D02*
X014030Y011141D01*
X014080Y010983D02*
X014280Y010983D01*
X014280Y010824D02*
X014080Y010824D01*
X014080Y010666D02*
X014280Y010666D01*
X014280Y010507D02*
X014080Y010507D01*
X014080Y010349D02*
X014280Y010349D01*
X014344Y010190D02*
X014016Y010190D01*
X013680Y010180D02*
X013680Y010680D01*
X013280Y010507D02*
X013080Y010507D01*
X013080Y010349D02*
X013280Y010349D01*
X013344Y010190D02*
X013016Y010190D01*
X012900Y010032D02*
X013517Y010032D01*
X013680Y010180D02*
X014680Y009180D01*
X015180Y009180D01*
X016180Y008180D01*
X016484Y007813D02*
X016876Y007813D01*
X016718Y007971D02*
X016642Y007971D01*
X016655Y008130D02*
X016705Y008130D01*
X016705Y008288D02*
X016655Y008288D01*
X016585Y008447D02*
X016775Y008447D01*
X016934Y008605D02*
X016426Y008605D01*
X015444Y008605D02*
X015426Y008605D01*
X015285Y008764D02*
X014908Y008764D01*
X014749Y008922D02*
X015127Y008922D01*
X014602Y008447D02*
X014585Y008447D01*
X014655Y008377D02*
X014377Y008655D01*
X014016Y008655D01*
X013271Y009400D01*
X012271Y009400D01*
X011900Y009771D01*
X011900Y010078D01*
X011907Y010081D01*
X012019Y010193D01*
X012080Y010340D01*
X012080Y011020D01*
X012019Y011167D01*
X011907Y011279D01*
X011760Y011340D01*
X011600Y011340D01*
X011453Y011279D01*
X011341Y011167D01*
X011280Y011020D01*
X011280Y010340D01*
X011341Y010193D01*
X011453Y010081D01*
X011460Y010078D01*
X011460Y009589D01*
X011960Y009089D01*
X011960Y009089D01*
X012089Y008960D01*
X013089Y008960D01*
X013705Y008344D01*
X013705Y007983D01*
X013983Y007705D01*
X014377Y007705D01*
X014655Y007983D01*
X014655Y008377D01*
X014655Y008288D02*
X014705Y008288D01*
X014705Y008130D02*
X014655Y008130D01*
X014642Y007971D02*
X014718Y007971D01*
X014876Y007813D02*
X014484Y007813D01*
X014180Y008180D02*
X013180Y009180D01*
X012180Y009180D01*
X011680Y009680D01*
X011680Y010680D01*
X012080Y010666D02*
X012280Y010666D01*
X012280Y010824D02*
X012080Y010824D01*
X012080Y010983D02*
X012280Y010983D01*
X012330Y011141D02*
X012030Y011141D01*
X011857Y011300D02*
X012503Y011300D01*
X012280Y010507D02*
X012080Y010507D01*
X012080Y010349D02*
X012280Y010349D01*
X012344Y010190D02*
X012016Y010190D01*
X011900Y010032D02*
X012460Y010032D01*
X012460Y009873D02*
X011900Y009873D01*
X011957Y009715D02*
X012460Y009715D01*
X012493Y009556D02*
X012115Y009556D01*
X011651Y009398D02*
X011274Y009398D01*
X011115Y009556D02*
X011493Y009556D01*
X011460Y009715D02*
X010957Y009715D01*
X010900Y009873D02*
X011460Y009873D01*
X011460Y010032D02*
X010900Y010032D01*
X011016Y010190D02*
X011344Y010190D01*
X011280Y010349D02*
X011080Y010349D01*
X011080Y010507D02*
X011280Y010507D01*
X011280Y010666D02*
X011080Y010666D01*
X011080Y010824D02*
X011280Y010824D01*
X011280Y010983D02*
X011080Y010983D01*
X011030Y011141D02*
X011330Y011141D01*
X011503Y011300D02*
X010857Y011300D01*
X010680Y010680D02*
X010680Y009680D01*
X012180Y008180D01*
X013180Y008180D01*
X013484Y007813D02*
X013876Y007813D01*
X013718Y007971D02*
X013642Y007971D01*
X013655Y008130D02*
X013705Y008130D01*
X013705Y008288D02*
X013655Y008288D01*
X013602Y008447D02*
X013585Y008447D01*
X013444Y008605D02*
X013426Y008605D01*
X013285Y008764D02*
X011908Y008764D01*
X011749Y008922D02*
X013127Y008922D01*
X012934Y008605D02*
X012066Y008605D01*
X012225Y008447D02*
X012775Y008447D01*
X012876Y007813D02*
X009400Y007813D01*
X009400Y007971D02*
X012078Y007971D01*
X011919Y008130D02*
X009400Y008130D01*
X009400Y008288D02*
X011761Y008288D01*
X011602Y008447D02*
X009400Y008447D01*
X009400Y008605D02*
X011444Y008605D01*
X011285Y008764D02*
X009400Y008764D01*
X009400Y008922D02*
X011127Y008922D01*
X010968Y009081D02*
X009400Y009081D01*
X009400Y009239D02*
X010810Y009239D01*
X010651Y009398D02*
X009400Y009398D01*
X009400Y009556D02*
X010493Y009556D01*
X010460Y009715D02*
X009400Y009715D01*
X009400Y009873D02*
X010460Y009873D01*
X010460Y010032D02*
X009787Y010032D01*
X009573Y010032D02*
X009400Y010032D01*
X010016Y010190D02*
X010344Y010190D01*
X010280Y010349D02*
X010080Y010349D01*
X010080Y010507D02*
X010280Y010507D01*
X009180Y011180D02*
X010180Y012180D01*
X012180Y012180D01*
X012680Y012680D01*
X012098Y012409D02*
X010220Y012409D01*
X010354Y013043D02*
X010545Y013043D01*
X010207Y013519D02*
X010080Y013519D01*
X009280Y013677D02*
X006420Y013677D01*
X006420Y013592D02*
X006420Y013768D01*
X006353Y013929D01*
X006229Y014053D01*
X006068Y014120D01*
X005292Y014120D01*
X005131Y014053D01*
X005007Y013929D01*
X004940Y013768D01*
X004940Y013592D01*
X005007Y013431D01*
X005131Y013307D01*
X005292Y013240D01*
X006068Y013240D01*
X006229Y013307D01*
X006353Y013431D01*
X006420Y013592D01*
X006389Y013519D02*
X009207Y013519D01*
X009049Y013360D02*
X006282Y013360D01*
X006164Y013125D02*
X006092Y013148D01*
X006018Y013160D01*
X005700Y013160D01*
X005700Y012700D01*
X005660Y012700D01*
X005660Y013160D01*
X005342Y013160D01*
X005268Y013148D01*
X005196Y013125D01*
X005128Y013091D01*
X005067Y013046D01*
X005014Y012993D01*
X004969Y012932D01*
X004935Y012864D01*
X004912Y012792D01*
X004900Y012718D01*
X004900Y012700D01*
X005660Y012700D01*
X005660Y012660D01*
X005700Y012660D01*
X005700Y012700D01*
X006460Y012700D01*
X006460Y012718D01*
X006448Y012792D01*
X006425Y012864D01*
X006391Y012932D01*
X006346Y012993D01*
X006293Y013046D01*
X006232Y013091D01*
X006164Y013125D01*
X006296Y013043D02*
X008960Y013043D01*
X008960Y012885D02*
X006415Y012885D01*
X006459Y012726D02*
X008915Y012726D01*
X008756Y012568D02*
X006448Y012568D01*
X006460Y012642D01*
X006460Y012660D01*
X005700Y012660D01*
X005700Y012200D01*
X006018Y012200D01*
X006092Y012212D01*
X006164Y012235D01*
X006232Y012269D01*
X006293Y012314D01*
X006346Y012367D01*
X006391Y012428D01*
X006425Y012496D01*
X006448Y012568D01*
X006376Y012409D02*
X008598Y012409D01*
X008439Y012251D02*
X006194Y012251D01*
X005700Y012251D02*
X005660Y012251D01*
X005660Y012200D02*
X005342Y012200D01*
X005268Y012212D01*
X005196Y012235D01*
X005128Y012269D01*
X005067Y012314D01*
X005014Y012367D01*
X004969Y012428D01*
X004935Y012496D01*
X004912Y012568D01*
X004900Y012642D01*
X004900Y012660D01*
X005660Y012660D01*
X005660Y012200D01*
X005660Y012409D02*
X005700Y012409D01*
X005700Y012568D02*
X005660Y012568D01*
X005660Y012726D02*
X005700Y012726D01*
X005700Y012885D02*
X005660Y012885D01*
X005660Y013043D02*
X005700Y013043D01*
X005064Y013043D02*
X001360Y013043D01*
X001360Y012885D02*
X004945Y012885D01*
X004901Y012726D02*
X001360Y012726D01*
X001360Y012568D02*
X004912Y012568D01*
X004984Y012409D02*
X001360Y012409D01*
X001360Y012251D02*
X005166Y012251D01*
X005078Y013360D02*
X001360Y013360D01*
X001360Y013202D02*
X008960Y013202D01*
X009280Y013836D02*
X006392Y013836D01*
X006288Y013994D02*
X009280Y013994D01*
X008281Y012092D02*
X001360Y012092D01*
X001360Y011934D02*
X008122Y011934D01*
X007964Y011775D02*
X001360Y011775D01*
X001360Y011617D02*
X007805Y011617D01*
X007647Y011458D02*
X001360Y011458D01*
X001360Y011300D02*
X007488Y011300D01*
X007460Y011141D02*
X001360Y011141D01*
X001360Y010983D02*
X002091Y010983D01*
X002111Y011002D02*
X001968Y010859D01*
X001890Y010671D01*
X001890Y010469D01*
X001968Y010281D01*
X002111Y010138D01*
X002299Y010060D01*
X002501Y010060D01*
X002689Y010138D01*
X002832Y010281D01*
X002861Y010350D01*
X004499Y010350D01*
X004528Y010281D01*
X004671Y010138D01*
X004859Y010060D01*
X005061Y010060D01*
X005249Y010138D01*
X005392Y010281D01*
X005470Y010469D01*
X005470Y010671D01*
X005392Y010859D01*
X005249Y011002D01*
X005061Y011080D01*
X004859Y011080D01*
X004671Y011002D01*
X004528Y010859D01*
X004499Y010790D01*
X002861Y010790D01*
X002832Y010859D01*
X002689Y011002D01*
X002501Y011080D01*
X002299Y011080D01*
X002111Y011002D01*
X001953Y010824D02*
X001360Y010824D01*
X001360Y010666D02*
X001890Y010666D01*
X001890Y010507D02*
X001360Y010507D01*
X001360Y010349D02*
X001940Y010349D01*
X002059Y010190D02*
X001360Y010190D01*
X001360Y010032D02*
X007460Y010032D01*
X007460Y010190D02*
X005301Y010190D01*
X005420Y010349D02*
X007460Y010349D01*
X007460Y010507D02*
X005470Y010507D01*
X005470Y010666D02*
X007460Y010666D01*
X007460Y010824D02*
X005407Y010824D01*
X005269Y010983D02*
X007460Y010983D01*
X007460Y009873D02*
X001360Y009873D01*
X001360Y009715D02*
X007460Y009715D01*
X007460Y009556D02*
X001360Y009556D01*
X001360Y009398D02*
X007460Y009398D01*
X007460Y009239D02*
X005278Y009239D01*
X005248Y009260D02*
X005318Y009210D01*
X005380Y009148D01*
X005430Y009078D01*
X005470Y009001D01*
X005496Y008919D01*
X005510Y008833D01*
X005510Y008810D01*
X004980Y008810D01*
X004980Y008770D01*
X005510Y008770D01*
X005510Y008747D01*
X005496Y008661D01*
X005470Y008579D01*
X005430Y008502D01*
X005380Y008432D01*
X005318Y008370D01*
X005248Y008320D01*
X005171Y008280D01*
X005089Y008254D01*
X005003Y008240D01*
X004980Y008240D01*
X004980Y008770D01*
X004940Y008770D01*
X004940Y008240D01*
X004917Y008240D01*
X004831Y008254D01*
X004749Y008280D01*
X004672Y008320D01*
X004602Y008370D01*
X004540Y008432D01*
X004490Y008502D01*
X004450Y008579D01*
X004424Y008661D01*
X004410Y008747D01*
X004410Y008770D01*
X004940Y008770D01*
X004940Y008810D01*
X004940Y009340D01*
X004917Y009340D01*
X004831Y009326D01*
X004749Y009300D01*
X004672Y009260D01*
X004602Y009210D01*
X004540Y009148D01*
X004490Y009078D01*
X004450Y009001D01*
X004424Y008919D01*
X004410Y008833D01*
X004410Y008810D01*
X004940Y008810D01*
X004980Y008810D01*
X004980Y009340D01*
X005003Y009340D01*
X005089Y009326D01*
X005171Y009300D01*
X005248Y009260D01*
X005429Y009081D02*
X007460Y009081D01*
X007460Y008922D02*
X005495Y008922D01*
X005510Y008764D02*
X007460Y008764D01*
X007460Y008605D02*
X005478Y008605D01*
X005390Y008447D02*
X007460Y008447D01*
X007460Y008288D02*
X005186Y008288D01*
X004980Y008288D02*
X004940Y008288D01*
X004940Y008447D02*
X004980Y008447D01*
X004980Y008605D02*
X004940Y008605D01*
X004940Y008764D02*
X004980Y008764D01*
X004980Y008922D02*
X004940Y008922D01*
X004940Y009081D02*
X004980Y009081D01*
X004980Y009239D02*
X004940Y009239D01*
X004642Y009239D02*
X002718Y009239D01*
X002688Y009260D02*
X002758Y009210D01*
X002820Y009148D01*
X002870Y009078D01*
X002910Y009001D01*
X002936Y008919D01*
X002950Y008833D01*
X002950Y008810D01*
X002420Y008810D01*
X002420Y008770D01*
X002950Y008770D01*
X002950Y008747D01*
X002936Y008661D01*
X002910Y008579D01*
X002870Y008502D01*
X002820Y008432D01*
X002758Y008370D01*
X002688Y008320D01*
X002611Y008280D01*
X002529Y008254D01*
X002443Y008240D01*
X002420Y008240D01*
X002420Y008770D01*
X002380Y008770D01*
X002380Y008240D01*
X002357Y008240D01*
X002271Y008254D01*
X002189Y008280D01*
X002112Y008320D01*
X002042Y008370D01*
X001980Y008432D01*
X001930Y008502D01*
X001890Y008579D01*
X001864Y008661D01*
X001850Y008747D01*
X001850Y008770D01*
X002380Y008770D01*
X002380Y008810D01*
X002380Y009340D01*
X002357Y009340D01*
X002271Y009326D01*
X002189Y009300D01*
X002112Y009260D01*
X002042Y009210D01*
X001980Y009148D01*
X001930Y009078D01*
X001890Y009001D01*
X001864Y008919D01*
X001850Y008833D01*
X001850Y008810D01*
X002380Y008810D01*
X002420Y008810D01*
X002420Y009340D01*
X002443Y009340D01*
X002529Y009326D01*
X002611Y009300D01*
X002688Y009260D01*
X002869Y009081D02*
X004491Y009081D01*
X004425Y008922D02*
X002935Y008922D01*
X002950Y008764D02*
X004410Y008764D01*
X004442Y008605D02*
X002918Y008605D01*
X002830Y008447D02*
X004530Y008447D01*
X004734Y008288D02*
X002626Y008288D01*
X002420Y008288D02*
X002380Y008288D01*
X002380Y008447D02*
X002420Y008447D01*
X002420Y008605D02*
X002380Y008605D01*
X002380Y008764D02*
X002420Y008764D01*
X002420Y008922D02*
X002380Y008922D01*
X002380Y009081D02*
X002420Y009081D01*
X002420Y009239D02*
X002380Y009239D01*
X002082Y009239D02*
X001360Y009239D01*
X001360Y009081D02*
X001931Y009081D01*
X001865Y008922D02*
X001360Y008922D01*
X001360Y008764D02*
X001850Y008764D01*
X001882Y008605D02*
X001360Y008605D01*
X001360Y008447D02*
X001970Y008447D01*
X002174Y008288D02*
X001360Y008288D01*
X001360Y008130D02*
X007460Y008130D01*
X007460Y007971D02*
X001360Y007971D01*
X001360Y007813D02*
X007460Y007813D01*
X007460Y007654D02*
X001360Y007654D01*
X001360Y007496D02*
X002104Y007496D01*
X002111Y007502D02*
X001968Y007359D01*
X001890Y007171D01*
X001890Y006969D01*
X001968Y006781D01*
X002111Y006638D01*
X002299Y006560D01*
X002501Y006560D01*
X002689Y006638D01*
X002832Y006781D01*
X002861Y006850D01*
X004499Y006850D01*
X004528Y006781D01*
X004671Y006638D01*
X004859Y006560D01*
X005061Y006560D01*
X005249Y006638D01*
X005392Y006781D01*
X005470Y006969D01*
X005470Y007171D01*
X005392Y007359D01*
X005249Y007502D01*
X005061Y007580D01*
X004859Y007580D01*
X004671Y007502D01*
X004528Y007359D01*
X004499Y007290D01*
X002861Y007290D01*
X002832Y007359D01*
X002689Y007502D01*
X002501Y007580D01*
X002299Y007580D01*
X002111Y007502D01*
X001959Y007337D02*
X001360Y007337D01*
X001360Y007179D02*
X001893Y007179D01*
X001890Y007020D02*
X001360Y007020D01*
X001360Y006862D02*
X001934Y006862D01*
X002046Y006703D02*
X001360Y006703D01*
X001360Y006545D02*
X007460Y006545D01*
X007460Y006703D02*
X005314Y006703D01*
X005426Y006862D02*
X007460Y006862D01*
X007460Y007020D02*
X005470Y007020D01*
X005467Y007179D02*
X007460Y007179D01*
X007460Y007337D02*
X005401Y007337D01*
X005256Y007496D02*
X007460Y007496D01*
X007460Y006386D02*
X001360Y006386D01*
X001360Y006228D02*
X007460Y006228D01*
X007460Y006069D02*
X001360Y006069D01*
X001360Y005911D02*
X007460Y005911D01*
X007460Y005752D02*
X005260Y005752D01*
X005248Y005760D02*
X005171Y005800D01*
X005089Y005826D01*
X005003Y005840D01*
X004980Y005840D01*
X004980Y005310D01*
X005510Y005310D01*
X005510Y005333D01*
X005496Y005419D01*
X005470Y005501D01*
X005430Y005578D01*
X005380Y005648D01*
X005318Y005710D01*
X005248Y005760D01*
X005419Y005594D02*
X007460Y005594D01*
X007460Y005435D02*
X005491Y005435D01*
X005510Y005270D02*
X004980Y005270D01*
X004980Y005310D01*
X004940Y005310D01*
X004940Y005840D01*
X004917Y005840D01*
X004831Y005826D01*
X004749Y005800D01*
X004672Y005760D01*
X004602Y005710D01*
X004540Y005648D01*
X004490Y005578D01*
X004450Y005501D01*
X004424Y005419D01*
X004410Y005333D01*
X004410Y005310D01*
X004940Y005310D01*
X004940Y005270D01*
X004980Y005270D01*
X004980Y004740D01*
X005003Y004740D01*
X005089Y004754D01*
X005171Y004780D01*
X005248Y004820D01*
X005318Y004870D01*
X005380Y004932D01*
X005430Y005002D01*
X005470Y005079D01*
X005496Y005161D01*
X005510Y005247D01*
X005510Y005270D01*
X005482Y005118D02*
X007460Y005118D01*
X007460Y004960D02*
X005400Y004960D01*
X005212Y004801D02*
X007460Y004801D01*
X007460Y004643D02*
X001360Y004643D01*
X001360Y004801D02*
X002148Y004801D01*
X002112Y004820D02*
X002189Y004780D01*
X002271Y004754D01*
X002357Y004740D01*
X002380Y004740D01*
X002380Y005270D01*
X002420Y005270D01*
X002420Y005310D01*
X002950Y005310D01*
X002950Y005333D01*
X002936Y005419D01*
X002910Y005501D01*
X002870Y005578D01*
X002820Y005648D01*
X002758Y005710D01*
X002688Y005760D01*
X002611Y005800D01*
X002529Y005826D01*
X002443Y005840D01*
X002420Y005840D01*
X002420Y005310D01*
X002380Y005310D01*
X002380Y005840D01*
X002357Y005840D01*
X002271Y005826D01*
X002189Y005800D01*
X002112Y005760D01*
X002042Y005710D01*
X001980Y005648D01*
X001930Y005578D01*
X001890Y005501D01*
X001864Y005419D01*
X001850Y005333D01*
X001850Y005310D01*
X002380Y005310D01*
X002380Y005270D01*
X001850Y005270D01*
X001850Y005247D01*
X001864Y005161D01*
X001890Y005079D01*
X001930Y005002D01*
X001980Y004932D01*
X002042Y004870D01*
X002112Y004820D01*
X001960Y004960D02*
X001360Y004960D01*
X001360Y005118D02*
X001878Y005118D01*
X001869Y005435D02*
X001360Y005435D01*
X001360Y005277D02*
X002380Y005277D01*
X002420Y005277D02*
X004940Y005277D01*
X004940Y005270D02*
X004410Y005270D01*
X004410Y005247D01*
X004424Y005161D01*
X004450Y005079D01*
X004490Y005002D01*
X004540Y004932D01*
X004602Y004870D01*
X004672Y004820D01*
X004749Y004780D01*
X004831Y004754D01*
X004917Y004740D01*
X004940Y004740D01*
X004940Y005270D01*
X004980Y005277D02*
X007460Y005277D01*
X007565Y004484D02*
X001360Y004484D01*
X001360Y004326D02*
X007723Y004326D01*
X007882Y004167D02*
X003841Y004167D01*
X004115Y004009D02*
X008040Y004009D01*
X008199Y003850D02*
X004300Y003850D01*
X004447Y003692D02*
X008357Y003692D01*
X008516Y003533D02*
X004566Y003533D01*
X004643Y003375D02*
X008674Y003375D01*
X008833Y003216D02*
X004719Y003216D01*
X004767Y003058D02*
X008991Y003058D01*
X009150Y002899D02*
X004791Y002899D01*
X004815Y002741D02*
X009308Y002741D01*
X009467Y002582D02*
X004818Y002582D01*
X004324Y001473D02*
X027862Y001473D01*
X028498Y001473D02*
X031486Y001473D01*
X031445Y001506D02*
X031836Y001194D01*
X032302Y001011D01*
X032302Y001011D01*
X031933Y001156D02*
X003885Y001156D01*
X004160Y001314D02*
X031685Y001314D01*
X031836Y001194D02*
X031836Y001194D01*
X031445Y001506D02*
X031445Y001506D01*
X031445Y001506D01*
X031162Y001920D01*
X031162Y001920D01*
X031015Y002398D01*
X031015Y002899D01*
X031015Y002741D02*
X029070Y002741D01*
X029135Y002582D02*
X031015Y002582D01*
X031015Y002424D02*
X029140Y002424D01*
X029140Y002265D02*
X031056Y002265D01*
X031105Y002107D02*
X029106Y002107D01*
X029040Y001948D02*
X031154Y001948D01*
X031251Y001790D02*
X028947Y001790D01*
X028789Y001631D02*
X031359Y001631D01*
X032802Y000973D02*
X032802Y000973D01*
X032906Y000997D02*
X033318Y000997D01*
X033290Y001085D02*
X033290Y001085D01*
X033413Y001156D02*
X033634Y001156D01*
X033687Y001314D02*
X033832Y001314D01*
X033724Y001335D02*
X033724Y001335D01*
X033851Y001473D02*
X033995Y001473D01*
X033998Y001631D02*
X034121Y001631D01*
X034064Y001702D02*
X034064Y001702D01*
X034106Y001790D02*
X034223Y001790D01*
X034183Y001948D02*
X034299Y001948D01*
X034259Y002107D02*
X034369Y002107D01*
X034405Y002265D02*
X034298Y002265D01*
X034322Y002424D02*
X034441Y002424D01*
X034459Y002582D02*
X034346Y002582D01*
X034342Y002741D02*
X034465Y002741D01*
X034465Y002899D02*
X034318Y002899D01*
X034294Y003058D02*
X034465Y003058D01*
X034465Y003216D02*
X034247Y003216D01*
X034281Y003144D02*
X034281Y003144D01*
X034170Y003375D02*
X034465Y003375D01*
X034465Y003533D02*
X034094Y003533D01*
X034064Y003595D02*
X034064Y003595D01*
X033974Y003692D02*
X034465Y003692D01*
X034465Y003850D02*
X033827Y003850D01*
X033643Y004009D02*
X034465Y004009D01*
X034465Y004167D02*
X033368Y004167D01*
X033290Y004212D02*
X033290Y004212D01*
X032802Y004324D02*
X032802Y004324D01*
X032302Y004286D02*
X032302Y004286D01*
X032430Y005240D02*
X032135Y005240D01*
X032067Y005251D01*
X032001Y005272D01*
X031939Y005304D01*
X031883Y005344D01*
X031834Y005393D01*
X031794Y005449D01*
X031762Y005511D01*
X031741Y005577D01*
X031730Y005645D01*
X031730Y005680D01*
X032430Y005680D01*
X032430Y005680D01*
X032430Y006120D01*
X032725Y006120D01*
X032793Y006109D01*
X032859Y006088D01*
X032921Y006056D01*
X032977Y006016D01*
X033026Y005967D01*
X033066Y005911D01*
X033098Y005849D01*
X033119Y005783D01*
X033130Y005715D01*
X033130Y005680D01*
X032430Y005680D01*
X032430Y005680D01*
X032430Y005240D01*
X032725Y005240D01*
X032793Y005251D01*
X032859Y005272D01*
X032921Y005304D01*
X032977Y005344D01*
X033026Y005393D01*
X033066Y005449D01*
X033098Y005511D01*
X033119Y005577D01*
X033130Y005645D01*
X033130Y005680D01*
X032430Y005680D01*
X032430Y005680D01*
X032430Y005680D01*
X032430Y006120D01*
X032135Y006120D01*
X032067Y006109D01*
X032001Y006088D01*
X031939Y006056D01*
X031883Y006016D01*
X031834Y005967D01*
X031794Y005911D01*
X031762Y005849D01*
X031741Y005783D01*
X031730Y005715D01*
X031730Y005680D01*
X032430Y005680D01*
X032430Y005240D01*
X032430Y005277D02*
X032430Y005277D01*
X032430Y005435D02*
X032430Y005435D01*
X032430Y005594D02*
X032430Y005594D01*
X032430Y005752D02*
X032430Y005752D01*
X032430Y005911D02*
X032430Y005911D01*
X032430Y006069D02*
X032430Y006069D01*
X032090Y006280D02*
X032770Y006280D01*
X032917Y006341D01*
X033029Y006453D01*
X033090Y006600D01*
X033090Y006760D01*
X033029Y006907D01*
X032917Y007019D01*
X032770Y007080D01*
X032090Y007080D01*
X031943Y007019D01*
X031831Y006907D01*
X031770Y006760D01*
X031770Y006600D01*
X031831Y006453D01*
X031943Y006341D01*
X032090Y006280D01*
X031898Y006386D02*
X021400Y006386D01*
X021400Y006228D02*
X034465Y006228D01*
X034465Y006386D02*
X032962Y006386D01*
X033067Y006545D02*
X034465Y006545D01*
X034465Y006703D02*
X033090Y006703D01*
X033048Y006862D02*
X034465Y006862D01*
X034465Y007020D02*
X032914Y007020D01*
X032770Y007280D02*
X032917Y007341D01*
X033029Y007453D01*
X033090Y007600D01*
X033090Y007760D01*
X033029Y007907D01*
X032917Y008019D01*
X032770Y008080D01*
X032090Y008080D01*
X031943Y008019D01*
X031894Y007970D01*
X027800Y007970D01*
X027470Y008300D01*
X027470Y008708D01*
X027532Y008770D01*
X027595Y008922D01*
X027732Y008922D01*
X027736Y008898D02*
X027758Y008830D01*
X027791Y008767D01*
X027833Y008709D01*
X027884Y008658D01*
X027942Y008616D01*
X028005Y008583D01*
X028073Y008561D01*
X028144Y008550D01*
X028172Y008550D01*
X028172Y009272D01*
X027725Y009272D01*
X027725Y008969D01*
X027736Y008898D01*
X027595Y008922D02*
X027595Y009638D01*
X027532Y009790D01*
X027415Y009907D01*
X027263Y009970D01*
X027097Y009970D01*
X026945Y009907D01*
X026828Y009790D01*
X026765Y009638D01*
X026765Y009417D01*
X026668Y009320D01*
X025092Y009320D01*
X024820Y009592D01*
X024820Y009599D01*
X024930Y009709D01*
X025219Y009420D01*
X025641Y009420D01*
X025940Y009719D01*
X025940Y010141D01*
X025651Y010430D01*
X025940Y010719D01*
X025940Y011141D01*
X028308Y011141D01*
X028262Y011222D02*
X028404Y010974D01*
X028606Y010773D01*
X028790Y010666D01*
X025887Y010666D01*
X025940Y010824D02*
X028555Y010824D01*
X028400Y010983D02*
X025940Y010983D01*
X025940Y011141D02*
X025651Y011430D01*
X025940Y011719D01*
X025940Y012141D01*
X025641Y012440D01*
X025219Y012440D01*
X024958Y012180D01*
X024658Y012480D01*
X024450Y012480D01*
X024450Y011950D01*
X024410Y011950D01*
X024410Y012480D01*
X024202Y012480D01*
X023880Y012158D01*
X023880Y011950D01*
X024410Y011950D01*
X024410Y011910D01*
X023880Y011910D01*
X023880Y011702D01*
X024180Y011402D01*
X023920Y011141D01*
X023650Y011141D01*
X023650Y010983D02*
X023920Y010983D01*
X023920Y011141D02*
X023920Y010719D01*
X024209Y010430D01*
X023920Y010141D01*
X023920Y009719D01*
X024040Y009599D01*
X024040Y009352D01*
X024099Y009209D01*
X024599Y008709D01*
X024709Y008599D01*
X024852Y008540D01*
X026890Y008540D01*
X026890Y008122D01*
X026934Y008016D01*
X027016Y007934D01*
X027516Y007434D01*
X027622Y007390D01*
X031894Y007390D01*
X031943Y007341D01*
X032090Y007280D01*
X032770Y007280D01*
X032907Y007337D02*
X034465Y007337D01*
X034465Y007179D02*
X021400Y007179D01*
X021400Y007337D02*
X031953Y007337D01*
X031946Y007020D02*
X021400Y007020D01*
X021400Y006862D02*
X031812Y006862D01*
X031770Y006703D02*
X021400Y006703D01*
X021400Y006545D02*
X031793Y006545D01*
X031964Y006069D02*
X021400Y006069D01*
X021400Y005911D02*
X031794Y005911D01*
X031736Y005752D02*
X029954Y005752D01*
X029960Y005594D02*
X031738Y005594D01*
X031804Y005435D02*
X029960Y005435D01*
X029960Y005277D02*
X031993Y005277D01*
X032867Y005277D02*
X034465Y005277D01*
X034465Y005435D02*
X033056Y005435D01*
X033122Y005594D02*
X034465Y005594D01*
X034465Y005752D02*
X033124Y005752D01*
X033066Y005911D02*
X034465Y005911D01*
X034465Y006069D02*
X032896Y006069D01*
X034465Y005118D02*
X029960Y005118D01*
X029960Y004960D02*
X034465Y004960D01*
X034465Y004801D02*
X029960Y004801D01*
X029960Y004643D02*
X034465Y004643D01*
X034465Y007496D02*
X033047Y007496D01*
X033090Y007654D02*
X034465Y007654D01*
X034465Y007813D02*
X033068Y007813D01*
X032965Y007971D02*
X034465Y007971D01*
X034465Y008130D02*
X027641Y008130D01*
X027482Y008288D02*
X034465Y008288D01*
X034465Y008447D02*
X027470Y008447D01*
X027470Y008605D02*
X027963Y008605D01*
X028172Y008605D02*
X028188Y008605D01*
X028188Y008550D02*
X028216Y008550D01*
X028287Y008561D01*
X028355Y008583D01*
X028418Y008616D01*
X028476Y008658D01*
X028527Y008709D01*
X028569Y008767D01*
X028602Y008830D01*
X028624Y008898D01*
X028635Y008969D01*
X028635Y009272D01*
X028188Y009272D01*
X028188Y009288D01*
X028172Y009288D01*
X028172Y010010D01*
X028144Y010010D01*
X028073Y009999D01*
X028005Y009977D01*
X027942Y009944D01*
X027884Y009902D01*
X027833Y009851D01*
X027791Y009793D01*
X027758Y009730D01*
X027736Y009662D01*
X027725Y009591D01*
X027725Y009288D01*
X028172Y009288D01*
X028172Y009272D01*
X028188Y009272D01*
X028188Y008550D01*
X028172Y008764D02*
X028188Y008764D01*
X028172Y008922D02*
X028188Y008922D01*
X028172Y009081D02*
X028188Y009081D01*
X028172Y009239D02*
X028188Y009239D01*
X028188Y009288D02*
X028635Y009288D01*
X028635Y009591D01*
X028624Y009662D01*
X028602Y009730D01*
X028569Y009793D01*
X028527Y009851D01*
X028476Y009902D01*
X028418Y009944D01*
X028355Y009977D01*
X028287Y009999D01*
X028216Y010010D01*
X028188Y010010D01*
X028188Y009288D01*
X028188Y009398D02*
X028172Y009398D01*
X028172Y009556D02*
X028188Y009556D01*
X028172Y009715D02*
X028188Y009715D01*
X028172Y009873D02*
X028188Y009873D01*
X028505Y009873D02*
X028790Y009873D01*
X028790Y009715D02*
X028607Y009715D01*
X028635Y009556D02*
X028765Y009556D01*
X028765Y009638D02*
X028765Y008922D01*
X028628Y008922D01*
X028765Y008922D02*
X028828Y008770D01*
X028945Y008653D01*
X029097Y008590D01*
X029263Y008590D01*
X029415Y008653D01*
X029532Y008770D01*
X029582Y008890D01*
X029812Y008890D01*
X029917Y008786D01*
X030088Y008715D01*
X030272Y008715D01*
X030443Y008786D01*
X030574Y008917D01*
X030645Y009088D01*
X030645Y009272D01*
X030574Y009443D01*
X030443Y009574D01*
X030272Y009645D01*
X030218Y009645D01*
X030158Y009670D01*
X029582Y009670D01*
X029570Y009698D01*
X029570Y010597D01*
X029691Y010630D01*
X029939Y010773D01*
X030141Y010974D01*
X030283Y011222D01*
X030357Y011498D01*
X030357Y011783D01*
X030283Y012059D01*
X030141Y012307D01*
X029974Y012474D01*
X030022Y012450D01*
X030142Y012408D01*
X030265Y012380D01*
X030374Y012368D01*
X030374Y013411D01*
X030534Y013411D01*
X030534Y013571D01*
X031577Y013571D01*
X031564Y013680D01*
X031536Y013803D01*
X031495Y013922D01*
X031440Y014036D01*
X031372Y014143D01*
X031294Y014242D01*
X031204Y014331D01*
X031106Y014410D01*
X030999Y014477D01*
X030885Y014532D01*
X030766Y014574D01*
X030642Y014602D01*
X030534Y014614D01*
X030534Y013571D01*
X030374Y013571D01*
X030374Y014614D01*
X030265Y014602D01*
X030142Y014574D01*
X030022Y014532D01*
X029909Y014477D01*
X029802Y014410D01*
X029703Y014331D01*
X029614Y014242D01*
X029535Y014143D01*
X029468Y014036D01*
X029413Y013922D01*
X029371Y013803D01*
X029343Y013680D01*
X029331Y013571D01*
X030374Y013571D01*
X030374Y013411D01*
X029331Y013411D01*
X029343Y013302D01*
X029371Y013179D01*
X029413Y013060D01*
X029468Y012946D01*
X029535Y012839D01*
X029614Y012740D01*
X029703Y012651D01*
X029730Y012629D01*
X029691Y012652D01*
X029415Y012726D01*
X029130Y012726D01*
X028854Y012652D01*
X028606Y012509D01*
X028404Y012307D01*
X028262Y012059D01*
X028188Y011783D01*
X028188Y011498D01*
X028262Y011222D01*
X028241Y011300D02*
X025782Y011300D01*
X025679Y011458D02*
X028198Y011458D01*
X028188Y011617D02*
X025838Y011617D01*
X025940Y011775D02*
X028188Y011775D01*
X028228Y011934D02*
X025940Y011934D01*
X025940Y012092D02*
X028280Y012092D01*
X028372Y012251D02*
X025831Y012251D01*
X025672Y012409D02*
X028507Y012409D01*
X028708Y012568D02*
X023650Y012568D01*
X023650Y012726D02*
X026536Y012726D01*
X026547Y012715D02*
X026465Y012797D01*
X026465Y013563D01*
X026547Y013645D01*
X027313Y013645D01*
X027395Y013563D01*
X027395Y012797D01*
X027313Y012715D01*
X026547Y012715D01*
X026465Y012885D02*
X023650Y012885D01*
X023650Y013043D02*
X026465Y013043D01*
X026465Y013202D02*
X023650Y013202D01*
X023650Y013360D02*
X026465Y013360D01*
X026465Y013519D02*
X023650Y013519D01*
X023650Y013677D02*
X027840Y013677D01*
X027812Y013673D02*
X027736Y013648D01*
X027665Y013612D01*
X027601Y013565D01*
X027545Y013509D01*
X027498Y013445D01*
X027462Y013374D01*
X027437Y013298D01*
X027425Y013220D01*
X027425Y013180D01*
X027930Y013180D01*
X028435Y013180D01*
X028435Y013220D01*
X028423Y013298D01*
X028398Y013374D01*
X028362Y013445D01*
X028315Y013509D01*
X028259Y013565D01*
X028195Y013612D01*
X028124Y013648D01*
X028048Y013673D01*
X027970Y013685D01*
X027930Y013685D01*
X027930Y013180D01*
X027930Y013180D01*
X027930Y013180D01*
X028435Y013180D01*
X028435Y013140D01*
X028423Y013062D01*
X028398Y012986D01*
X028362Y012915D01*
X028315Y012851D01*
X028259Y012795D01*
X028195Y012748D01*
X028124Y012712D01*
X028048Y012687D01*
X027970Y012675D01*
X027930Y012675D01*
X027930Y013180D01*
X027930Y013180D01*
X027930Y013180D01*
X027930Y013685D01*
X027890Y013685D01*
X027812Y013673D01*
X027930Y013677D02*
X027930Y013677D01*
X028020Y013677D02*
X029343Y013677D01*
X029382Y013836D02*
X023650Y013836D01*
X023650Y013994D02*
X029447Y013994D01*
X029542Y014153D02*
X023519Y014153D01*
X023360Y014311D02*
X029683Y014311D01*
X029897Y014470D02*
X023202Y014470D01*
X023043Y014628D02*
X034465Y014628D01*
X034465Y014470D02*
X031011Y014470D01*
X031224Y014311D02*
X034465Y014311D01*
X034465Y014153D02*
X031365Y014153D01*
X031460Y013994D02*
X034465Y013994D01*
X034465Y013836D02*
X031525Y013836D01*
X031565Y013677D02*
X034465Y013677D01*
X034465Y013519D02*
X030534Y013519D01*
X030534Y013411D02*
X031577Y013411D01*
X031564Y013302D01*
X031536Y013179D01*
X031495Y013060D01*
X031440Y012946D01*
X031372Y012839D01*
X031294Y012740D01*
X031273Y012720D01*
X031283Y012723D01*
X031407Y012751D01*
X031515Y012764D01*
X031515Y011721D01*
X031675Y011721D01*
X031675Y012764D01*
X031784Y012751D01*
X031907Y012723D01*
X032027Y012682D01*
X032140Y012627D01*
X032247Y012559D01*
X032346Y012481D01*
X032435Y012391D01*
X032514Y012293D01*
X032581Y012186D01*
X032636Y012072D01*
X032678Y011953D01*
X032706Y011829D01*
X032718Y011721D01*
X031675Y011721D01*
X031675Y011561D01*
X031675Y010518D01*
X031784Y010530D01*
X031907Y010558D01*
X032027Y010600D01*
X032140Y010655D01*
X032247Y010722D01*
X032346Y010801D01*
X032435Y010890D01*
X032514Y010989D01*
X032581Y011096D01*
X032636Y011209D01*
X032678Y011329D01*
X032706Y011452D01*
X032718Y011561D01*
X031675Y011561D01*
X031515Y011561D01*
X030472Y011561D01*
X030485Y011452D01*
X030513Y011329D01*
X030554Y011209D01*
X030609Y011096D01*
X030676Y010989D01*
X030755Y010890D01*
X030845Y010801D01*
X030943Y010722D01*
X031050Y010655D01*
X031164Y010600D01*
X031283Y010558D01*
X031407Y010530D01*
X031515Y010518D01*
X031515Y011561D01*
X031515Y011721D01*
X030472Y011721D01*
X030485Y011829D01*
X030513Y011953D01*
X030554Y012072D01*
X030609Y012186D01*
X030676Y012293D01*
X030755Y012391D01*
X030776Y012412D01*
X030766Y012408D01*
X030642Y012380D01*
X030534Y012368D01*
X030534Y013411D01*
X030534Y013360D02*
X030374Y013360D01*
X030374Y013202D02*
X030534Y013202D01*
X030534Y013043D02*
X030374Y013043D01*
X030374Y012885D02*
X030534Y012885D01*
X030534Y012726D02*
X030374Y012726D01*
X030374Y012568D02*
X030534Y012568D01*
X030534Y012409D02*
X030374Y012409D01*
X030140Y012409D02*
X030038Y012409D01*
X030173Y012251D02*
X030650Y012251D01*
X030564Y012092D02*
X030265Y012092D01*
X030317Y011934D02*
X030508Y011934D01*
X030478Y011775D02*
X030357Y011775D01*
X030357Y011617D02*
X031515Y011617D01*
X031515Y011775D02*
X031675Y011775D01*
X031675Y011617D02*
X034465Y011617D01*
X034465Y011775D02*
X032712Y011775D01*
X032682Y011934D02*
X034465Y011934D01*
X034465Y012092D02*
X032627Y012092D01*
X032541Y012251D02*
X034465Y012251D01*
X034465Y012409D02*
X032418Y012409D01*
X032235Y012568D02*
X034465Y012568D01*
X034465Y012726D02*
X031895Y012726D01*
X031675Y012726D02*
X031515Y012726D01*
X031515Y012568D02*
X031675Y012568D01*
X031675Y012409D02*
X031515Y012409D01*
X031515Y012251D02*
X031675Y012251D01*
X031675Y012092D02*
X031515Y012092D01*
X031515Y011934D02*
X031675Y011934D01*
X031675Y011458D02*
X031515Y011458D01*
X031515Y011300D02*
X031675Y011300D01*
X031675Y011141D02*
X031515Y011141D01*
X031515Y010983D02*
X031675Y010983D01*
X031675Y010824D02*
X031515Y010824D01*
X031515Y010666D02*
X031675Y010666D01*
X032158Y010666D02*
X034465Y010666D01*
X034465Y010824D02*
X032370Y010824D01*
X032509Y010983D02*
X034465Y010983D01*
X034465Y011141D02*
X032603Y011141D01*
X032668Y011300D02*
X034465Y011300D01*
X034465Y011458D02*
X032707Y011458D01*
X031033Y010666D02*
X029753Y010666D01*
X029570Y010507D02*
X034465Y010507D01*
X034465Y010349D02*
X029570Y010349D01*
X029570Y010190D02*
X034465Y010190D01*
X034465Y010032D02*
X029570Y010032D01*
X029570Y009873D02*
X034465Y009873D01*
X034465Y009715D02*
X029570Y009715D01*
X028790Y009698D02*
X028765Y009638D01*
X028790Y009698D02*
X028790Y010666D01*
X028790Y010507D02*
X025728Y010507D01*
X025733Y010349D02*
X028790Y010349D01*
X028790Y010190D02*
X025891Y010190D01*
X025940Y010032D02*
X028790Y010032D01*
X028765Y009398D02*
X028635Y009398D01*
X028635Y009239D02*
X028765Y009239D01*
X028765Y009081D02*
X028635Y009081D01*
X028567Y008764D02*
X028835Y008764D01*
X029061Y008605D02*
X028397Y008605D01*
X027793Y008764D02*
X027525Y008764D01*
X027595Y009081D02*
X027725Y009081D01*
X027725Y009239D02*
X027595Y009239D01*
X027595Y009398D02*
X027725Y009398D01*
X027725Y009556D02*
X027595Y009556D01*
X027563Y009715D02*
X027753Y009715D01*
X027855Y009873D02*
X027449Y009873D01*
X026911Y009873D02*
X025940Y009873D01*
X025936Y009715D02*
X026797Y009715D01*
X026765Y009556D02*
X025777Y009556D01*
X025083Y009556D02*
X024856Y009556D01*
X025014Y009398D02*
X026746Y009398D01*
X026890Y008447D02*
X023650Y008447D01*
X023650Y008605D02*
X024703Y008605D01*
X024545Y008764D02*
X023650Y008764D01*
X023650Y008922D02*
X024386Y008922D01*
X024228Y009081D02*
X023650Y009081D01*
X023650Y009239D02*
X024087Y009239D01*
X024040Y009398D02*
X023650Y009398D01*
X023650Y009556D02*
X024040Y009556D01*
X023924Y009715D02*
X023650Y009715D01*
X023650Y009873D02*
X023920Y009873D01*
X023920Y010032D02*
X023650Y010032D01*
X023650Y010190D02*
X023969Y010190D01*
X024127Y010349D02*
X023650Y010349D01*
X023650Y010507D02*
X024132Y010507D01*
X023973Y010666D02*
X023650Y010666D01*
X023650Y010824D02*
X023920Y010824D01*
X024078Y011300D02*
X023650Y011300D01*
X023650Y011458D02*
X024124Y011458D01*
X023966Y011617D02*
X023650Y011617D01*
X023650Y011775D02*
X023880Y011775D01*
X023650Y011934D02*
X024410Y011934D01*
X024410Y012092D02*
X024450Y012092D01*
X024450Y012251D02*
X024410Y012251D01*
X024410Y012409D02*
X024450Y012409D01*
X024729Y012409D02*
X025188Y012409D01*
X025029Y012251D02*
X024887Y012251D01*
X024131Y012409D02*
X023650Y012409D01*
X023650Y012251D02*
X023973Y012251D01*
X023880Y012092D02*
X023650Y012092D01*
X023210Y012092D02*
X022079Y012092D01*
X021921Y012251D02*
X023210Y012251D01*
X023210Y011934D02*
X022238Y011934D01*
X022396Y011775D02*
X023210Y011775D01*
X023210Y011617D02*
X022400Y011617D01*
X022400Y011458D02*
X023210Y011458D01*
X023210Y011300D02*
X022857Y011300D01*
X023030Y011141D02*
X023210Y011141D01*
X023210Y010983D02*
X023080Y010983D01*
X023080Y010824D02*
X023210Y010824D01*
X023210Y010666D02*
X023080Y010666D01*
X023080Y010507D02*
X023210Y010507D01*
X023210Y010349D02*
X023080Y010349D01*
X023016Y010190D02*
X023210Y010190D01*
X023210Y010032D02*
X022900Y010032D01*
X022900Y009873D02*
X023210Y009873D01*
X023210Y009715D02*
X022900Y009715D01*
X022900Y009556D02*
X023210Y009556D01*
X023210Y009398D02*
X022900Y009398D01*
X022900Y009239D02*
X023210Y009239D01*
X023210Y009081D02*
X022900Y009081D01*
X022900Y008922D02*
X023210Y008922D01*
X023210Y008764D02*
X022900Y008764D01*
X022952Y008605D02*
X023210Y008605D01*
X023210Y008447D02*
X022998Y008447D01*
X022966Y008288D02*
X023210Y008288D01*
X023210Y008130D02*
X022786Y008130D01*
X022700Y007971D02*
X023160Y007971D01*
X023430Y007930D02*
X023180Y007680D01*
X022680Y007680D01*
X021680Y008680D01*
X021680Y010680D01*
X021460Y010032D02*
X021400Y010032D01*
X021400Y009873D02*
X021460Y009873D01*
X021460Y009715D02*
X021400Y009715D01*
X021400Y009556D02*
X021460Y009556D01*
X021460Y009398D02*
X021400Y009398D01*
X021400Y009239D02*
X021460Y009239D01*
X021460Y009081D02*
X021400Y009081D01*
X021400Y008922D02*
X021460Y008922D01*
X021460Y008764D02*
X021400Y008764D01*
X021400Y008605D02*
X021460Y008605D01*
X021400Y008447D02*
X021602Y008447D01*
X021761Y008288D02*
X021400Y008288D01*
X021400Y008130D02*
X021919Y008130D01*
X022078Y007971D02*
X021400Y007971D01*
X021400Y007813D02*
X022236Y007813D01*
X022395Y007654D02*
X021400Y007654D01*
X021400Y007496D02*
X022553Y007496D01*
X022542Y008130D02*
X022574Y008130D01*
X022680Y008430D02*
X022680Y010680D01*
X022503Y011300D02*
X022400Y011300D01*
X022180Y011680D02*
X022180Y008930D01*
X023430Y007930D02*
X023430Y013930D01*
X022180Y015180D01*
X022238Y014311D02*
X021830Y014311D01*
X022025Y014153D02*
X022335Y014153D01*
X022280Y013994D02*
X022080Y013994D01*
X022080Y013836D02*
X022280Y013836D01*
X022280Y013677D02*
X022080Y013677D01*
X022080Y013519D02*
X022280Y013519D01*
X022280Y013360D02*
X022080Y013360D01*
X022022Y013202D02*
X022338Y013202D01*
X023080Y013836D02*
X023210Y013836D01*
X021530Y014311D02*
X020830Y014311D01*
X021025Y014153D02*
X021335Y014153D01*
X021280Y013994D02*
X021080Y013994D01*
X021080Y013836D02*
X021280Y013836D01*
X021280Y013677D02*
X021080Y013677D01*
X021080Y013519D02*
X021280Y013519D01*
X021280Y013360D02*
X021080Y013360D01*
X021022Y013202D02*
X021338Y013202D01*
X020180Y012680D02*
X019180Y012680D01*
X018680Y013180D01*
X018680Y013680D01*
X019080Y013677D02*
X019280Y013677D01*
X019280Y013519D02*
X019080Y013519D01*
X019080Y013360D02*
X019280Y013360D01*
X019338Y013202D02*
X019022Y013202D01*
X019128Y013043D02*
X019545Y013043D01*
X019815Y013043D02*
X020006Y013043D01*
X020180Y012680D02*
X021180Y011680D01*
X021180Y003180D01*
X020180Y002180D01*
X018180Y002180D01*
X017911Y002582D02*
X017449Y002582D01*
X017552Y002741D02*
X020429Y002741D01*
X020588Y002899D02*
X017710Y002899D01*
X017680Y003180D02*
X017180Y002680D01*
X017180Y002180D01*
X017655Y002107D02*
X017705Y002107D01*
X017705Y002265D02*
X017655Y002265D01*
X017608Y002424D02*
X017752Y002424D01*
X017741Y001948D02*
X017619Y001948D01*
X017461Y001790D02*
X017899Y001790D01*
X018608Y002424D02*
X020112Y002424D01*
X020271Y002582D02*
X018449Y002582D01*
X017680Y003180D02*
X019680Y003180D01*
X020180Y003680D01*
X020180Y011680D01*
X018180Y011680D01*
X017680Y012180D01*
X017680Y013680D01*
X017680Y013180D01*
X017460Y013043D02*
X017045Y013043D01*
X017070Y013202D02*
X017338Y013202D01*
X017280Y013360D02*
X017080Y013360D01*
X017080Y013519D02*
X017280Y013519D01*
X017280Y013677D02*
X017080Y013677D01*
X017080Y013836D02*
X017280Y013836D01*
X017280Y013994D02*
X017080Y013994D01*
X017070Y014153D02*
X017335Y014153D01*
X017530Y014311D02*
X017070Y014311D01*
X017096Y014470D02*
X017960Y014470D01*
X017960Y014311D02*
X017830Y014311D01*
X017921Y014628D02*
X017145Y014628D01*
X017139Y014787D02*
X017762Y014787D01*
X017604Y014945D02*
X017073Y014945D01*
X017070Y015104D02*
X017445Y015104D01*
X017287Y015262D02*
X017070Y015262D01*
X017070Y015421D02*
X017128Y015421D01*
X017180Y015680D02*
X018180Y014680D01*
X018180Y012680D01*
X018680Y012180D01*
X020180Y012180D01*
X020680Y011680D01*
X020680Y010680D01*
X020787Y010032D02*
X020960Y010032D01*
X020960Y009873D02*
X020400Y009873D01*
X020400Y009715D02*
X020960Y009715D01*
X020960Y009556D02*
X020400Y009556D01*
X020400Y009398D02*
X020960Y009398D01*
X020960Y009239D02*
X020400Y009239D01*
X020400Y009081D02*
X020960Y009081D01*
X020960Y008922D02*
X020400Y008922D01*
X020400Y008764D02*
X020960Y008764D01*
X020960Y008605D02*
X020400Y008605D01*
X020400Y008447D02*
X020960Y008447D01*
X020960Y008288D02*
X020400Y008288D01*
X020400Y008130D02*
X020960Y008130D01*
X020960Y007971D02*
X020400Y007971D01*
X020400Y007813D02*
X020960Y007813D01*
X020960Y007654D02*
X020400Y007654D01*
X020400Y007496D02*
X020960Y007496D01*
X020960Y007337D02*
X020400Y007337D01*
X020400Y007179D02*
X020960Y007179D01*
X020960Y007020D02*
X020400Y007020D01*
X020400Y006862D02*
X020960Y006862D01*
X020960Y006703D02*
X020400Y006703D01*
X020400Y006545D02*
X020960Y006545D01*
X020960Y006386D02*
X020400Y006386D01*
X020400Y006228D02*
X020960Y006228D01*
X020960Y006069D02*
X020400Y006069D01*
X020400Y005911D02*
X020960Y005911D01*
X020960Y005752D02*
X020400Y005752D01*
X020400Y005594D02*
X020960Y005594D01*
X020960Y005435D02*
X020400Y005435D01*
X020400Y005277D02*
X020960Y005277D01*
X020960Y005118D02*
X020400Y005118D01*
X020400Y004960D02*
X020960Y004960D01*
X020960Y004801D02*
X020400Y004801D01*
X020400Y004643D02*
X020960Y004643D01*
X020960Y004484D02*
X020400Y004484D01*
X020400Y004326D02*
X020960Y004326D01*
X020960Y004167D02*
X020400Y004167D01*
X020400Y004009D02*
X020960Y004009D01*
X020960Y003850D02*
X020400Y003850D01*
X020400Y003692D02*
X020960Y003692D01*
X020960Y003533D02*
X020344Y003533D01*
X020186Y003375D02*
X020960Y003375D01*
X020905Y003216D02*
X020027Y003216D01*
X019869Y003058D02*
X020746Y003058D01*
X019880Y003692D02*
X016400Y003692D01*
X016400Y003533D02*
X019722Y003533D01*
X019960Y003850D02*
X016321Y003850D01*
X016180Y003680D02*
X016180Y002180D01*
X016655Y002107D02*
X016705Y002107D01*
X016705Y002265D02*
X016655Y002265D01*
X016608Y002424D02*
X016752Y002424D01*
X016911Y002582D02*
X016449Y002582D01*
X016400Y002741D02*
X016960Y002741D01*
X017088Y002899D02*
X016400Y002899D01*
X016400Y003058D02*
X017246Y003058D01*
X017405Y003216D02*
X016400Y003216D01*
X016400Y003375D02*
X017563Y003375D01*
X017460Y003271D02*
X017460Y003271D01*
X016180Y003680D02*
X015680Y004180D01*
X009680Y004180D01*
X009180Y004680D01*
X009180Y011180D01*
X011432Y009239D02*
X011810Y009239D01*
X011968Y009081D02*
X011591Y009081D01*
X013274Y009398D02*
X013651Y009398D01*
X013810Y009239D02*
X013432Y009239D01*
X013591Y009081D02*
X013968Y009081D01*
X014127Y008922D02*
X013749Y008922D01*
X013908Y008764D02*
X014285Y008764D01*
X014426Y008605D02*
X014444Y008605D01*
X017043Y010032D02*
X017573Y010032D01*
X017787Y010032D02*
X018220Y010032D01*
X018344Y010190D02*
X018016Y010190D01*
X018080Y010349D02*
X018280Y010349D01*
X018280Y010507D02*
X018080Y010507D01*
X018062Y009873D02*
X017148Y009873D01*
X017185Y009715D02*
X017903Y009715D01*
X017745Y009556D02*
X017171Y009556D01*
X017099Y009398D02*
X017586Y009398D01*
X017344Y010190D02*
X017057Y010190D01*
X017114Y010349D02*
X017280Y010349D01*
X017280Y010507D02*
X017120Y010507D01*
X017120Y010666D02*
X017280Y010666D01*
X017280Y010824D02*
X017120Y010824D01*
X017119Y010983D02*
X017280Y010983D01*
X017330Y011141D02*
X017071Y011141D01*
X017460Y012568D02*
X016619Y012568D01*
X016778Y012726D02*
X017460Y012726D01*
X017460Y012885D02*
X016936Y012885D01*
X016901Y012849D02*
X016901Y012849D01*
X018400Y014311D02*
X018530Y014311D01*
X019025Y014153D02*
X019335Y014153D01*
X019280Y013994D02*
X019080Y013994D01*
X019080Y013836D02*
X019280Y013836D01*
X021180Y012180D02*
X021680Y012180D01*
X022180Y011680D01*
X020573Y010032D02*
X020400Y010032D01*
X019960Y010032D02*
X019900Y010032D01*
X019900Y009873D02*
X019960Y009873D01*
X019960Y009715D02*
X019900Y009715D01*
X019867Y009556D02*
X019960Y009556D01*
X019960Y009398D02*
X019709Y009398D01*
X019550Y009239D02*
X019960Y009239D01*
X019960Y009081D02*
X019392Y009081D01*
X019233Y008922D02*
X019960Y008922D01*
X019960Y008764D02*
X019075Y008764D01*
X018916Y008605D02*
X019960Y008605D01*
X019960Y008447D02*
X018758Y008447D01*
X018655Y008288D02*
X019960Y008288D01*
X019960Y008130D02*
X018655Y008130D01*
X018642Y007971D02*
X019960Y007971D01*
X019960Y007813D02*
X018484Y007813D01*
X018180Y008180D02*
X019680Y009680D01*
X019680Y010680D01*
X019960Y007654D02*
X009400Y007654D01*
X009400Y007496D02*
X019960Y007496D01*
X019960Y007337D02*
X009400Y007337D01*
X009400Y007179D02*
X019960Y007179D01*
X019960Y007020D02*
X009400Y007020D01*
X009400Y006862D02*
X019960Y006862D01*
X019960Y006703D02*
X009400Y006703D01*
X009400Y006545D02*
X019960Y006545D01*
X019960Y006386D02*
X009400Y006386D01*
X009400Y006228D02*
X019960Y006228D01*
X019960Y006069D02*
X009400Y006069D01*
X009400Y005911D02*
X019960Y005911D01*
X019960Y005752D02*
X009400Y005752D01*
X009400Y005594D02*
X019960Y005594D01*
X019960Y005435D02*
X009400Y005435D01*
X009400Y005277D02*
X019960Y005277D01*
X019960Y005118D02*
X009400Y005118D01*
X009400Y004960D02*
X019960Y004960D01*
X019960Y004801D02*
X009400Y004801D01*
X009529Y004643D02*
X019960Y004643D01*
X019960Y004484D02*
X009687Y004484D01*
X004980Y004801D02*
X004940Y004801D01*
X004940Y004960D02*
X004980Y004960D01*
X004980Y005118D02*
X004940Y005118D01*
X004940Y005435D02*
X004980Y005435D01*
X004980Y005594D02*
X004940Y005594D01*
X004940Y005752D02*
X004980Y005752D01*
X004660Y005752D02*
X002700Y005752D01*
X002859Y005594D02*
X004501Y005594D01*
X004429Y005435D02*
X002931Y005435D01*
X002950Y005270D02*
X002420Y005270D01*
X002420Y004740D01*
X002443Y004740D01*
X002529Y004754D01*
X002611Y004780D01*
X002688Y004820D01*
X002758Y004870D01*
X002820Y004932D01*
X002870Y005002D01*
X002910Y005079D01*
X002936Y005161D01*
X002950Y005247D01*
X002950Y005270D01*
X002922Y005118D02*
X004438Y005118D01*
X004520Y004960D02*
X002840Y004960D01*
X002652Y004801D02*
X004708Y004801D01*
X004606Y006703D02*
X002754Y006703D01*
X002400Y007070D02*
X004960Y007070D01*
X004519Y007337D02*
X002841Y007337D01*
X002696Y007496D02*
X004664Y007496D01*
X002420Y005752D02*
X002380Y005752D01*
X002380Y005594D02*
X002420Y005594D01*
X002420Y005435D02*
X002380Y005435D01*
X002380Y005118D02*
X002420Y005118D01*
X002420Y004960D02*
X002380Y004960D01*
X002380Y004801D02*
X002420Y004801D01*
X001941Y005594D02*
X001360Y005594D01*
X001360Y005752D02*
X002100Y005752D01*
X002471Y004167D02*
X001360Y004167D01*
X001360Y004009D02*
X002189Y004009D01*
X001991Y003850D02*
X001360Y003850D01*
X001360Y003692D02*
X001849Y003692D01*
X001741Y003533D02*
X001360Y003533D01*
X001360Y003375D02*
X001634Y003375D01*
X001585Y003216D02*
X001360Y003216D01*
X001360Y003058D02*
X001536Y003058D01*
X001487Y002899D02*
X001360Y002899D01*
X001360Y002741D02*
X001487Y002741D01*
X001487Y002582D02*
X001366Y002582D01*
X001383Y002424D02*
X001487Y002424D01*
X001528Y002265D02*
X001420Y002265D01*
X001456Y002107D02*
X001577Y002107D01*
X001626Y001948D02*
X001525Y001948D01*
X001601Y001790D02*
X001724Y001790D01*
X001703Y001631D02*
X001832Y001631D01*
X002741Y010190D02*
X004619Y010190D01*
X004500Y010349D02*
X002860Y010349D01*
X002400Y010570D02*
X004960Y010570D01*
X004513Y010824D02*
X002847Y010824D01*
X002709Y010983D02*
X004651Y010983D01*
X004971Y013519D02*
X001360Y013519D01*
X001360Y013677D02*
X004940Y013677D01*
X004968Y013836D02*
X001360Y013836D01*
X001360Y013994D02*
X005072Y013994D01*
X005066Y016372D02*
X001360Y016372D01*
X001360Y016530D02*
X004966Y016530D01*
X004940Y016689D02*
X001360Y016689D01*
X001360Y016847D02*
X004973Y016847D01*
X002775Y023845D02*
X002775Y023845D01*
X002433Y023980D02*
X001360Y023980D01*
X001360Y024138D02*
X002171Y024138D01*
X002309Y024028D02*
X002309Y024028D01*
X001972Y024297D02*
X001360Y024297D01*
X001360Y024455D02*
X001839Y024455D01*
X001917Y024340D02*
X001917Y024340D01*
X001917Y024340D01*
X001731Y024614D02*
X001360Y024614D01*
X001360Y024772D02*
X001629Y024772D01*
X001635Y024754D02*
X001635Y024754D01*
X001580Y024931D02*
X001360Y024931D01*
X001360Y025089D02*
X001532Y025089D01*
X001487Y025248D02*
X001360Y025248D01*
X001360Y025406D02*
X001487Y025406D01*
X001487Y025565D02*
X001366Y025565D01*
X001387Y025723D02*
X001487Y025723D01*
X001533Y025882D02*
X001423Y025882D01*
X001459Y026040D02*
X001582Y026040D01*
X001532Y026199D02*
X001631Y026199D01*
X001635Y026212D02*
X001635Y026212D01*
X001609Y026357D02*
X001734Y026357D01*
X001715Y026516D02*
X001842Y026516D01*
X001842Y026674D02*
X001977Y026674D01*
X002011Y026833D02*
X002176Y026833D01*
X002210Y026991D02*
X002443Y026991D01*
X002537Y027150D02*
X003155Y027150D01*
X003274Y027158D02*
X003274Y027158D01*
X003313Y027150D02*
X016680Y027150D01*
X017400Y017798D02*
X020652Y017798D01*
X020810Y017640D02*
X017400Y017640D01*
X018647Y017164D02*
X020770Y017164D01*
X020631Y017006D02*
X018768Y017006D01*
X014574Y014708D02*
X014574Y013786D01*
X014680Y013680D01*
X013786Y013786D02*
X013680Y013680D01*
X013786Y013786D02*
X013786Y014708D01*
X023307Y007496D02*
X027454Y007496D01*
X027296Y007654D02*
X023465Y007654D01*
X023624Y007813D02*
X027137Y007813D01*
X026979Y007971D02*
X023650Y007971D01*
X023650Y008130D02*
X026890Y008130D01*
X026890Y008288D02*
X023650Y008288D01*
X021400Y005752D02*
X026406Y005752D01*
X026400Y005594D02*
X021400Y005594D01*
X021400Y005435D02*
X026400Y005435D01*
X026400Y005277D02*
X021400Y005277D01*
X021400Y005118D02*
X026400Y005118D01*
X026400Y004960D02*
X021400Y004960D01*
X021400Y004801D02*
X026400Y004801D01*
X026400Y004643D02*
X021400Y004643D01*
X019960Y004326D02*
X015846Y004326D01*
X016004Y004167D02*
X019960Y004167D01*
X019960Y004009D02*
X016163Y004009D01*
X015857Y003692D02*
X014980Y003692D01*
X014821Y003850D02*
X015699Y003850D01*
X015960Y003533D02*
X015138Y003533D01*
X015297Y003375D02*
X015960Y003375D01*
X015960Y003216D02*
X015400Y003216D01*
X015400Y003058D02*
X015960Y003058D01*
X015960Y002899D02*
X015400Y002899D01*
X015400Y002741D02*
X015960Y002741D01*
X015911Y002582D02*
X015449Y002582D01*
X015608Y002424D02*
X015752Y002424D01*
X015705Y002265D02*
X015655Y002265D01*
X015655Y002107D02*
X015705Y002107D01*
X015741Y001948D02*
X015619Y001948D01*
X015461Y001790D02*
X015899Y001790D01*
X016461Y001790D02*
X016899Y001790D01*
X016741Y001948D02*
X016619Y001948D01*
X027799Y007971D02*
X031895Y007971D01*
X031445Y008748D02*
X031509Y008795D01*
X031565Y008851D01*
X031612Y008915D01*
X031648Y008986D01*
X031673Y009062D01*
X031685Y009140D01*
X031685Y009180D01*
X031685Y009220D01*
X031673Y009298D01*
X031648Y009374D01*
X031612Y009445D01*
X031565Y009509D01*
X031509Y009565D01*
X031445Y009612D01*
X031374Y009648D01*
X031298Y009673D01*
X031220Y009685D01*
X031180Y009685D01*
X031180Y009180D01*
X031685Y009180D01*
X031180Y009180D01*
X031180Y009180D01*
X031180Y009180D01*
X031180Y008675D01*
X031220Y008675D01*
X031298Y008687D01*
X031374Y008712D01*
X031445Y008748D01*
X031466Y008764D02*
X034465Y008764D01*
X034465Y008922D02*
X031615Y008922D01*
X031676Y009081D02*
X034465Y009081D01*
X034465Y009239D02*
X031682Y009239D01*
X031636Y009398D02*
X034465Y009398D01*
X034465Y009556D02*
X031518Y009556D01*
X031180Y009556D02*
X031180Y009556D01*
X031180Y009685D02*
X031140Y009685D01*
X031062Y009673D01*
X030986Y009648D01*
X030915Y009612D01*
X030851Y009565D01*
X030795Y009509D01*
X030748Y009445D01*
X030712Y009374D01*
X030687Y009298D01*
X030675Y009220D01*
X030675Y009180D01*
X031180Y009180D01*
X031180Y009180D01*
X031180Y009180D01*
X031180Y009685D01*
X031180Y009398D02*
X031180Y009398D01*
X031180Y009239D02*
X031180Y009239D01*
X031180Y009180D02*
X030675Y009180D01*
X030675Y009140D01*
X030687Y009062D01*
X030712Y008986D01*
X030748Y008915D01*
X030795Y008851D01*
X030851Y008795D01*
X030915Y008748D01*
X030986Y008712D01*
X031062Y008687D01*
X031140Y008675D01*
X031180Y008675D01*
X031180Y009180D01*
X031180Y009081D02*
X031180Y009081D01*
X031180Y008922D02*
X031180Y008922D01*
X031180Y008764D02*
X031180Y008764D01*
X030894Y008764D02*
X030390Y008764D01*
X030576Y008922D02*
X030745Y008922D01*
X030684Y009081D02*
X030642Y009081D01*
X030645Y009239D02*
X030678Y009239D01*
X030724Y009398D02*
X030593Y009398D01*
X030462Y009556D02*
X030842Y009556D01*
X029970Y008764D02*
X029525Y008764D01*
X029299Y008605D02*
X034465Y008605D01*
X030821Y010824D02*
X029990Y010824D01*
X030145Y010983D02*
X030681Y010983D01*
X030587Y011141D02*
X030237Y011141D01*
X030304Y011300D02*
X030523Y011300D01*
X030484Y011458D02*
X030347Y011458D01*
X030767Y012409D02*
X030773Y012409D01*
X031279Y012726D02*
X031296Y012726D01*
X031401Y012885D02*
X034465Y012885D01*
X034465Y013043D02*
X031486Y013043D01*
X031541Y013202D02*
X034465Y013202D01*
X034465Y013360D02*
X031571Y013360D01*
X030534Y013677D02*
X030374Y013677D01*
X030374Y013519D02*
X028306Y013519D01*
X028402Y013360D02*
X029336Y013360D01*
X029366Y013202D02*
X028435Y013202D01*
X028416Y013043D02*
X029421Y013043D01*
X029506Y012885D02*
X028340Y012885D01*
X028151Y012726D02*
X029628Y012726D01*
X030374Y013836D02*
X030534Y013836D01*
X030534Y013994D02*
X030374Y013994D01*
X030374Y014153D02*
X030534Y014153D01*
X030534Y014311D02*
X030374Y014311D01*
X030374Y014470D02*
X030534Y014470D01*
X027930Y013519D02*
X027930Y013519D01*
X027930Y013360D02*
X027930Y013360D01*
X027930Y013202D02*
X027930Y013202D01*
X027930Y013180D02*
X027425Y013180D01*
X027425Y013140D01*
X027437Y013062D01*
X027462Y012986D01*
X027498Y012915D01*
X027545Y012851D01*
X027601Y012795D01*
X027665Y012748D01*
X027736Y012712D01*
X027812Y012687D01*
X027890Y012675D01*
X027930Y012675D01*
X027930Y013180D01*
X027930Y013043D02*
X027930Y013043D01*
X027930Y012885D02*
X027930Y012885D01*
X027930Y012726D02*
X027930Y012726D01*
X027709Y012726D02*
X027324Y012726D01*
X027395Y012885D02*
X027520Y012885D01*
X027444Y013043D02*
X027395Y013043D01*
X027395Y013202D02*
X027425Y013202D01*
X027395Y013360D02*
X027458Y013360D01*
X027395Y013519D02*
X027554Y013519D01*
X002212Y026993D02*
X002212Y026993D01*
D28*
X010930Y021930D03*
X018180Y015430D03*
X018930Y015430D03*
X022430Y012680D03*
X022180Y008930D03*
X022680Y008430D03*
X007430Y011930D03*
D29*
X006305Y014555D02*
X005805Y014555D01*
X005680Y014680D01*
X006305Y014555D02*
X008680Y016930D01*
X008680Y017680D01*
X008680Y018180D01*
X007805Y019055D01*
X006680Y020180D01*
X006680Y026180D01*
X013680Y020180D02*
X013680Y019680D01*
X014430Y018930D01*
X015430Y018930D01*
X016680Y017680D01*
X016680Y014680D01*
X016680Y013680D01*
X016680Y013180D01*
X014680Y011180D01*
X014680Y010680D01*
X024430Y009930D02*
X024430Y009430D01*
X024930Y008930D01*
X026830Y008930D01*
X027180Y009280D01*
X029180Y009280D02*
X030080Y009280D01*
X030180Y009180D01*
X029180Y009280D02*
X029180Y011548D01*
X029273Y011641D01*
D30*
X027180Y009280D02*
X027180Y008180D01*
X027680Y007680D01*
X032430Y007680D01*
X021180Y016680D02*
X021180Y017680D01*
X020680Y018180D01*
X017430Y018180D01*
X015680Y019930D01*
X015680Y020180D01*
X008680Y019680D02*
X008055Y019055D01*
X007805Y019055D01*
X015680Y010680D02*
X015680Y009680D01*
D31*
X026680Y022070D02*
X026570Y022180D01*
X023180Y022180D01*
X021239Y024121D01*
X021180Y024121D01*
X018180Y026089D02*
X026637Y026089D01*
X026719Y026007D01*
M02*
