G75*
%MOIN*%
%OFA0B0*%
%FSLAX24Y24*%
%IPPOS*%
%LPD*%
%AMOC8*
5,1,8,0,0,1.08239X$1,22.5*
%
%ADD10C,0.0000*%
%ADD11OC8,0.0709*%
%ADD12C,0.0560*%
%ADD13C,0.0690*%
%ADD14OC8,0.0700*%
%ADD15C,0.0780*%
%ADD16C,0.0437*%
%ADD17R,0.1221X0.3190*%
%ADD18C,0.0552*%
%ADD19C,0.1600*%
%ADD20C,0.0590*%
%ADD21R,0.3240X0.2440*%
%ADD22R,0.0690X0.0690*%
%ADD23C,0.1930*%
%ADD24C,0.1024*%
%ADD25C,0.1221*%
%ADD26C,0.1300*%
%ADD27C,0.0640*%
%ADD28OC8,0.0780*%
D10*
X001180Y002680D02*
X001180Y025452D01*
X002519Y025483D02*
X002521Y025533D01*
X002527Y025583D01*
X002537Y025632D01*
X002551Y025680D01*
X002568Y025727D01*
X002589Y025772D01*
X002614Y025816D01*
X002642Y025857D01*
X002674Y025896D01*
X002708Y025933D01*
X002745Y025967D01*
X002785Y025997D01*
X002827Y026024D01*
X002871Y026048D01*
X002917Y026069D01*
X002964Y026085D01*
X003012Y026098D01*
X003062Y026107D01*
X003111Y026112D01*
X003162Y026113D01*
X003212Y026110D01*
X003261Y026103D01*
X003310Y026092D01*
X003358Y026077D01*
X003404Y026059D01*
X003449Y026037D01*
X003492Y026011D01*
X003533Y025982D01*
X003572Y025950D01*
X003608Y025915D01*
X003640Y025877D01*
X003670Y025837D01*
X003697Y025794D01*
X003720Y025750D01*
X003739Y025704D01*
X003755Y025656D01*
X003767Y025607D01*
X003775Y025558D01*
X003779Y025508D01*
X003779Y025458D01*
X003775Y025408D01*
X003767Y025359D01*
X003755Y025310D01*
X003739Y025262D01*
X003720Y025216D01*
X003697Y025172D01*
X003670Y025129D01*
X003640Y025089D01*
X003608Y025051D01*
X003572Y025016D01*
X003533Y024984D01*
X003492Y024955D01*
X003449Y024929D01*
X003404Y024907D01*
X003358Y024889D01*
X003310Y024874D01*
X003261Y024863D01*
X003212Y024856D01*
X003162Y024853D01*
X003111Y024854D01*
X003062Y024859D01*
X003012Y024868D01*
X002964Y024881D01*
X002917Y024897D01*
X002871Y024918D01*
X002827Y024942D01*
X002785Y024969D01*
X002745Y024999D01*
X002708Y025033D01*
X002674Y025070D01*
X002642Y025109D01*
X002614Y025150D01*
X002589Y025194D01*
X002568Y025239D01*
X002551Y025286D01*
X002537Y025334D01*
X002527Y025383D01*
X002521Y025433D01*
X002519Y025483D01*
X001180Y025452D02*
X001182Y025539D01*
X001188Y025626D01*
X001197Y025713D01*
X001210Y025799D01*
X001227Y025885D01*
X001248Y025970D01*
X001273Y026053D01*
X001301Y026136D01*
X001332Y026217D01*
X001367Y026297D01*
X001406Y026375D01*
X001448Y026452D01*
X001493Y026527D01*
X001542Y026599D01*
X001593Y026670D01*
X001648Y026738D01*
X001705Y026803D01*
X001766Y026866D01*
X001829Y026927D01*
X001894Y026984D01*
X001962Y027039D01*
X002033Y027090D01*
X002105Y027139D01*
X002180Y027184D01*
X002257Y027226D01*
X002335Y027265D01*
X002415Y027300D01*
X002496Y027331D01*
X002579Y027359D01*
X002662Y027384D01*
X002747Y027405D01*
X002833Y027422D01*
X002919Y027435D01*
X003006Y027444D01*
X003093Y027450D01*
X003180Y027452D01*
X032645Y027452D01*
X032046Y025483D02*
X032048Y025533D01*
X032054Y025583D01*
X032064Y025632D01*
X032078Y025680D01*
X032095Y025727D01*
X032116Y025772D01*
X032141Y025816D01*
X032169Y025857D01*
X032201Y025896D01*
X032235Y025933D01*
X032272Y025967D01*
X032312Y025997D01*
X032354Y026024D01*
X032398Y026048D01*
X032444Y026069D01*
X032491Y026085D01*
X032539Y026098D01*
X032589Y026107D01*
X032638Y026112D01*
X032689Y026113D01*
X032739Y026110D01*
X032788Y026103D01*
X032837Y026092D01*
X032885Y026077D01*
X032931Y026059D01*
X032976Y026037D01*
X033019Y026011D01*
X033060Y025982D01*
X033099Y025950D01*
X033135Y025915D01*
X033167Y025877D01*
X033197Y025837D01*
X033224Y025794D01*
X033247Y025750D01*
X033266Y025704D01*
X033282Y025656D01*
X033294Y025607D01*
X033302Y025558D01*
X033306Y025508D01*
X033306Y025458D01*
X033302Y025408D01*
X033294Y025359D01*
X033282Y025310D01*
X033266Y025262D01*
X033247Y025216D01*
X033224Y025172D01*
X033197Y025129D01*
X033167Y025089D01*
X033135Y025051D01*
X033099Y025016D01*
X033060Y024984D01*
X033019Y024955D01*
X032976Y024929D01*
X032931Y024907D01*
X032885Y024889D01*
X032837Y024874D01*
X032788Y024863D01*
X032739Y024856D01*
X032689Y024853D01*
X032638Y024854D01*
X032589Y024859D01*
X032539Y024868D01*
X032491Y024881D01*
X032444Y024897D01*
X032398Y024918D01*
X032354Y024942D01*
X032312Y024969D01*
X032272Y024999D01*
X032235Y025033D01*
X032201Y025070D01*
X032169Y025109D01*
X032141Y025150D01*
X032116Y025194D01*
X032095Y025239D01*
X032078Y025286D01*
X032064Y025334D01*
X032054Y025383D01*
X032048Y025433D01*
X032046Y025483D01*
X032645Y027452D02*
X032732Y027450D01*
X032819Y027444D01*
X032906Y027435D01*
X032992Y027422D01*
X033078Y027405D01*
X033163Y027384D01*
X033246Y027359D01*
X033329Y027331D01*
X033410Y027300D01*
X033490Y027265D01*
X033568Y027226D01*
X033645Y027184D01*
X033720Y027139D01*
X033792Y027090D01*
X033863Y027039D01*
X033931Y026984D01*
X033996Y026927D01*
X034059Y026866D01*
X034120Y026803D01*
X034177Y026738D01*
X034232Y026670D01*
X034283Y026599D01*
X034332Y026527D01*
X034377Y026452D01*
X034419Y026375D01*
X034458Y026297D01*
X034493Y026217D01*
X034524Y026136D01*
X034552Y026053D01*
X034577Y025970D01*
X034598Y025885D01*
X034615Y025799D01*
X034628Y025713D01*
X034637Y025626D01*
X034643Y025539D01*
X034645Y025452D01*
X034645Y002680D01*
X032046Y002649D02*
X032048Y002699D01*
X032054Y002749D01*
X032064Y002798D01*
X032078Y002846D01*
X032095Y002893D01*
X032116Y002938D01*
X032141Y002982D01*
X032169Y003023D01*
X032201Y003062D01*
X032235Y003099D01*
X032272Y003133D01*
X032312Y003163D01*
X032354Y003190D01*
X032398Y003214D01*
X032444Y003235D01*
X032491Y003251D01*
X032539Y003264D01*
X032589Y003273D01*
X032638Y003278D01*
X032689Y003279D01*
X032739Y003276D01*
X032788Y003269D01*
X032837Y003258D01*
X032885Y003243D01*
X032931Y003225D01*
X032976Y003203D01*
X033019Y003177D01*
X033060Y003148D01*
X033099Y003116D01*
X033135Y003081D01*
X033167Y003043D01*
X033197Y003003D01*
X033224Y002960D01*
X033247Y002916D01*
X033266Y002870D01*
X033282Y002822D01*
X033294Y002773D01*
X033302Y002724D01*
X033306Y002674D01*
X033306Y002624D01*
X033302Y002574D01*
X033294Y002525D01*
X033282Y002476D01*
X033266Y002428D01*
X033247Y002382D01*
X033224Y002338D01*
X033197Y002295D01*
X033167Y002255D01*
X033135Y002217D01*
X033099Y002182D01*
X033060Y002150D01*
X033019Y002121D01*
X032976Y002095D01*
X032931Y002073D01*
X032885Y002055D01*
X032837Y002040D01*
X032788Y002029D01*
X032739Y002022D01*
X032689Y002019D01*
X032638Y002020D01*
X032589Y002025D01*
X032539Y002034D01*
X032491Y002047D01*
X032444Y002063D01*
X032398Y002084D01*
X032354Y002108D01*
X032312Y002135D01*
X032272Y002165D01*
X032235Y002199D01*
X032201Y002236D01*
X032169Y002275D01*
X032141Y002316D01*
X032116Y002360D01*
X032095Y002405D01*
X032078Y002452D01*
X032064Y002500D01*
X032054Y002549D01*
X032048Y002599D01*
X032046Y002649D01*
X032645Y000680D02*
X032732Y000682D01*
X032819Y000688D01*
X032906Y000697D01*
X032992Y000710D01*
X033078Y000727D01*
X033163Y000748D01*
X033246Y000773D01*
X033329Y000801D01*
X033410Y000832D01*
X033490Y000867D01*
X033568Y000906D01*
X033645Y000948D01*
X033720Y000993D01*
X033792Y001042D01*
X033863Y001093D01*
X033931Y001148D01*
X033996Y001205D01*
X034059Y001266D01*
X034120Y001329D01*
X034177Y001394D01*
X034232Y001462D01*
X034283Y001533D01*
X034332Y001605D01*
X034377Y001680D01*
X034419Y001757D01*
X034458Y001835D01*
X034493Y001915D01*
X034524Y001996D01*
X034552Y002079D01*
X034577Y002162D01*
X034598Y002247D01*
X034615Y002333D01*
X034628Y002419D01*
X034637Y002506D01*
X034643Y002593D01*
X034645Y002680D01*
X032645Y000680D02*
X003180Y000680D01*
X002519Y002649D02*
X002521Y002699D01*
X002527Y002749D01*
X002537Y002798D01*
X002551Y002846D01*
X002568Y002893D01*
X002589Y002938D01*
X002614Y002982D01*
X002642Y003023D01*
X002674Y003062D01*
X002708Y003099D01*
X002745Y003133D01*
X002785Y003163D01*
X002827Y003190D01*
X002871Y003214D01*
X002917Y003235D01*
X002964Y003251D01*
X003012Y003264D01*
X003062Y003273D01*
X003111Y003278D01*
X003162Y003279D01*
X003212Y003276D01*
X003261Y003269D01*
X003310Y003258D01*
X003358Y003243D01*
X003404Y003225D01*
X003449Y003203D01*
X003492Y003177D01*
X003533Y003148D01*
X003572Y003116D01*
X003608Y003081D01*
X003640Y003043D01*
X003670Y003003D01*
X003697Y002960D01*
X003720Y002916D01*
X003739Y002870D01*
X003755Y002822D01*
X003767Y002773D01*
X003775Y002724D01*
X003779Y002674D01*
X003779Y002624D01*
X003775Y002574D01*
X003767Y002525D01*
X003755Y002476D01*
X003739Y002428D01*
X003720Y002382D01*
X003697Y002338D01*
X003670Y002295D01*
X003640Y002255D01*
X003608Y002217D01*
X003572Y002182D01*
X003533Y002150D01*
X003492Y002121D01*
X003449Y002095D01*
X003404Y002073D01*
X003358Y002055D01*
X003310Y002040D01*
X003261Y002029D01*
X003212Y002022D01*
X003162Y002019D01*
X003111Y002020D01*
X003062Y002025D01*
X003012Y002034D01*
X002964Y002047D01*
X002917Y002063D01*
X002871Y002084D01*
X002827Y002108D01*
X002785Y002135D01*
X002745Y002165D01*
X002708Y002199D01*
X002674Y002236D01*
X002642Y002275D01*
X002614Y002316D01*
X002589Y002360D01*
X002568Y002405D01*
X002551Y002452D01*
X002537Y002500D01*
X002527Y002549D01*
X002521Y002599D01*
X002519Y002649D01*
X001180Y002680D02*
X001182Y002593D01*
X001188Y002506D01*
X001197Y002419D01*
X001210Y002333D01*
X001227Y002247D01*
X001248Y002162D01*
X001273Y002079D01*
X001301Y001996D01*
X001332Y001915D01*
X001367Y001835D01*
X001406Y001757D01*
X001448Y001680D01*
X001493Y001605D01*
X001542Y001533D01*
X001593Y001462D01*
X001648Y001394D01*
X001705Y001329D01*
X001766Y001266D01*
X001829Y001205D01*
X001894Y001148D01*
X001962Y001093D01*
X002033Y001042D01*
X002105Y000993D01*
X002180Y000948D01*
X002257Y000906D01*
X002335Y000867D01*
X002415Y000832D01*
X002496Y000801D01*
X002579Y000773D01*
X002662Y000748D01*
X002747Y000727D01*
X002833Y000710D01*
X002919Y000697D01*
X003006Y000688D01*
X003093Y000682D01*
X003180Y000680D01*
X027400Y002380D02*
X027402Y002436D01*
X027408Y002491D01*
X027418Y002546D01*
X027432Y002600D01*
X027449Y002653D01*
X027470Y002704D01*
X027495Y002754D01*
X027524Y002802D01*
X027556Y002847D01*
X027591Y002891D01*
X027628Y002932D01*
X027669Y002969D01*
X027713Y003004D01*
X027758Y003036D01*
X027806Y003065D01*
X027856Y003090D01*
X027907Y003111D01*
X027960Y003128D01*
X028014Y003142D01*
X028069Y003152D01*
X028124Y003158D01*
X028180Y003160D01*
X028236Y003158D01*
X028291Y003152D01*
X028346Y003142D01*
X028400Y003128D01*
X028453Y003111D01*
X028504Y003090D01*
X028554Y003065D01*
X028602Y003036D01*
X028647Y003004D01*
X028691Y002969D01*
X028732Y002932D01*
X028769Y002891D01*
X028804Y002847D01*
X028836Y002802D01*
X028865Y002754D01*
X028890Y002704D01*
X028911Y002653D01*
X028928Y002600D01*
X028942Y002546D01*
X028952Y002491D01*
X028958Y002436D01*
X028960Y002380D01*
X028958Y002324D01*
X028952Y002269D01*
X028942Y002214D01*
X028928Y002160D01*
X028911Y002107D01*
X028890Y002056D01*
X028865Y002006D01*
X028836Y001958D01*
X028804Y001913D01*
X028769Y001869D01*
X028732Y001828D01*
X028691Y001791D01*
X028647Y001756D01*
X028602Y001724D01*
X028554Y001695D01*
X028504Y001670D01*
X028453Y001649D01*
X028400Y001632D01*
X028346Y001618D01*
X028291Y001608D01*
X028236Y001602D01*
X028180Y001600D01*
X028124Y001602D01*
X028069Y001608D01*
X028014Y001618D01*
X027960Y001632D01*
X027907Y001649D01*
X027856Y001670D01*
X027806Y001695D01*
X027758Y001724D01*
X027713Y001756D01*
X027669Y001791D01*
X027628Y001828D01*
X027591Y001869D01*
X027556Y001913D01*
X027524Y001958D01*
X027495Y002006D01*
X027470Y002056D01*
X027449Y002107D01*
X027432Y002160D01*
X027418Y002214D01*
X027408Y002269D01*
X027402Y002324D01*
X027400Y002380D01*
D11*
X018180Y002180D03*
X017180Y002180D03*
X016180Y002180D03*
X015180Y002180D03*
X014180Y002180D03*
X013180Y002180D03*
X013180Y008180D03*
X014180Y008180D03*
X015180Y008180D03*
X016180Y008180D03*
X017180Y008180D03*
X018180Y008180D03*
D12*
X017680Y010420D02*
X017680Y010940D01*
X016680Y010940D02*
X016680Y010420D01*
X015680Y010420D02*
X015680Y010940D01*
X014680Y010940D02*
X014680Y010420D01*
X013680Y010420D02*
X013680Y010940D01*
X012680Y010940D02*
X012680Y010420D01*
X011680Y010420D02*
X011680Y010940D01*
X010680Y010940D02*
X010680Y010420D01*
X009680Y010420D02*
X009680Y010940D01*
X009680Y013420D02*
X009680Y013940D01*
X010680Y013940D02*
X010680Y013420D01*
X011680Y013420D02*
X011680Y013940D01*
X012680Y013940D02*
X012680Y013420D01*
X013680Y013420D02*
X013680Y013940D01*
X014680Y013940D02*
X014680Y013420D01*
X015680Y013420D02*
X015680Y013940D01*
X016680Y013940D02*
X016680Y013420D01*
X017680Y013420D02*
X017680Y013940D01*
X018680Y013940D02*
X018680Y013420D01*
X019680Y013420D02*
X019680Y013940D01*
X020680Y013940D02*
X020680Y013420D01*
X021680Y013420D02*
X021680Y013940D01*
X022680Y013940D02*
X022680Y013420D01*
X022680Y010940D02*
X022680Y010420D01*
X021680Y010420D02*
X021680Y010940D01*
X020680Y010940D02*
X020680Y010420D01*
X019680Y010420D02*
X019680Y010940D01*
X018680Y010940D02*
X018680Y010420D01*
X015680Y019920D02*
X015680Y020440D01*
X014680Y020440D02*
X014680Y019920D01*
X013680Y019920D02*
X013680Y020440D01*
X032170Y007680D02*
X032690Y007680D01*
X032690Y006680D02*
X032170Y006680D01*
X032170Y005680D02*
X032690Y005680D01*
D13*
X031180Y009180D03*
X030180Y009180D03*
X027930Y013180D03*
X016680Y014680D03*
X015680Y014680D03*
X015680Y009680D03*
X016680Y009680D03*
X007180Y016680D03*
X007180Y017680D03*
D14*
X008680Y017680D03*
X008680Y019680D03*
X012680Y019680D03*
X012680Y017680D03*
X012680Y015680D03*
X008680Y015680D03*
D15*
X004960Y010570D03*
X004960Y008790D03*
X004960Y007070D03*
X004960Y005290D03*
X002400Y005290D03*
X002400Y007070D03*
X002400Y008790D03*
X002400Y010570D03*
D16*
X013786Y014708D03*
X014574Y014708D03*
D17*
X014180Y016755D03*
D18*
X005164Y021180D03*
X003196Y021180D03*
D19*
X028180Y002380D03*
D20*
X028180Y009005D02*
X028180Y009555D01*
X027180Y009555D02*
X027180Y009005D01*
X029180Y009005D02*
X029180Y009555D01*
D21*
X028180Y004505D03*
D22*
X026930Y013180D03*
D23*
X029273Y011641D03*
X031595Y011641D03*
X030454Y013491D03*
D24*
X021180Y016680D03*
X018180Y016680D03*
X021180Y024121D03*
X018180Y026089D03*
D25*
X026719Y026007D03*
X026680Y024038D03*
X026680Y022070D03*
X026680Y020062D03*
X026680Y018133D03*
X026680Y016164D03*
D26*
X032676Y025483D03*
X032676Y002649D03*
X003149Y002649D03*
X003149Y025483D03*
D27*
X006680Y025880D02*
X006680Y026480D01*
X007680Y026480D02*
X007680Y025880D01*
X008680Y025880D02*
X008680Y026480D01*
X009680Y026480D02*
X009680Y025880D01*
X010680Y025880D02*
X010680Y026480D01*
X011680Y026480D02*
X011680Y025880D01*
X005980Y017680D02*
X005380Y017680D01*
X005380Y016680D02*
X005980Y016680D01*
X005980Y015680D02*
X005380Y015680D01*
X005380Y014680D02*
X005980Y014680D01*
X005980Y013680D02*
X005380Y013680D01*
X005380Y012680D02*
X005980Y012680D01*
D28*
X024430Y011930D03*
X025430Y011930D03*
X025430Y010930D03*
X024430Y010930D03*
X024430Y009930D03*
X025430Y009930D03*
M02*
